<svg xmlns="http://www.w3.org/2000/svg" viewBox="0 0 300 228.75"><defs><style>.cls-1{fill:#fafcfc;}.cls-2{fill:#1369b5;}.cls-3{fill:#146ab5;}.cls-4{fill:#2b78ba;}.cls-5{fill:#2373b7;}.cls-6{fill:#1b6eb5;}.cls-7{fill:#2272b7;}.cls-8{fill:#2171b7;}.cls-9{fill:#2171b6;}.cls-10{fill:#2977bb;}.cls-11{fill:#2a78ba;}.cls-12{fill:#2f7abd;}.cls-13{fill:#1b6db7;}.cls-14{fill:#f9fbfc;}.cls-15{fill:#fafbfc;}.cls-16{fill:#ebf2f6;}.cls-17{fill:#d8e7f0;}.cls-18{fill:#e5eff4;}</style></defs><title>fire5_Asset 1</title><g id="Layer_2" data-name="Layer 2"><g id="Layer_1-2" data-name="Layer 1"><path class="cls-1" d="M0,228.75V0H300V228.75Zm108.5-61.87h96.8c-.46-26,19.64-40.29,36.17-41.07,10.19-.47,19.32,2.09,27.23,8.52,10.06,8.18,14.5,19.07,14.59,31.88,8.15-1.54,13.72-8.64,13.74-17.39,0-20.25.11-40.5-.09-60.74a23.15,23.15,0,0,0-2.28-9.63c-8.77-17.94-17.8-35.76-26.76-53.61-7-14-18.41-21-34-21q-103.48-.07-207,0c-12.64,0-20.06,7.4-20.07,20q0,28.87,0,57.74c0,22.25,0,44.5,0,66.74,0,12.82,11.44,21.59,23.63,18.32-.44-26,20.07-40.22,36.54-40.81,10.05-.37,19.07,2.18,26.86,8.53C104.21,142.69,108.65,153.83,108.5,166.88Zm-4.8-2.24a34.22,34.22,0,1,0-34,34.17A33.91,33.91,0,0,0,103.7,164.64Zm174.76,0a34.22,34.22,0,1,0-34.37,34.16A33.93,33.93,0,0,0,278.46,164.65ZM41.88,213.59l.72-.35c2.73,3.49,5.41,7,8.23,10.43a3.08,3.08,0,0,0,2.45,1.1c.61-.16,1.28-1.46,1.3-2.27.12-4.48.16-9,0-13.45,0-.9-1.19-1.76-1.82-2.64-.52.87-1.42,1.72-1.48,2.62-.2,2.88-.08,5.79-.08,9.74-3.32-4.27-5.83-7.64-8.52-10.87A3.55,3.55,0,0,0,40,206.58c-.69.17-1.49,1.61-1.52,2.52-.15,4.48-.16,9,0,13.45,0,.84,1.11,1.63,1.7,2.45.58-.82,1.6-1.6,1.66-2.45C42,219.57,41.88,216.58,41.88,213.59Zm210.76-.05.75-.27c2.66,3.41,5.25,6.87,8,10.19.61.73,1.82,1,2.76,1.42.41-1,1.14-1.9,1.17-2.86.13-4.11.17-8.23,0-12.33-.05-1.12-1-2.19-1.57-3.29-.6,1.16-1.6,2.28-1.73,3.49-.26,2.59-.08,5.23-.08,8.93-3.37-4.36-5.89-7.75-8.59-11a3.38,3.38,0,0,0-2.73-1.22c-.7.22-1.4,1.66-1.44,2.6-.14,4.35-.17,8.72,0,13.07,0,.93,1.16,1.8,1.78,2.7.56-1,1.52-1.89,1.59-2.89C252.78,219.25,252.64,216.39,252.64,213.54Zm-100.24,2c2.58-1.7,4.68-3.73,2.82-7-1.46-2.62-4.06-2.89-6.55-1.9-4.09,1.64-3.26,5-2.16,8-3.43,3.09-4.14,5.67-2.38,8.18,2,2.86,5.62,3,10.89.43.36.26.71.7,1.15.82a27.47,27.47,0,0,0,2.86.46,12.61,12.61,0,0,1-.6-2.59c0-1.4.23-2.79.24-4.19a13.25,13.25,0,0,0-.4-2.29,5.75,5.75,0,0,0-1.9.63,12.75,12.75,0,0,0-1.71,2.38Zm130.44,2.84c.78,2.17-.48,3.35-3.07,3.64s-5-.48-6.31-3a6.53,6.53,0,0,1,.78-7.69c2.07-2.39,4.64-2.47,7.5-1.32,1,.4,2.35,0,3.54,0-.81-1-1.4-2.52-2.46-3a9.77,9.77,0,0,0-12,3.11,10.08,10.08,0,0,0,.9,12.43c3,3,9.13,3.52,12.85,1.08,3-2,1.73-4.94,1.6-7.51,0-.58-2.1-1.52-3.19-1.47-1.6.08-3.17.9-4.75,1.41Zm-190.7-.62-.74.28-3.79-4.86c-1.37-1.77-2.64-3.63-4.16-5.27a9.4,9.4,0,0,0-2.76-1.45c-.43.93-1.2,1.85-1.22,2.79-.14,4.23-.15,8.47,0,12.7,0,1,.9,2,1.39,3,.56-1,1.54-2,1.62-3.11.23-2.84.08-5.71.08-8.57a21.72,21.72,0,0,1,4.73,4.85c1.37,1.77,2.65,3.63,4.16,5.28a9.54,9.54,0,0,0,2.73,1.49A9.47,9.47,0,0,0,95.31,222c.12-4.35.14-8.72,0-13.07,0-.84-1-1.64-1.58-2.45-.52.83-1.44,1.65-1.5,2.51C92,211.9,92.14,214.84,92.14,217.77Zm98.23-8.35a30.87,30.87,0,0,0,4.34,0c1.91-.28,3.78-.83,5.67-1.26-1.16-3.12-3.84-1.6-5.76-1.63-9.24-.11-7.8-1.07-7.86,7.94-.06,11,0,11,10.93,10.52.12,0,.27.05.37,0,.85-.5,1.69-1,2.53-1.52-.84-.5-1.65-1.35-2.52-1.42-2.54-.19-5.11-.06-7.94-.06.1-1.9.17-3.2.25-4.75a59.17,59.17,0,0,0,6.32-.07c.93-.1,1.77-.93,2.64-1.43-.84-.52-1.64-1.4-2.52-1.5a59.66,59.66,0,0,0-6.45-.07Zm-67.56,0a30.28,30.28,0,0,0,4.53,0c1.86-.32,3.66-.93,5.49-1.41-1.84-.52-3.68-1.45-5.53-1.49-8.06-.17-8.06-.07-8.06,8.12,0,10.67,0,10.67,10.71,10.35.25,0,.56.1.74,0,.81-.53,1.59-1.11,2.38-1.68-.77-.44-1.53-1.2-2.32-1.25-2.58-.17-5.18-.07-7.89-.07v-4.74a40,40,0,0,0,5.73-.08c1.13-.16,2.16-1,3.24-1.57a11.43,11.43,0,0,0-3.08-1.36,50.75,50.75,0,0,0-5.94-.07Zm107.4,16.08c4-.31,6.44-1.87,7-4.8.56-3.24-.84-5-4.88-6.29a12.53,12.53,0,0,1-3.19-1,9.23,9.23,0,0,1-1.83-2.41c.86-.58,1.74-1.64,2.59-1.62,1.42,0,2.8.88,4.25,1.13a6.2,6.2,0,0,0,2.23-.56c-.26-.74-.38-2-.82-2.14-2.34-.63-5-1.74-7.1-1.2-1.84.46-3.87,2.69-4.53,4.58-.88,2.53,1.05,4.42,3.56,5.3a44.37,44.37,0,0,1,4.62,1.47c.76.35,1.84,1.65,1.67,2-.38.85-1.49,2-2.24,1.94-1.78-.1-3.51-.89-5.29-1.25a11.72,11.72,0,0,0-2.64.08c.37.91.49,2.28,1.16,2.65A38,38,0,0,0,230.21,225.5ZM76,223.59a11,11,0,0,0-.36-1.37c-2.14-4.77-4.19-9.58-6.49-14.27-1.2-2.45-3.18-2.43-4.38.05-2.27,4.7-4.35,9.51-6.36,14.33-.28.65.32,1.66.51,2.51a10.79,10.79,0,0,0,2.31-1.3c.9-.88,1.67-2.88,2.37-2.83,3.3.27,7.76-2.31,9.33,3.2a2.09,2.09,0,0,0,1.76,1C75.15,224.81,75.58,224,76,223.59Zm145.35-.31c-2.61-5.56-5.1-11-7.82-16.3-.15-.28-3,.1-3.41.82-2.43,4.76-4.58,9.67-6.65,14.6-.26.62.46,1.65.72,2.49a13.21,13.21,0,0,0,2.2-1.52c.81-.83,1.33-2.53,2.17-2.67a20.36,20.36,0,0,1,7.05,0c.92.17,1.44,2,2.31,3a3.39,3.39,0,0,0,2.06,1.12C220.34,224.86,220.8,223.88,221.3,223.28Zm-112.45,2.31a35.63,35.63,0,0,0,5.41-2.2c.66-.39.72-1.78,1.06-2.72-.89,0-2-.3-2.63.1-3.07,1.84-6,2-8.42-.79a6.16,6.16,0,0,1-.23-8.27c2.25-3,5.13-3.05,8.32-1.28.74.42,1.93,0,2.91,0-.48-1-.71-2.33-1.5-2.88-3.13-2.19-8.18-1.76-11.2.71a9.76,9.76,0,0,0-2.84,10.86C101.09,223,104.4,225.19,108.85,225.59ZM16.69,214.43v-4.85c2.8,0,5.39.11,8-.07.78-.06,1.5-.94,2.24-1.44-.7-.55-1.37-1.54-2.1-1.59a66,66,0,0,0-9.33,0c-.87.08-2.33,1.34-2.36,2.11-.21,4.84-.14,9.7,0,14.56,0,.61,1,1.2,1.51,1.81.61-.63,1.65-1.2,1.75-1.91a39,39,0,0,0,.09-5.55,62.76,62.76,0,0,0,6.55-.07c.91-.1,1.73-.9,2.59-1.39-.91-.54-1.78-1.44-2.74-1.56A49.93,49.93,0,0,0,16.69,214.43ZM174,221.86c0-4.54.1-8.53-.07-12.51-.05-1-1-2-1.52-2.94-.64,1-1.67,2-1.84,3.06a36.25,36.25,0,0,0-.08,6c.19,11.29-1.73,9.29,9.82,9.51.37,0,.82.13,1.11,0,.77-.44,1.48-1,2.22-1.5-.7-.53-1.37-1.44-2.11-1.5C179.16,221.74,176.8,221.86,174,221.86Zm70.52-6.2c0-2.36.13-4.73-.07-7.07-.06-.76-.95-1.46-1.46-2.19-.63.63-1.8,1.23-1.82,1.88q-.22,7.44,0,14.89c0,.62,1.22,1.2,1.87,1.8.49-.74,1.35-1.46,1.41-2.23C244.61,220.39,244.5,218,244.49,215.66Zm-213.94-.28h0c0,2.49-.12,5,.07,7.48.06.72,1,1.37,1.55,2,.53-.59,1.5-1.17,1.51-1.77q.18-7.48,0-15c0-.58-1-1.13-1.58-1.69-.51.59-1.41,1.16-1.45,1.79C30.44,210.62,30.55,213,30.55,215.38Z"/><path class="cls-2" d="M108.5,166.88c.15-13-4.29-24.19-14.57-32.56-7.79-6.35-16.81-8.9-26.86-8.53-16.47.59-37,14.76-36.54,40.81-12.19,3.27-23.59-5.5-23.63-18.32-.07-22.24,0-44.49,0-66.74q0-28.86,0-57.74c0-12.6,7.43-20,20.07-20q103.48,0,207,0c15.57,0,27,7,34,21,9,17.85,18,35.67,26.76,53.61a23.15,23.15,0,0,1,2.28,9.63c.2,20.24.13,40.49.09,60.74,0,8.75-5.59,15.85-13.74,17.39-.09-12.81-4.53-23.7-14.59-31.88-7.91-6.43-17-9-27.23-8.52-16.53.78-36.63,15.05-36.17,41.07Zm39.76-136.3c-27.63-.23-46.57,22.74-41.34,48.48,4.58,22.61,25,36.1,47.85,31.66a39.64,39.64,0,0,0,19.5-9.74,6.4,6.4,0,0,0,.78-9.08c-2.27-2.69-6-3-9.06-.83-1.42,1-2.74,2.18-4.2,3.13-11.25,7.32-25.93,5.44-34.38-4.35-9.19-10.66-8.93-28.29.57-38.53,9.32-10,23.78-10.8,36-1.89,4.19,3.07,8.43,2.8,10.87-.68s1.41-7.31-2.65-10.31A39.05,39.05,0,0,0,148.26,30.58Zm74.88,61.69c-.81-1.88-1.37-3.11-1.88-4.36Q211.12,62.55,201,37.18c-2-5.11-6-7.09-10.28-5.32-4,1.64-5.06,5.47-2.93,10.47Q201,73.5,214.27,104.67c1.65,3.91,4,6.45,8.58,6.5,4.77,0,7.23-2.55,8.9-6.6,3.34-8.07,6.82-16.08,10.23-24.12,5.55-13.09,11.13-26.17,16.62-39.29,1.69-4,.39-7.61-3.05-9.19-3.74-1.73-7.73-.14-9.63,3.85-.32.68-.56,1.39-.84,2.08q-5.94,14.76-11.89,29.51C229.93,75.48,226.66,83.55,223.14,92.27ZM58.92,97.48V55.33c0-5.61,0-11.23-.07-16.85-.06-3.46-1.61-6-5.14-6.93-4.82-1.21-8.64,2.1-8.65,7.5q0,31.28,0,62.54c0,6.15,2.42,8.55,8.66,8.57,9.62,0,19.23,0,28.84,0,3.74,0,7.49.1,11.23,0,4.08-.14,6.79-2.9,6.69-6.55s-2.74-6-6.7-6.1c-2-.07-4,0-6,0Z"/><path class="cls-3" d="M103.7,164.64a34.22,34.22,0,1,1-34.21-34.28A34,34,0,0,1,103.7,164.64ZM69.4,177.92a13.36,13.36,0,1,0,.42-26.71,13.36,13.36,0,1,0-.42,26.71Z"/><path class="cls-3" d="M278.46,164.65a34.22,34.22,0,1,1-34.21-34.29A34,34,0,0,1,278.46,164.65Zm-47.52-.27A13.18,13.18,0,0,0,244,177.91a13.36,13.36,0,1,0,.36-26.71A13.21,13.21,0,0,0,230.94,164.38Z"/><path class="cls-4" d="M41.88,213.59c0,3,.13,6-.08,9-.06.85-1.08,1.63-1.66,2.45-.59-.82-1.66-1.61-1.7-2.45-.17-4.48-.16-9,0-13.45,0-.91.83-2.35,1.52-2.52a3.55,3.55,0,0,1,2.71,1.32c2.69,3.23,5.2,6.6,8.52,10.87,0-4-.12-6.86.08-9.74.06-.9,1-1.75,1.48-2.62.63.88,1.78,1.74,1.82,2.64.18,4.48.14,9,0,13.45,0,.81-.69,2.11-1.3,2.27a3.08,3.08,0,0,1-2.45-1.1c-2.82-3.41-5.5-6.94-8.23-10.43Z"/><path class="cls-4" d="M252.64,213.54c0,2.85.14,5.71-.08,8.55-.07,1-1,1.93-1.59,2.89-.62-.9-1.74-1.77-1.78-2.7-.19-4.35-.16-8.72,0-13.07,0-.94.74-2.38,1.44-2.6a3.38,3.38,0,0,1,2.73,1.22c2.7,3.24,5.22,6.63,8.59,11,0-3.7-.18-6.34.08-8.93.13-1.21,1.13-2.33,1.73-3.49.55,1.1,1.52,2.17,1.57,3.29.19,4.1.15,8.22,0,12.33,0,1-.76,1.9-1.17,2.86-.94-.46-2.15-.69-2.76-1.42-2.76-3.32-5.35-6.78-8-10.19Z"/><path class="cls-5" d="M152.4,215.55l2.26,2.91a12.75,12.75,0,0,1,1.71-2.38,5.75,5.75,0,0,1,1.9-.63,13.25,13.25,0,0,1,.4,2.29c0,1.4-.28,2.79-.24,4.19a12.61,12.61,0,0,0,.6,2.59,27.47,27.47,0,0,1-2.86-.46c-.44-.12-.79-.56-1.15-.82-5.27,2.59-8.87,2.43-10.89-.43-1.76-2.51-1-5.09,2.38-8.18-1.1-3.06-1.93-6.38,2.16-8,2.49-1,5.09-.72,6.55,1.9C157.08,211.82,155,213.85,152.4,215.55Zm-3.35,1.31-1.27.14c-.18,1.42-.89,3.87-.46,4.08,1.47.75,3.33.72,5.05,1l.63-1.53Zm1.7-2.68c1-1.59,1.84-2.51,2-3.54.08-.48-1.25-1.18-1.94-1.78-.69.86-1.67,1.65-1.93,2.62C148.73,212,149.8,212.88,150.75,214.18Z"/><path class="cls-5" d="M282.84,218.39l-4.64-2.33c1.58-.51,3.15-1.33,4.75-1.41,1.09-.05,3.16.89,3.19,1.47.13,2.57,1.41,5.54-1.6,7.51-3.72,2.44-9.83,2-12.85-1.08a10.08,10.08,0,0,1-.9-12.43,9.77,9.77,0,0,1,12-3.11c1.06.5,1.65,2,2.46,3-1.19,0-2.52.38-3.54,0-2.86-1.15-5.43-1.07-7.5,1.32a6.53,6.53,0,0,0-.78,7.69c1.29,2.53,3.59,3.31,6.31,3S283.62,220.56,282.84,218.39Z"/><path class="cls-6" d="M92.14,217.77c0-2.93-.12-5.87.07-8.79.06-.86,1-1.68,1.5-2.51.55.81,1.54,1.61,1.58,2.45.16,4.35.14,8.72,0,13.07a9.47,9.47,0,0,1-1.13,2.88,9.54,9.54,0,0,1-2.73-1.49c-1.51-1.65-2.79-3.51-4.16-5.28a21.72,21.72,0,0,0-4.73-4.85c0,2.86.15,5.73-.08,8.57-.08,1.08-1.06,2.08-1.62,3.11-.49-1-1.35-2-1.39-3-.15-4.23-.14-8.47,0-12.7,0-.94.79-1.86,1.22-2.79a9.4,9.4,0,0,1,2.76,1.45c1.52,1.64,2.79,3.5,4.16,5.27l3.79,4.86Z"/><path class="cls-7" d="M190.37,209.42v4.7a59.66,59.66,0,0,1,6.45.07c.88.1,1.68,1,2.52,1.5-.87.5-1.71,1.33-2.64,1.43a59.17,59.17,0,0,1-6.32.07c-.08,1.55-.15,2.85-.25,4.75,2.83,0,5.4-.13,7.94.06.87.07,1.68.92,2.52,1.42-.84.51-1.68,1-2.53,1.52-.1.06-.25,0-.37,0-10.94.46-11,.46-10.93-10.52.06-9-1.38-8.05,7.86-7.94,1.92,0,4.6-1.49,5.76,1.63-1.89.43-3.76,1-5.67,1.26A30.87,30.87,0,0,1,190.37,209.42Z"/><path class="cls-8" d="M122.81,209.42v4.69a50.75,50.75,0,0,1,5.94.07,11.43,11.43,0,0,1,3.08,1.36c-1.08.55-2.11,1.41-3.24,1.57a40,40,0,0,1-5.73.08v4.74c2.71,0,5.31-.1,7.89.07.79.05,1.55.81,2.32,1.25-.79.57-1.57,1.15-2.38,1.68-.18.12-.49,0-.74,0-10.71.32-10.71.32-10.71-10.35,0-8.19,0-8.29,8.06-8.12,1.85,0,3.69,1,5.53,1.49-1.83.48-3.63,1.09-5.49,1.41A30.28,30.28,0,0,1,122.81,209.42Z"/><path class="cls-7" d="M230.21,225.5a38,38,0,0,1-5.48-2.1c-.67-.37-.79-1.74-1.16-2.65a11.72,11.72,0,0,1,2.64-.08c1.78.36,3.51,1.15,5.29,1.25.75,0,1.86-1.09,2.24-1.94.17-.38-.91-1.68-1.67-2a44.37,44.37,0,0,0-4.62-1.47c-2.51-.88-4.44-2.77-3.56-5.3.66-1.89,2.69-4.12,4.53-4.58,2.14-.54,4.76.57,7.1,1.2.44.12.56,1.4.82,2.14a6.2,6.2,0,0,1-2.23.56c-1.45-.25-2.83-1.1-4.25-1.13-.85,0-1.73,1-2.59,1.62a9.23,9.23,0,0,0,1.83,2.41,12.53,12.53,0,0,0,3.19,1c4,1.24,5.44,3.05,4.88,6.29C236.65,223.63,234.26,225.19,230.21,225.5Z"/><path class="cls-8" d="M76,223.59c-.37.39-.8,1.22-1.31,1.27a2.09,2.09,0,0,1-1.76-1c-1.57-5.51-6-2.93-9.33-3.2-.7-.05-1.47,1.95-2.37,2.83a10.79,10.79,0,0,1-2.31,1.3c-.19-.85-.79-1.86-.51-2.51,2-4.82,4.09-9.63,6.36-14.33,1.2-2.48,3.18-2.5,4.38-.05,2.3,4.69,4.35,9.5,6.49,14.27A11,11,0,0,1,76,223.59Zm-9.06-13.34-2.83,7.05h5.81C68.91,215,68.1,213.11,66.89,210.25Z"/><path class="cls-8" d="M221.3,223.28c-.5.6-1,1.58-1.37,1.56a3.39,3.39,0,0,1-2.06-1.12c-.87-.95-1.39-2.82-2.31-3a20.36,20.36,0,0,0-7.05,0c-.84.14-1.36,1.84-2.17,2.67a13.21,13.21,0,0,1-2.2,1.52c-.26-.84-1-1.87-.72-2.49,2.07-4.93,4.22-9.84,6.65-14.6.36-.72,3.26-1.1,3.41-.82C216.2,212.29,218.69,217.72,221.3,223.28Zm-6.22-5.86L212,210.47c-1.13,2.64-2,4.64-3,6.95Z"/><path class="cls-9" d="M108.85,225.59c-4.45-.4-7.76-2.63-9.12-6.47a9.76,9.76,0,0,1,2.84-10.86c3-2.47,8.07-2.9,11.2-.71.79.55,1,1.9,1.5,2.88-1,0-2.17.42-2.91,0-3.19-1.77-6.07-1.68-8.32,1.28a6.16,6.16,0,0,0,.23,8.27c2.43,2.81,5.35,2.63,8.42.79.66-.4,1.74-.09,2.63-.1-.34.94-.4,2.33-1.06,2.72A35.63,35.63,0,0,1,108.85,225.59Z"/><path class="cls-10" d="M16.69,214.43a49.93,49.93,0,0,1,6.16.07c1,.12,1.83,1,2.74,1.56-.86.49-1.68,1.29-2.59,1.39a62.76,62.76,0,0,1-6.55.07,39,39,0,0,1-.09,5.55c-.1.71-1.14,1.28-1.75,1.91-.53-.61-1.49-1.2-1.51-1.81-.13-4.86-.2-9.72,0-14.56,0-.77,1.49-2,2.36-2.11a66,66,0,0,1,9.33,0c.73.05,1.4,1,2.1,1.59-.74.5-1.46,1.38-2.24,1.44-2.58.18-5.17.07-8,.07Z"/><path class="cls-11" d="M174,221.86c2.83,0,5.19-.12,7.53.08.74.06,1.41,1,2.11,1.5-.74.51-1.45,1.06-2.22,1.5-.29.16-.74,0-1.11,0-11.55-.22-9.63,1.78-9.82-9.51a36.25,36.25,0,0,1,.08-6c.17-1.09,1.2-2,1.84-3.06.53,1,1.47,1.94,1.52,2.94C174.07,213.33,174,217.32,174,221.86Z"/><path class="cls-12" d="M244.5,215.66c0,2.36.11,4.73-.07,7.08-.06.77-.92,1.49-1.41,2.23-.65-.6-1.85-1.18-1.87-1.8q-.22-7.44,0-14.89c0-.65,1.19-1.25,1.82-1.88.51.73,1.4,1.43,1.46,2.19C244.62,210.93,244.49,213.3,244.5,215.66Z"/><path class="cls-13" d="M30.55,215.38c0-2.38-.11-4.76.07-7.12,0-.63.94-1.2,1.45-1.79.55.56,1.56,1.11,1.58,1.69q.2,7.49,0,15c0,.6-1,1.18-1.51,1.77-.54-.68-1.49-1.33-1.55-2-.19-2.48-.07-5-.07-7.48Z"/><path class="cls-14" d="M148.26,30.58a39.05,39.05,0,0,1,23.91,7.86c4.06,3,5,6.89,2.65,10.31s-6.68,3.75-10.87.68c-12.19-8.91-26.65-8.15-36,1.89-9.5,10.24-9.76,27.87-.57,38.53,8.45,9.79,23.13,11.67,34.38,4.35,1.46-1,2.78-2.11,4.2-3.13,3.1-2.21,6.79-1.86,9.06.83a6.4,6.4,0,0,1-.78,9.08,39.64,39.64,0,0,1-19.5,9.74c-22.84,4.44-43.27-9-47.85-31.66C101.69,53.32,120.63,30.35,148.26,30.58Z"/><path class="cls-14" d="M223.14,92.27c3.52-8.72,6.79-16.79,10.05-24.86q6-14.76,11.89-29.51c.28-.69.52-1.4.84-2.08,1.9-4,5.89-5.58,9.63-3.85,3.44,1.58,4.74,5.17,3.05,9.19-5.49,13.12-11.07,26.2-16.62,39.29-3.41,8-6.89,16-10.23,24.12-1.67,4.05-4.13,6.65-8.9,6.6-4.61,0-6.93-2.59-8.58-6.5q-13.19-31.19-26.5-62.34c-2.13-5-1-8.83,2.93-10.47,4.29-1.77,8.23.21,10.28,5.32q10.17,25.35,20.28,50.73C221.77,89.16,222.33,90.39,223.14,92.27Z"/><path class="cls-15" d="M58.92,97.48H87.78c2,0,4-.06,6,0,4,.15,6.61,2.6,6.7,6.1s-2.61,6.41-6.69,6.55c-3.74.13-7.49,0-11.23,0-9.61,0-19.22,0-28.84,0-6.24,0-8.66-2.42-8.66-8.57q0-31.28,0-62.54c0-5.4,3.83-8.71,8.65-7.5,3.53.89,5.08,3.47,5.14,6.93.1,5.62.06,11.24.07,16.85Z"/><path class="cls-1" d="M69.4,177.92a13.36,13.36,0,1,1,.42-26.71,13.36,13.36,0,1,1-.42,26.71Z"/><path class="cls-15" d="M230.94,164.38a13.21,13.21,0,0,1,13.42-13.18,13.36,13.36,0,1,1-.36,26.71A13.18,13.18,0,0,1,230.94,164.38Z"/><path class="cls-16" d="M149.05,216.86l3.95,3.67-.63,1.53c-1.72-.26-3.58-.23-5.05-1-.43-.21.28-2.66.46-4.08Z"/><path class="cls-17" d="M150.75,214.18c-.95-1.3-2-2.16-1.87-2.7.26-1,1.24-1.76,1.93-2.62.69.6,2,1.3,1.94,1.78C152.59,211.67,151.71,212.59,150.75,214.18Z"/><path class="cls-18" d="M66.89,210.25c1.21,2.86,2,4.79,3,7.05H64.06Z"/><path class="cls-18" d="M215.08,217.42H209c1-2.31,1.86-4.31,3-6.95Z"/></g></g></svg>