<svg xmlns="http://www.w3.org/2000/svg" viewBox="0 0 18.5 18.5"><defs><style>.cls-1{fill:#fff;}</style></defs><title>facebook</title><g id="Layer_2" data-name="Layer 2"><g id="Layer_1-2" data-name="Layer 1"><path id="facebook_white" data-name="facebook white" class="cls-1" d="M17.48,0H1A1,1,0,0,0,0,1V17.48a1,1,0,0,0,1,1H9.88V11.35H7.48V8.55h2.4V6.49a3.37,3.37,0,0,1,3-3.68,3.62,3.62,0,0,1,.57,0,19.53,19.53,0,0,1,2.16.11V5.4H14.15C13,5.4,12.77,6,12.77,6.76V8.55h2.78l-.37,2.8H12.77V18.5h4.71a1,1,0,0,0,1-1V1A1,1,0,0,0,17.48,0Z"/></g></g></svg>