<svg xmlns="http://www.w3.org/2000/svg" width="19.955" height="19.998" viewBox="0 0 19.955 19.998"><g transform="translate(-0.023 0.002)"><path d="M10,1.8c2.662,0,2.98.012,4.03.06a5.477,5.477,0,0,1,1.854.345,3.047,3.047,0,0,1,1.147.747,3.075,3.075,0,0,1,.746,1.15,5.46,5.46,0,0,1,.345,1.856c.05,1.055.06,1.372.06,4.04s-.012,2.988-.06,4.044a5.479,5.479,0,0,1-.344,1.856,3.061,3.061,0,0,1-.745,1.148,3.019,3.019,0,0,1-1.146.747,5.464,5.464,0,0,1-1.854.346c-1.05.047-1.368.057-4.03.057s-2.98-.01-4.03-.058a5.548,5.548,0,0,1-1.855-.347,3.042,3.042,0,0,1-1.146-.747A3.092,3.092,0,0,1,2.224,15.9,5.589,5.589,0,0,1,1.88,14.04c-.048-1.056-.058-1.37-.058-4.042s.01-2.986.058-4.04A5.586,5.586,0,0,1,2.224,4.1a3.077,3.077,0,0,1,.747-1.15A3.056,3.056,0,0,1,4.116,2.2,5.521,5.521,0,0,1,5.97,1.858C7.02,1.81,7.337,1.8,10,1.8M10,0C7.29,0,6.95.01,5.887.058A7.3,7.3,0,0,0,3.465.523,4.921,4.921,0,0,0,1.7,1.676a4.919,4.919,0,0,0-1.15,1.77A7.375,7.375,0,0,0,.083,5.874C.033,6.941.023,7.282.023,10s.012,3.055.06,4.123a7.389,7.389,0,0,0,.464,2.427,5.092,5.092,0,0,0,2.918,2.924,7.327,7.327,0,0,0,2.422.465C6.95,19.983,7.29,20,10,20s3.048-.013,4.113-.06a7.33,7.33,0,0,0,2.422-.466,5.081,5.081,0,0,0,2.916-2.924,7.318,7.318,0,0,0,.467-2.427c.048-1.067.06-1.407.06-4.124s-.013-3.057-.06-4.124a7.357,7.357,0,0,0-.466-2.427,4.9,4.9,0,0,0-1.147-1.772A4.891,4.891,0,0,0,16.537.519,7.273,7.273,0,0,0,14.115.055C13.048.013,12.71,0,10,0Z" fill="#fff"/><path d="M10,4.864A5.134,5.134,0,1,0,15.122,10,5.129,5.129,0,0,0,10,4.864Zm0,8.47A3.334,3.334,0,1,1,13.326,10,3.33,3.33,0,0,1,10,13.334Z" fill="#fff"/><circle cx="1.198" cy="1.198" r="1.198" transform="translate(14.127 3.464)" fill="#fff"/></g></svg>