<svg xmlns="http://www.w3.org/2000/svg" viewBox="0 0 18.5 18.5"><defs><style>.cls-1{fill:#fff;}</style></defs><title>instagram</title><g id="Layer_2" data-name="Layer 2"><g id="Layer_1-2" data-name="Layer 1"><polygon class="cls-1" points="9.25 0 9.25 0 9.25 0 9.25 0"/><path class="cls-1" d="M18.44,5.44A6.66,6.66,0,0,0,18,3.19a4.72,4.72,0,0,0-2.7-2.7A6.66,6.66,0,0,0,13.06.06c-1,0-1.3-.06-3.81-.06S6.42,0,5.44.06A6.66,6.66,0,0,0,3.19.49a4.72,4.72,0,0,0-2.7,2.7A6.66,6.66,0,0,0,.06,5.44C0,6.42,0,6.74,0,9.25s0,2.83.06,3.82a6.65,6.65,0,0,0,.43,2.24A4.77,4.77,0,0,0,3.19,18a7.18,7.18,0,0,0,2.25.43c1,0,1.3.05,3.81.05s2.83,0,3.81-.05A7.18,7.18,0,0,0,15.31,18,4.77,4.77,0,0,0,18,15.31a6.66,6.66,0,0,0,.43-2.25c0-1,.06-1.3.06-3.81S18.49,6.42,18.44,5.44ZM16.78,13a5,5,0,0,1-.32,1.72,3.08,3.08,0,0,1-1.75,1.75,5.29,5.29,0,0,1-1.72.32c-1,0-1.27,0-3.74,0s-2.76,0-3.74,0a5.28,5.28,0,0,1-1.71-.32A3.05,3.05,0,0,1,2,14.7,5.28,5.28,0,0,1,1.72,13c0-1-.05-1.27-.05-3.74s0-2.76.05-3.74A5.34,5.34,0,0,1,2,3.79,3.06,3.06,0,0,1,3.8,2a5.28,5.28,0,0,1,1.71-.32c1,0,1.27-.05,3.74-.05h0c2.47,0,2.76,0,3.74.05A5.34,5.34,0,0,1,14.71,2,3.06,3.06,0,0,1,16.46,3.8a5,5,0,0,1,.32,1.71c0,1,.06,1.27.06,3.74S16.83,12,16.78,13Z"/><path class="cls-1" d="M9.25,4.5h0A4.75,4.75,0,1,0,14,9.25h0A4.75,4.75,0,0,0,9.25,4.5Zm0,7.84a3.09,3.09,0,1,1,3.08-3.09A3.09,3.09,0,0,1,9.25,12.34Z"/><path class="cls-1" d="M14.19,3.2A1.11,1.11,0,1,0,15.3,4.31,1.11,1.11,0,0,0,14.19,3.2Z"/></g></g></svg>