<svg xmlns="http://www.w3.org/2000/svg" width="20" height="20" viewBox="0 0 20 20"><path d="M18.521,0H1.476A1.46,1.46,0,0,0,0,1.442V18.556A1.46,1.46,0,0,0,1.476,20H18.521A1.462,1.462,0,0,0,20,18.557V1.442A1.462,1.462,0,0,0,18.521,0ZM5.933,17.042H2.964V7.5H5.933ZM4.449,6.194a1.721,1.721,0,1,1,1.72-1.721A1.72,1.72,0,0,1,4.449,6.194Zm12.6,10.848H14.078V12.4c0-1.106-.02-2.53-1.542-2.53-1.544,0-1.779,1.206-1.779,2.451v4.721H7.794V7.5h2.844V8.8h.041a3.117,3.117,0,0,1,2.807-1.542c3,0,3.559,1.977,3.559,4.547v5.234Z" fill="#fff"/></svg>