<svg xmlns="http://www.w3.org/2000/svg" viewBox="0 0 20.18 16.42"><defs><style>.cls-1{fill:#fff;}</style></defs><title>twitter</title><g id="Layer_2" data-name="Layer 2"><g id="Layer_1-2" data-name="Layer 1"><path id="Path_4" data-name="Path 4" class="cls-1" d="M6.34,16.41A11.7,11.7,0,0,0,18.12,4.78V4.63c0-.18,0-.36,0-.53A8.29,8.29,0,0,0,20.18,2a8.58,8.58,0,0,1-2.38.65A4.18,4.18,0,0,0,19.62.31a8.23,8.23,0,0,1-2.63,1,4.15,4.15,0,0,0-5.86-.19,4.22,4.22,0,0,0-1.31,3,5,5,0,0,0,.11,1A11.75,11.75,0,0,1,1.4.76,4.14,4.14,0,0,0,2.68,6.29,4.18,4.18,0,0,1,.81,5.78v0A4.16,4.16,0,0,0,4.13,9.9,4.22,4.22,0,0,1,2.26,10a4.13,4.13,0,0,0,3.87,2.87A8.29,8.29,0,0,1,1,14.62a8.22,8.22,0,0,1-1-.06,11.67,11.67,0,0,0,6.34,1.85"/></g></g></svg>