<svg xmlns="http://www.w3.org/2000/svg" width="20.001" height="16.256" viewBox="0 0 20.001 16.256"><path d="M20,3.8a8.2,8.2,0,0,1-2.357.646,4.1,4.1,0,0,0,1.8-2.27,8.214,8.214,0,0,1-2.6,1,4.1,4.1,0,0,0-7.1,2.8,4.218,4.218,0,0,0,.1.94,11.661,11.661,0,0,1-8.458-4.29A4.114,4.114,0,0,0,2.662,8.1,4.186,4.186,0,0,1,.805,7.59a.264.264,0,0,0,0,.05,4.109,4.109,0,0,0,3.293,4.023,4.067,4.067,0,0,1-1.08.144,4.013,4.013,0,0,1-.773-.074,4.11,4.11,0,0,0,3.832,2.853A8.229,8.229,0,0,1,.979,16.342,8.542,8.542,0,0,1,0,16.285a11.612,11.612,0,0,0,6.29,1.843A11.6,11.6,0,0,0,17.963,6.454c0-.18,0-.356-.012-.53A8.388,8.388,0,0,0,20,3.8" transform="translate(0.001 -1.872)" fill="#fff" fill-rule="evenodd"/></svg>