<svg xmlns="http://www.w3.org/2000/svg" width="37" height="37" viewBox="0 0 37 37">
  <g id="twitter_1_" data-name="twitter (1)" transform="translate(-0.001)">
    <circle id="Ellipse_43" data-name="Ellipse 43" cx="18.5" cy="18.5" r="18.5" transform="translate(0.001 0)" fill="#55acee"/>
    <g id="Group_301" data-name="Group 301" transform="translate(8.279 11.222)">
      <path id="Path_189" data-name="Path 189" d="M46.657,36.1a8.823,8.823,0,0,1-2.54.7,4.434,4.434,0,0,0,1.945-2.446,8.852,8.852,0,0,1-2.808,1.073,4.426,4.426,0,0,0-7.535,4.034A12.553,12.553,0,0,1,26.6,34.837a4.427,4.427,0,0,0,1.368,5.9,4.391,4.391,0,0,1-2-.554c0,.019,0,.038,0,.056a4.425,4.425,0,0,0,3.547,4.336,4.439,4.439,0,0,1-2,.077,4.427,4.427,0,0,0,4.131,3.071A8.926,8.926,0,0,1,25.1,49.557a12.576,12.576,0,0,0,19.36-10.6c0-.192,0-.383-.013-.572A8.967,8.967,0,0,0,46.657,36.1Z" transform="translate(-25.103 -34.028)" fill="#f1f2f2"/>
    </g>
  </g>
</svg>
