<svg xmlns="http://www.w3.org/2000/svg" viewBox="0 0 23.23 16.26"><defs><style>.cls-1{fill:#fff;}</style></defs><title>youtube</title><g id="Layer_2" data-name="Layer 2"><g id="Layer_1-2" data-name="Layer 1"><path id="Path_56" data-name="Path 56" class="cls-1" d="M22.74,2.54a2.89,2.89,0,0,0-2-2C18.88,0,11.61,0,11.61,0S4.35,0,2.54.49a2.87,2.87,0,0,0-2,2.05,32.29,32.29,0,0,0,0,11.18,2.89,2.89,0,0,0,2.05,2c1.81.49,9.07.49,9.07.49s7.27,0,9.08-.49a2.91,2.91,0,0,0,2-2A32.29,32.29,0,0,0,22.74,2.54ZM9.29,11.61v-7l6,3.49Z"/></g></g></svg>