<svg id="book" xmlns="http://www.w3.org/2000/svg" width="23.621" height="19.367" viewBox="0 0 23.621 19.367">
  <path id="Path_235" data-name="Path 235" d="M241.279,16.869V0l-.644.054a24.753,24.753,0,0,0-7.5,1.829L232,2.353v16.8l.825-.343a25.75,25.75,0,0,1,7.761-1.887Zm0,0" transform="translate(-219.767)" fill="#fff"/>
  <path id="Path_236" data-name="Path 236" d="M274.308,47.3h-1.265V62.06a.422.422,0,0,1-.387.422l-1.08.089q-.468.039-.933.1c-.1.012-.2.028-.3.042-.209.028-.417.056-.625.089-.121.019-.241.042-.362.063-.186.033-.372.065-.558.1-.127.025-.253.054-.382.081-.177.037-.353.076-.529.118-.132.031-.263.064-.394.1-.171.042-.341.088-.51.135-.132.036-.264.075-.4.113-.169.05-.335.1-.5.154l-.391.126q-.25.084-.5.174l-.382.14-.173.068h9.668Zm0,0" transform="translate(-250.687 -44.803)" fill="#fff"/>
  <path id="Path_237" data-name="Path 237" d="M40.644.054,40,0V16.87l.749.064a25.577,25.577,0,0,1,7.753,1.9l.778.324V2.353l-1.132-.47a24.752,24.752,0,0,0-7.5-1.829Zm0,0" transform="translate(-37.891)" fill="#fff"/>
  <path id="Path_238" data-name="Path 238" d="M0,47.3V64.169H9.675c-.052-.02-.1-.042-.156-.062-.121-.046-.242-.09-.364-.134-.171-.062-.343-.123-.515-.181q-.187-.063-.375-.123-.257-.084-.515-.159c-.127-.037-.253-.074-.38-.11-.173-.048-.347-.094-.521-.138-.126-.033-.253-.065-.382-.1-.177-.042-.354-.081-.532-.119-.126-.027-.253-.055-.38-.081-.184-.036-.369-.069-.553-.1L4.637,62.8c-.2-.032-.408-.06-.613-.087-.1-.014-.206-.03-.309-.042q-.464-.056-.928-.1l-1.135-.1a.422.422,0,0,1-.386-.422V47.3Zm0,0" transform="translate(0 -44.803)" fill="#fff"/>
</svg>
