<svg xmlns="http://www.w3.org/2000/svg" viewBox="0 0 59.52 73.32"><defs><style>.cls-1{fill:#fff;}</style></defs><title>finance</title><g id="Layer_2" data-name="Layer 2"><g id="Layer_1-2" data-name="Layer 1"><g id="curriculum-vitae"><path id="Path_261" data-name="Path 261" class="cls-1" d="M13.27,13.32H23.63V23.68H13.27Z"/><path id="Path_262" data-name="Path 262" class="cls-1" d="M43.38,20.07H58.15L39.45,1.37V16.14A3.93,3.93,0,0,0,43.38,20.07Z"/><path id="Path_263" data-name="Path 263" class="cls-1" d="M44.71,22.7a7.91,7.91,0,0,1-7.9-7.9V0H7.9A7.9,7.9,0,0,0,0,7.9V65.42a7.9,7.9,0,0,0,7.9,7.9H51.62a7.91,7.91,0,0,0,7.9-7.9V22.7ZM9.2,11.35A2.14,2.14,0,0,1,11.34,9.2H25.15a2.15,2.15,0,0,1,2.15,2.15h0v13.8a2.14,2.14,0,0,1-2.14,2.15H11.36A2.15,2.15,0,0,1,9.2,25.16h0Zm2.15,20.86H39a2.15,2.15,0,0,1,0,4.3H11.35a2.15,2.15,0,0,1,0-4.3ZM48.17,64.12H11.35a2.15,2.15,0,1,1,0-4.3H48.17a2.15,2.15,0,0,1,0,4.3Zm0-9.2H11.35a2.15,2.15,0,1,1,0-4.3H48.17a2.15,2.15,0,0,1,0,4.3Zm0-9.2H11.35a2.15,2.15,0,0,1,0-4.3H48.17a2.15,2.15,0,1,1,0,4.3Z"/></g></g></g></svg>