<svg xmlns="http://www.w3.org/2000/svg" width="17.616" height="23.488" viewBox="0 0 17.616 23.488"><path d="M81.566,13.752c-.269-3.5-1.9-5.7-3.339-7.635C76.895,4.323,75.744,2.775,75.744.49a.49.49,0,0,0-.266-.435.485.485,0,0,0-.508.037,12.445,12.445,0,0,0-4.594,6.639,21.673,21.673,0,0,0-.5,4.963c-2-.426-2.448-3.411-2.452-3.444a.489.489,0,0,0-.7-.371c-.1.051-2.569,1.3-2.712,6.3-.01.166-.011.333-.011.5a8.818,8.818,0,0,0,8.808,8.807.068.068,0,0,0,.02,0h.006a8.818,8.818,0,0,0,8.782-8.807C81.616,14.436,81.566,13.752,81.566,13.752Z" transform="translate(-64 0)" fill="#fff"/></svg>