<svg xmlns="http://www.w3.org/2000/svg" viewBox="0 0 24.37 18.56"><defs><style>.cls-1{fill:#00bda5;}</style></defs><title>mail-green</title><g id="Layer_2" data-name="Layer 2"><g id="Layer_1-2" data-name="Layer 1"><g id="mail"><g id="Group_331" data-name="Group 331"><g id="Group_330" data-name="Group 330"><path id="Path_266" data-name="Path 266" class="cls-1" d="M22.23,0H2.14a2.11,2.11,0,0,0-.92.22L12.14,11.13l2.44-2.35h0L23.14.22A2.07,2.07,0,0,0,22.23,0Z"/></g></g><g id="Group_333" data-name="Group 333"><g id="Group_332" data-name="Group 332"><path id="Path_267" data-name="Path 267" class="cls-1" d="M24.15,1.22l-8,8.06,8,8.06a2.11,2.11,0,0,0,.22-.92V2.14A2.11,2.11,0,0,0,24.15,1.22Z"/></g></g><g id="Group_335" data-name="Group 335"><g id="Group_334" data-name="Group 334"><path id="Path_268" data-name="Path 268" class="cls-1" d="M.22,1.22A2.11,2.11,0,0,0,0,2.14V16.42a2.1,2.1,0,0,0,.21.92L8.27,9.28Z"/></g></g><g id="Group_337" data-name="Group 337"><g id="Group_336" data-name="Group 336"><path id="Path_269" data-name="Path 269" class="cls-1" d="M15.09,10.29l-2.45,2.35a.71.71,0,0,1-1,0L9.28,10.29,1.22,18.35a2.1,2.1,0,0,0,.92.21H22.23a2.06,2.06,0,0,0,.91-.21Z"/></g></g></g></g></g></svg>