<svg xmlns="http://www.w3.org/2000/svg" width="16.063" height="15.972" viewBox="0 0 16.063 15.972"><path d="M12.852,15.967a7.142,7.142,0,0,1-2.4-.481A17.265,17.265,0,0,1,4.568,11.4,18.119,18.119,0,0,1,.48,5.482C-.157,3.715-.157,2.26.48,1.611a1.791,1.791,0,0,0,.277-.325A3.607,3.607,0,0,1,2.957,0,2.705,2.705,0,0,1,4.809,1.2c1.827,2.26,1.022,3.066,0,4.04L4.652,5.4c-.168.168-.433.866,2.308,3.607a13.8,13.8,0,0,0,2.4,1.912c.373.277,1.082.649,1.347.325l.108-.156c.914-.974,1.719-1.779,4.04,0a2.813,2.813,0,0,1,1.2,1.827c.06.914-.7,1.611-1.347,2.212a1.731,1.731,0,0,1-.325.265A1.96,1.96,0,0,1,12.852,15.967Z" transform="translate(-0.002)" fill="#00bda5"/></svg>