<svg xmlns="http://www.w3.org/2000/svg" viewBox="0 0 16.06 15.97"><title>phone-black</title><g id="Layer_2" data-name="Layer 2"><g id="Layer_1-2" data-name="Layer 1"><path d="M12.85,16a7.32,7.32,0,0,1-2.4-.48A17.21,17.21,0,0,1,4.57,11.4,18,18,0,0,1,.48,5.48c-.64-1.77-.64-3.22,0-3.87a2,2,0,0,0,.27-.32A3.63,3.63,0,0,1,3,0,2.71,2.71,0,0,1,4.81,1.2c1.82,2.26,1,3.07,0,4l-.16.16C4.48,5.57,4.22,6.27,7,9a13.89,13.89,0,0,0,2.4,1.91c.37.28,1.08.65,1.34.32l.11-.15c.92-1,1.72-1.78,4,0a2.78,2.78,0,0,1,1.2,1.82c.06.92-.7,1.62-1.34,2.22a1.64,1.64,0,0,1-.33.26A2,2,0,0,1,12.85,16Z"/></g></g></svg>