<svg xmlns="http://www.w3.org/2000/svg" width="18" height="18" viewBox="0 0 18 18"><g transform="translate(-3 -3)"><path d="M3,3H21V21H3Z" fill="none"/><path d="M6.75,6h3l1.5,3.75L9.375,10.875a8.245,8.245,0,0,0,3.75,3.75L14.25,12.75,18,14.25v3a1.5,1.5,0,0,1-1.5,1.5A12,12,0,0,1,5.25,7.5,1.5,1.5,0,0,1,6.75,6" fill="none" stroke="#fff" stroke-linecap="round" stroke-linejoin="round" stroke-width="1"/><path d="M14.25,8.25a1.5,1.5,0,0,1,1.5,1.5" fill="none" stroke="#fff" stroke-linecap="round" stroke-linejoin="round" stroke-width="1"/><path d="M14.25,5.25a4.5,4.5,0,0,1,4.5,4.5" fill="none" stroke="#fff" stroke-linecap="round" stroke-linejoin="round" stroke-width="1"/></g></svg>