<svg xmlns="http://www.w3.org/2000/svg" viewBox="0 0 6 9.47"><defs><style>.cls-1{isolation:isolate;}.cls-2{fill:#fff;}</style></defs><title>question-white</title><g id="Layer_2" data-name="Layer 2"><g id="Layer_1-2" data-name="Layer 1"><g class="cls-1"><path class="cls-2" d="M0,2.69a2.81,2.81,0,0,1,.93-2A3,3,0,0,1,3,0,3.21,3.21,0,0,1,5.18.71,2.31,2.31,0,0,1,6,2.53a2.43,2.43,0,0,1-.28,1.16A4.33,4.33,0,0,1,4.66,4.87a3.61,3.61,0,0,0-1,1,3.27,3.27,0,0,0-.18,1.28H2.41a4.14,4.14,0,0,1,.27-1.73,3.9,3.9,0,0,1,1-1.17,4.16,4.16,0,0,0,.92-1,1.54,1.54,0,0,0,.17-.7,1.64,1.64,0,0,0-.48-1.21A1.74,1.74,0,0,0,3,.94c-1,0-1.61.58-1.79,1.75ZM3.66,9.47H2.36V8.16h1.3Z"/></g></g></g></svg>