<svg xmlns="http://www.w3.org/2000/svg" viewBox="0 0 15.85 15.17"><defs><style>.cls-1{fill:#00bda5;}</style></defs><title>star-border-green</title><g id="Layer_2" data-name="Layer 2"><g id="Layer_1-2" data-name="Layer 1"><path class="cls-1" d="M12.35,15.17a.74.74,0,0,1-.37-.1L7.93,13l-4,2.11a.69.69,0,0,1-.81,0,.76.76,0,0,1-.31-.73l.74-4.53L.25,6.59A.76.76,0,0,1,0,6.18l0-.11a.78.78,0,0,1,.7-.84l4.51-.66,2-4.15A.72.72,0,0,1,7.61.07a.75.75,0,0,1,.64,0A.78.78,0,0,1,8.64.5l2,4.07,4.55.66a.78.78,0,0,1,.62.52l0,0a.8.8,0,0,1-.29.78L12.31,9.75l.77,4.53a.71.71,0,0,1,0,.42l-.06.12a.73.73,0,0,1-.44.33Zm-.25-.72a.19.19,0,0,0,0,.08Zm-8.64-.27-.07,0Zm9,0h0Zm-11.2-8L4.61,9.4,3.87,14l4.06-2.15L12,14,11.23,9.4l3.34-3.26L10,5.48,7.93,1.31l-2,4.17Zm-.41.06h0Zm.09-.36h0Zm14,0h0ZM7.72.89h0Zm.43,0h0Z"/></g></g></svg>