<?xml version="1.0" encoding="utf-8"?>
<!-- Generator: Adobe Illustrator 24.0.2, SVG Export Plug-In . SVG Version: 6.00 Build 0)  -->
<svg version="1.1" id="trustpilot" xmlns="http://www.w3.org/2000/svg" xmlns:xlink="http://www.w3.org/1999/xlink" x="0px" y="0px"
	 viewBox="0 0 127.1 23.4" style="enable-background:new 0 0 127.1 23.4;" xml:space="preserve">
<style type="text/css">
	.st0{fill:#00BDA5;}
	.st1{fill:#FFFFFF;}
</style>
<g id="Group_365">
	<path id="Path_270" class="st0" d="M0,23.4h23.4V0H0V23.4z"/>
	<path id="Path_271" class="st1" d="M20,10L6.7,19.6l1.9-6L3.5,10h6.3l1.9-6l1.9,6H20z M11.8,15.9l3.6-0.8l1.4,4.4L11.8,15.9z"/>
</g>
<g id="Group_366" transform="translate(25.908)">
	<path id="Path_272" class="st0" d="M0,23.4h23.4V0H0V23.4z"/>
	<path id="Path_273" class="st0" d="M0,23.4h11.7V0H0V23.4z"/>
	<path id="Path_274" class="st1" d="M12,15.8l3.1-0.7l1.4,4.6l-4.9-3.6l-5.1,3.6l2-6L3.4,10h6.4l2-6l2,6h6.4L12,15.8z"/>
</g>
<g id="Group_367" transform="translate(51.835)">
	<path id="Path_275" class="st0" d="M0,23.4h23.4V0H0V23.4z"/>
	<path id="Path_276" class="st0" d="M0,23.4h11.7V0H0V23.4z"/>
	<path id="Path_277" class="st1" d="M20,10L6.7,19.6l1.9-6L3.5,10h6.3l1.9-6l1.9,6L20,10L20,10z M11.8,15.9l3.6-0.8l1.4,4.4
		C16.8,19.6,11.8,15.9,11.8,15.9z"/>
</g>
<g id="Group_368" transform="translate(77.761)">
	<path id="Path_278" class="st0" d="M0,23.4h23.4V0H0V23.4z"/>
	<path id="Path_279" class="st0" d="M0,23.4h11.7V0H0V23.4z"/>
	<path id="Path_280" class="st1" d="M20,10L6.7,19.6l1.9-6L3.5,10h6.3l1.9-6l1.9,6L20,10L20,10z M11.8,15.9l3.6-0.8l1.4,4.4
		L11.8,15.9L11.8,15.9z"/>
</g>
<g id="Group_369" transform="translate(103.669)">
	<path id="Path_281" class="st0" d="M0,23.4h23.4V0H0V23.4z"/>
	<path id="Path_282" class="st0" d="M0,23.4h11.7V0H0V23.4z"/>
	<path id="Path_283" class="st1" d="M20,10L6.7,19.6l1.9-6L3.5,10h6.3l1.9-6l1.9,6L20,10L20,10z M11.8,15.9l3.6-0.8l1.4,4.4
		L11.8,15.9z"/>
</g>
</svg>
