<?xml version="1.0" encoding="utf-8"?>
<!-- Generator: Adobe Illustrator 24.0.2, SVG Export Plug-In . SVG Version: 6.00 Build 0)  -->
<svg version="1.1" id="Layer_1" xmlns="http://www.w3.org/2000/svg" xmlns:xlink="http://www.w3.org/1999/xlink" x="0px" y="0px"
	 viewBox="0 0 81.9 20" style="enable-background:new 0 0 81.9 20;" xml:space="preserve">
<style type="text/css">
	.st0{fill:#191919;}
	.st1{fill:#00BDA5;}
	.st2{fill:#045B4F;}
</style>
<g id="trustpilot-logo" transform="translate(0 -0.177)">
	<path id="Path_284" class="st0" d="M21.5,7.3h8.3v1.5h-3.3v8.6h-1.8V8.8h-3.2L21.5,7.3L21.5,7.3z M29.5,10.1H31v1.4h0
		c0.1-0.2,0.2-0.4,0.3-0.6c0.1-0.2,0.3-0.4,0.5-0.5c0.2-0.2,0.4-0.3,0.6-0.4c0.2-0.1,0.5-0.1,0.7-0.1c0.2,0,0.3,0,0.4,0s0.1,0,0.2,0
		v1.6c-0.1,0-0.2,0-0.4-0.1c-0.1,0-0.2,0-0.4,0c-0.3,0-0.5,0.1-0.8,0.2c-0.2,0.1-0.5,0.3-0.6,0.5c-0.2,0.2-0.3,0.5-0.4,0.8
		c-0.1,0.4-0.2,0.7-0.2,1.1v3.5h-1.6L29.5,10.1L29.5,10.1L29.5,10.1z M41.3,17.5h-1.6v-1h0c-0.2,0.4-0.5,0.7-0.9,0.9
		c-0.4,0.2-0.8,0.3-1.2,0.3c-0.8,0.1-1.5-0.2-2.1-0.7c-0.5-0.6-0.7-1.4-0.7-2.2v-4.7h1.6v4.5c0,0.5,0.1,1,0.4,1.4
		c0.3,0.3,0.7,0.4,1,0.4c0.3,0,0.6,0,0.9-0.2c0.2-0.1,0.4-0.2,0.6-0.4c0.1-0.2,0.3-0.4,0.3-0.6c0.1-0.3,0.1-0.5,0.1-0.8v-4.3h1.6
		L41.3,17.5L41.3,17.5z M44.1,15.1c0,0.4,0.2,0.8,0.5,1c0.3,0.2,0.7,0.3,1.1,0.3c0.2,0,0.3,0,0.5,0c0.2,0,0.4-0.1,0.5-0.1
		c0.2-0.1,0.3-0.2,0.4-0.3c0.1-0.1,0.2-0.3,0.2-0.5c0-0.2-0.1-0.4-0.2-0.5c-0.2-0.1-0.3-0.3-0.5-0.3c-0.3-0.1-0.5-0.2-0.8-0.2
		c-0.3-0.1-0.6-0.1-0.9-0.2c-0.3-0.1-0.6-0.1-0.9-0.2c-0.3-0.1-0.5-0.2-0.8-0.4c-0.2-0.2-0.4-0.4-0.5-0.6c-0.1-0.3-0.2-0.6-0.2-0.9
		c0-0.4,0.1-0.7,0.3-1c0.2-0.3,0.5-0.5,0.7-0.7c0.3-0.2,0.7-0.3,1-0.4c0.3-0.1,0.7-0.1,1.1-0.1c0.4,0,0.7,0,1.1,0.1
		c0.3,0.1,0.7,0.2,0.9,0.4c0.3,0.2,0.5,0.4,0.7,0.7c0.2,0.3,0.3,0.7,0.4,1.1h-1.7c0-0.3-0.2-0.6-0.5-0.8c-0.3-0.1-0.6-0.2-1-0.2
		c-0.1,0-0.3,0-0.4,0c-0.2,0-0.3,0.1-0.4,0.1c-0.1,0-0.3,0.1-0.4,0.2c-0.1,0.1-0.2,0.3-0.1,0.4c0,0.2,0.1,0.4,0.2,0.5
		c0.2,0.1,0.3,0.2,0.5,0.3c0.3,0.1,0.5,0.2,0.8,0.2c0.3,0.1,0.6,0.1,0.9,0.2s0.6,0.2,0.9,0.2c0.3,0.1,0.5,0.2,0.8,0.4
		c0.2,0.2,0.4,0.4,0.5,0.6c0.1,0.3,0.2,0.6,0.2,0.9c0,0.4-0.1,0.8-0.3,1.1c-0.2,0.3-0.5,0.6-0.8,0.7c-0.3,0.2-0.7,0.3-1.1,0.4
		c-0.4,0.1-0.8,0.1-1.2,0.1c-0.4,0-0.9,0-1.3-0.2c-0.4-0.1-0.7-0.3-1-0.5c-0.3-0.2-0.5-0.5-0.7-0.8c-0.2-0.4-0.3-0.7-0.3-1.1
		L44.1,15.1L44.1,15.1L44.1,15.1z M49.5,10.1h1.2V7.9h1.6v2.2h1.5v1.2h-1.5v3.9c0,0.1,0,0.3,0,0.4c0,0.1,0,0.2,0.1,0.3
		c0.1,0.1,0.1,0.2,0.2,0.2c0.1,0,0.3,0.1,0.4,0.1c0.1,0,0.2,0,0.3,0c0.1,0,0.2,0,0.3-0.1v1.3c-0.2,0-0.4,0-0.5,0.1
		c-0.2,0-0.4,0-0.5,0c-0.4,0-0.7,0-1-0.1c-0.2-0.1-0.4-0.2-0.6-0.4c-0.2-0.2-0.3-0.4-0.3-0.6c-0.1-0.3-0.1-0.5-0.1-0.8v-4.4h-1.2
		L49.5,10.1L49.5,10.1L49.5,10.1z M55,10.1h1.5v1h0c0.2-0.4,0.5-0.7,1-0.9c0.4-0.2,0.9-0.3,1.3-0.3c0.5,0,1,0.1,1.5,0.3
		c0.4,0.2,0.8,0.5,1.1,0.8c0.3,0.4,0.5,0.8,0.6,1.3c0.1,0.5,0.2,1,0.2,1.5c0,0.5-0.1,1-0.2,1.4c-0.1,0.4-0.3,0.9-0.6,1.2
		c-0.3,0.4-0.6,0.7-1,0.9c-0.4,0.2-0.9,0.3-1.4,0.3c-0.2,0-0.5,0-0.7-0.1c-0.2,0-0.5-0.1-0.7-0.2c-0.2-0.1-0.4-0.2-0.6-0.4
		c-0.2-0.1-0.3-0.3-0.5-0.5h0v3.7H55L55,10.1L55,10.1z M60.7,13.8c0-0.3,0-0.7-0.1-1c-0.1-0.3-0.2-0.6-0.4-0.8
		c-0.2-0.2-0.4-0.4-0.6-0.6c-0.8-0.4-1.8-0.2-2.4,0.5c-0.4,0.6-0.6,1.2-0.5,1.9c0,0.3,0,0.7,0.1,1c0.1,0.3,0.2,0.6,0.4,0.8
		c0.2,0.2,0.4,0.4,0.7,0.5c0.6,0.3,1.3,0.3,1.8,0c0.3-0.1,0.5-0.3,0.6-0.6c0.2-0.3,0.3-0.5,0.4-0.8C60.7,14.4,60.7,14.1,60.7,13.8
		L60.7,13.8z M63.6,7.3h1.6v1.5h-1.6L63.6,7.3L63.6,7.3z M63.6,10.1h1.6v7.4h-1.6L63.6,10.1L63.6,10.1z M66.7,7.3h1.6v10.2h-1.6
		L66.7,7.3L66.7,7.3z M73.3,17.7c-0.5,0-1.1-0.1-1.6-0.3c-0.9-0.4-1.6-1.1-1.9-2c-0.2-0.5-0.3-1-0.3-1.6c0-0.5,0.1-1.1,0.3-1.6
		c0.2-0.5,0.4-0.9,0.7-1.2c0.3-0.4,0.7-0.6,1.2-0.8c1-0.4,2.1-0.4,3.2,0c0.9,0.4,1.6,1.1,1.9,2c0.2,0.5,0.3,1,0.3,1.6
		c0,0.5-0.1,1.1-0.3,1.6c-0.2,0.5-0.4,0.9-0.7,1.2c-0.3,0.4-0.7,0.6-1.2,0.8C74.4,17.6,73.9,17.7,73.3,17.7L73.3,17.7z M73.3,16.4
		c0.3,0,0.7-0.1,0.9-0.2c0.3-0.1,0.5-0.4,0.7-0.6c0.2-0.3,0.3-0.5,0.4-0.8c0.2-0.6,0.2-1.3,0-1.9c-0.1-0.3-0.2-0.6-0.4-0.8
		c-0.2-0.2-0.4-0.4-0.7-0.6c-0.6-0.3-1.3-0.3-1.9,0c-0.3,0.1-0.5,0.3-0.7,0.6c-0.2,0.3-0.3,0.5-0.4,0.8c-0.2,0.6-0.2,1.3,0,1.9
		c0.1,0.3,0.2,0.6,0.4,0.8c0.2,0.2,0.4,0.5,0.7,0.6C72.7,16.3,73,16.4,73.3,16.4L73.3,16.4z M77.6,10.1h1.2V7.9h1.6v2.2h1.5v1.2
		h-1.5v3.9c0,0.1,0,0.3,0,0.4c0,0.1,0,0.2,0.1,0.3c0.1,0.1,0.1,0.2,0.2,0.2c0.1,0,0.3,0.1,0.4,0.1c0.1,0,0.2,0,0.3,0
		c0.1,0,0.2,0,0.3,0v1.3c-0.2,0-0.4,0-0.5,0.1c-0.2,0-0.4,0-0.5,0c-0.4,0-0.7,0-1-0.1c-0.2-0.1-0.4-0.2-0.6-0.4
		c-0.2-0.2-0.3-0.4-0.3-0.6c-0.1-0.3-0.1-0.5-0.1-0.8v-4.4h-1.2L77.6,10.1L77.6,10.1L77.6,10.1z"/>
	<path id="Path_285" class="st1" d="M19.6,7.3h-7.5L9.8,0.2L7.5,7.3L0,7.3l6.1,4.4l-2.3,7.1l6.1-4.4l6.1,4.4l-2.3-7.1L19.6,7.3
		L19.6,7.3z"/>
	<path id="Path_286" class="st2" d="M14.1,13.2l-0.5-1.6l-3.7,2.7L14.1,13.2z"/>
</g>
</svg>
