<svg xmlns="http://www.w3.org/2000/svg" viewBox="0 0 76.98 59.06"><defs><style>.cls-1{fill:#fff;}</style></defs><title>car</title><g id="Layer_2" data-name="Layer 2"><g id="Layer_1-2" data-name="Layer 1"><path class="cls-1" d="M77,20V17.92a4.52,4.52,0,0,0-4.24-4.78h-.31a4.82,4.82,0,0,0-1.37.19L68.59,14l-3.4-8.28A10,10,0,0,0,56.6,0H20.25A10,10,0,0,0,11.7,5.78L8.34,14l-2.4-.66a5,5,0,0,0-1.38-.19A4.52,4.52,0,0,0,0,17.62a.88.88,0,0,0,0,.21V20a5.44,5.44,0,0,0,3.73,5.16,31.13,31.13,0,0,0-1.86,9.68V53.63a5.45,5.45,0,0,0,5.43,5.43h5.14a5.45,5.45,0,0,0,5.43-5.43V50.44H59.05v3.19a5.45,5.45,0,0,0,5.43,5.43h5.13A5.45,5.45,0,0,0,75,53.63V34.82a30.57,30.57,0,0,0-1.86-9.61A5.44,5.44,0,0,0,77,20ZM23.63,34.55v5.34a.09.09,0,0,1-.08.08H12.42a.09.09,0,0,1-.08-.08V34.55a.08.08,0,0,1,.08-.07H23.55A.08.08,0,0,1,23.63,34.55ZM13.46,23.15a.44.44,0,0,1-.17-.3.49.49,0,0,1,.06-.29L19.26,8.19a3.53,3.53,0,0,1,3-2H54.61a3.58,3.58,0,0,1,3,2L63.5,22.4l.08.16a.45.45,0,0,1-.18.63.45.45,0,0,1-.28.06H13.8A.44.44,0,0,1,13.46,23.15Zm39.73,11.4a.08.08,0,0,1,.08-.07H64.4a.08.08,0,0,1,.08.07v5.34a.09.09,0,0,1-.07.08H53.27a.09.09,0,0,1-.08-.08Z"/></g></g></svg>