<svg xmlns="http://www.w3.org/2000/svg" viewBox="0 0 89.44 93.06"><defs><style>.cls-1{fill:#fff;}</style></defs><title>choose</title><g id="Layer_2" data-name="Layer 2"><g id="Layer_1-2" data-name="Layer 1"><g id="Group_302" data-name="Group 302"><path id="Path_230" data-name="Path 230" class="cls-1" d="M83,52.08a6.49,6.49,0,0,0-6.49,6.49h0V56.65a6.5,6.5,0,1,0-13,0V54.72a6.5,6.5,0,0,0-13,0V38.56a6.5,6.5,0,0,0-13,0V70.94a2.89,2.89,0,0,1-5.77,0h0V62.45L29.6,63.54a6.75,6.75,0,0,0-3.66,6v3.33a20.2,20.2,0,0,0,20.2,20.2H75A14.43,14.43,0,0,0,89.44,78.63h0V58.57A6.49,6.49,0,0,0,83,52.08Z"/><path id="Path_231" data-name="Path 231" class="cls-1" d="M37,16.57,35.67,25a.81.81,0,0,0,.67.93.79.79,0,0,0,.52-.09L44,21.87l7.13,3.94a.81.81,0,0,0,1.1-.32A.79.79,0,0,0,52.3,25l-1.37-8.4,5.79-5.94a.81.81,0,0,0,0-1.15.92.92,0,0,0-.44-.22l-8-1.21L44.71.43A.85.85,0,0,0,43.56.11a.86.86,0,0,0-.31.32L39.67,8l-8,1.22a.81.81,0,0,0-.68.92.83.83,0,0,0,.22.45Z"/><path id="Path_232" data-name="Path 232" class="cls-1" d="M6,16.57,4.66,25a.8.8,0,0,0,.67.93.79.79,0,0,0,.52-.09L13,21.87l7.13,3.94a.82.82,0,0,0,1.1-.32.8.8,0,0,0,.09-.52l-1.37-8.4,5.79-5.94a.82.82,0,0,0,0-1.15.83.83,0,0,0-.45-.22L17.28,8,13.7.43A.84.84,0,0,0,12.55.11a.8.8,0,0,0-.31.32L8.66,8l-8,1.22a.81.81,0,0,0-.68.92.74.74,0,0,0,.22.44Z"/><path id="Path_233" data-name="Path 233" class="cls-1" d="M69.53,16.57,68.16,25a.81.81,0,0,0,.67.93.79.79,0,0,0,.52-.09l7.12-3.94,7.13,3.94a.81.81,0,0,0,1.1-.32.79.79,0,0,0,.09-.52l-1.37-8.4,5.79-5.94a.81.81,0,0,0,0-1.15.92.92,0,0,0-.44-.22l-8-1.21L77.21.43A.86.86,0,0,0,76.05.11a.86.86,0,0,0-.31.32L72.16,8l-8,1.22a.81.81,0,0,0-.68.92.83.83,0,0,0,.22.45Z"/></g></g></g></svg>