<?xml version="1.0" encoding="utf-8"?>
<!-- Generator: Adobe Illustrator 24.0.2, SVG Export Plug-In . SVG Version: 6.00 Build 0)  -->
<svg version="1.1" id="Layer_1" xmlns="http://www.w3.org/2000/svg" xmlns:xlink="http://www.w3.org/1999/xlink" x="0px" y="0px"
	 viewBox="0 0 26.5 36.8" style="enable-background:new 0 0 26.5 36.8;" xml:space="preserve">
<style type="text/css">
	.st0{fill:#3C4048;}
</style>
<g transform="translate(-41.232 0)">
	<g transform="translate(41.232 0)">
		<g transform="translate(0 0)">
			<path class="st0" d="M16.7,4.1c-0.8-1.3-1.6-2.4-2.3-3.5c-0.1-0.2-0.2-0.3-0.4-0.4c-0.6-0.4-1.4-0.2-1.8,0.4c0,0,0,0,0,0
				c-0.7,1-1.4,2.2-2.3,3.5C5.9,9.9,0,18.6,0,23.6c0,3.5,1.4,6.9,3.9,9.4c2.5,2.5,5.8,3.8,9.3,3.8c7.3,0,13.2-5.9,13.3-13.3
				C26.5,18.6,20.6,9.9,16.7,4.1z M20.8,31.1c-2,2-4.7,3.1-7.5,3.1c-2.8,0-5.5-1.1-7.5-3.1c-2-2-3.1-4.7-3.1-7.6
				C2.6,19.4,8.3,11,12,5.5c0.5-0.7,0.8-1.3,1.3-1.8c0.4,0.6,0.8,1.2,1.3,1.8c3.8,5.6,9.4,13.9,9.4,18.1
				C23.9,26.4,22.8,29.1,20.8,31.1z"/>
		</g>
	</g>
	<g transform="translate(56.972 22.655)">
		<g transform="translate(0)">
			<path class="st0" d="M5.3,0C4.6,0,4,0.5,3.9,1.2C3.9,2.3,3.5,3.3,3,4.3C2.4,5.2,1.6,5.9,0.7,6.5C0,6.8-0.2,7.6,0.2,8.3
				C0.5,8.9,1.3,9.1,2,8.8C3.3,8,4.4,6.9,5.2,5.7C6,4.4,6.4,2.9,6.5,1.4C6.5,0.6,6,0,5.3,0z"/>
		</g>
	</g>
</g>
</svg>
