<?xml version="1.0" encoding="utf-8"?>
<!-- Generator: Adobe Illustrator 24.0.2, SVG Export Plug-In . SVG Version: 6.00 Build 0)  -->
<svg version="1.1" id="Layer_1" xmlns="http://www.w3.org/2000/svg" xmlns:xlink="http://www.w3.org/1999/xlink" x="0px" y="0px"
	 viewBox="0 0 29.2 41" style="enable-background:new 0 0 29.2 41;" xml:space="preserve">
<style type="text/css">
	.st0{fill:#3C4048;}
</style>
<title>environment</title>
<path class="st0" d="M24.4,1.6L24.4,1.6c-0.4-0.2-0.8-0.3-1.2-0.3H23c-2.3,0.2-4.5,0.7-6.5,1.6L16.3,3l-0.2-0.1
	C13.7,1.1,11.6,0,10.4,0h-0.3C6.6,0.7-1.2,16,0.2,23.5C1.4,30.1,7.2,35,14,35c0.4,0,0.7,0,1.1,0h0.3l0.8,4.4
	c0.1,0.5,0.6,0.9,1.1,0.9c0.1,0,0.1,0,0.2,0c0.3-0.1,0.6-0.2,0.7-0.5c0.2-0.3,0.2-0.6,0.2-0.9l-0.8-4.4l0.3-0.1
	c5.3-1.5,9.1-6,10-11.4C29.5,14.7,26.8,2.8,24.4,1.6z M21.8,20.6c0.2-0.3,0.3-0.6,0.2-0.9c0-0.3-0.2-0.6-0.5-0.8
	c-0.5-0.4-1.2-0.3-1.6,0.3c0,0,0,0,0,0l-4,5.8l-0.7-3.9l3.5-5c0.4-0.5,0.3-1.2-0.2-1.6c0,0,0,0,0,0c-0.5-0.4-1.2-0.2-1.6,0.3
	L14.6,18l-1.5-7.9c-0.1-0.6-0.7-1-1.3-0.9c0,0,0,0,0,0c-0.3,0.1-0.6,0.2-0.7,0.5c-0.2,0.3-0.2,0.6-0.2,0.9l1.5,8l-3.1-2.1
	c-0.2-0.1-0.4-0.2-0.7-0.2c-0.6,0-1.1,0.5-1.1,1.1c0,0.1,0,0.1,0,0.2c0,0.3,0.2,0.6,0.5,0.8l5.1,3.5l0.7,3.9l-5.5-3.8
	c-0.2-0.1-0.4-0.2-0.6-0.2c-0.6,0-1.1,0.5-1.1,1.2c0,0.4,0.2,0.7,0.5,0.9l7.2,5l0.1,0.1l0.7,3.9h-0.4H14c-5.7,0-10.5-4-11.6-9.6
	c-0.5-2.8,0.5-7.5,2.7-12.3c0.9-2,2-4,3.2-5.8C8.9,4,9.6,3.2,10.4,2.5l0.2-0.1l0.2,0.1c1,0.4,2,0.9,2.8,1.5c1.8,1.3,3.5,2.7,5.1,4.3
	c3.8,3.8,6.4,7.8,6.9,10.5c1,5.8-2.3,11.5-7.9,13.3h-0.1h-0.4l-0.7-3.8L21.8,20.6z M18.3,4.7l0.6-0.2C20.2,4,21.6,3.7,23,3.6h0.3
	l0.1,0.2c0.6,0.9,1,1.9,1.2,3c0.5,1.7,0.9,3.4,1.1,5.2l0.2,1.5L25,12.2c-1.8-2.6-3.9-5-6.3-7.1L18.3,4.7z"/>
</svg>
