<?xml version="1.0" encoding="utf-8"?>
<!-- Generator: Adobe Illustrator 24.0.2, SVG Export Plug-In . SVG Version: 6.00 Build 0)  -->
<svg version="1.1" id="Layer_1" xmlns="http://www.w3.org/2000/svg" xmlns:xlink="http://www.w3.org/1999/xlink" x="0px" y="0px"
	 viewBox="0 0 34.5 34.5" style="enable-background:new 0 0 34.5 34.5;" xml:space="preserve">
<style type="text/css">
	.st0{fill:#3C4048;}
</style>
<g transform="translate(-535.071 -865.295)">
	<path class="st0" d="M552.3,865.3c-9.5,0-17.3,7.7-17.3,17.3s7.7,17.3,17.3,17.3s17.3-7.7,17.3-17.3S561.8,865.3,552.3,865.3
		L552.3,865.3z M562.6,892.9c-5.7,5.7-15,5.7-20.7,0s-5.7-15,0-20.7c5.7-5.7,15-5.7,20.7,0c2.7,2.7,4.3,6.5,4.3,10.3
		C566.9,886.4,565.4,890.1,562.6,892.9z"/>
	<path class="st0" d="M559.5,874.3c-0.7,0-1.3,0.6-1.3,1.3c0,0,0,0,0,0v2.7c0.1,0.9-0.4,1.8-1.2,2.2c-0.5,0.2-1,0.4-1.5,0.4H554
		v-5.4c0-0.7-0.6-1.3-1.3-1.3s-1.3,0.6-1.3,1.3v5.4h-4.2v-5.5c0-0.7-0.6-1.3-1.3-1.3s-1.3,0.6-1.3,1.3v13.2c0,0.7,0.6,1.3,1.3,1.3
		s1.3-0.6,1.3-1.3v-5.1h4.2v5.2c0,0.7,0.6,1.3,1.3,1.3s1.3-0.6,1.3-1.3v-5.2h1.6c2.9,0,5.2-2.3,5.3-5.2c0,0,0-0.1,0-0.1v-2.7
		C560.9,874.9,560.3,874.3,559.5,874.3C559.5,874.3,559.5,874.3,559.5,874.3z"/>
</g>
</svg>
