<svg xmlns="http://www.w3.org/2000/svg" viewBox="0 0 85 79"><defs><style>.cls-1{fill:#fff;}</style></defs><title>pick</title><g id="Layer_2" data-name="Layer 2"><g id="Layer_1-2" data-name="Layer 1"><path class="cls-1" d="M4,15H51.35a10,10,0,0,0,17.3,0H81a4,4,0,0,0,0-8H69.54A10,10,0,0,0,50.46,7H4a4,4,0,0,0,0,8Z"/><path class="cls-1" d="M81,36H29.16a10,10,0,0,0-18.32,0H4a4,4,0,0,0,0,8h6.84a10,10,0,0,0,18.32,0H81a4,4,0,0,0,0-8Z"/><path class="cls-1" d="M81,65H75.16a10,10,0,0,0-18.32,0H4a4,4,0,0,0,0,8H56.84a10,10,0,0,0,18.32,0H81a4,4,0,0,0,0-8Z"/></g></g></svg>