<?xml version="1.0" encoding="utf-8"?>
<!-- Generator: Adobe Illustrator 24.0.2, SVG Export Plug-In . SVG Version: 6.00 Build 0)  -->
<svg version="1.1" id="Layer_1" xmlns="http://www.w3.org/2000/svg" xmlns:xlink="http://www.w3.org/1999/xlink" x="0px" y="0px"
	 viewBox="0 0 39 33.7" style="enable-background:new 0 0 39 33.7;" xml:space="preserve">
<style type="text/css">
	.st0{fill:#3C4048;}
</style>
<g transform="translate(-865.231 -880.17)">
	<path class="st0" d="M884.7,880.2c-10.8,0-19.5,8.7-19.5,19.5c0,5,2,9.9,5.4,13.5c0,0,0.1,0.1,0.1,0.1c0.5,0.5,1.3,0.5,1.8,0
		c0,0,0,0,0,0l3.8-3.8c0.5-0.5,0.5-1.3,0-1.8s-1.3-0.5-1.8,0l-2.8,2.8c-2.4-2.8-3.7-6.3-3.9-9.9h4.1c0.7,0,1.3-0.6,1.3-1.3
		s-0.6-1.3-1.3-1.3h-4.1c0.3-3.5,1.8-6.8,4.1-9.4l2.9,2.9c0.5,0.5,1.3,0.5,1.8,0s0.5-1.3,0-1.8l-2.8-2.8c2.7-2.3,6-3.6,9.4-3.9v4.1
		c0,0.7,0.6,1.3,1.3,1.3s1.3-0.6,1.3-1.3v-4.1c3.5,0.2,6.8,1.6,9.5,3.8l-2.9,2.9c-0.5,0.5-0.5,1.3,0,1.8s1.3,0.5,1.8,0l2.9-2.9
		c5.7,6.3,5.8,15.9,0.2,22.3l-2.8-2.8c-0.5-0.5-1.3-0.5-1.8,0s-0.5,1.3,0,1.8l3.8,3.8c0.5,0.5,1.3,0.5,1.8,0c0,0,0,0,0,0l0,0
		c7.6-7.6,7.7-19.9,0.1-27.6C894.9,882.2,889.9,880.2,884.7,880.2L884.7,880.2z"/>
	<path class="st0" d="M897,899.3c0-0.7-0.6-1.3-1.3-1.3l-8.6-0.9c-1.2-1.3-3.3-1.4-4.6-0.1c-1.3,1.2-1.4,3.3-0.1,4.6
		c1.2,1.3,3.3,1.4,4.6,0.1c0.1-0.1,0.1-0.1,0.2-0.2l8.6-0.9C896.4,900.6,897,900,897,899.3C897,899.3,897,899.3,897,899.3z"/>
</g>
</svg>
