<?xml version="1.0" encoding="utf-8"?>
<!-- Generator: Adobe Illustrator 24.0.2, SVG Export Plug-In . SVG Version: 6.00 Build 0)  -->
<svg version="1.1" id="Layer_1" xmlns="http://www.w3.org/2000/svg" xmlns:xlink="http://www.w3.org/1999/xlink" x="0px" y="0px"
	 viewBox="0 0 40 37.7" style="enable-background:new 0 0 40 37.7;" xml:space="preserve">
<style type="text/css">
	.st0{fill:#3C4048;}
</style>
<g transform="translate(-1235.918 -866.503)">
	<path class="st0" d="M1265.7,894.2c0.4-0.4,0.4-0.9,0-1.3l-3.9-4.8c0-1.3-1-2.3-2.2-2.4c-1.3,0-2.3,1-2.4,2.2c0,1.3,1,2.3,2.2,2.4
		c0.1,0,0.1,0,0.2,0l4.8,3.9C1264.8,894.5,1265.4,894.5,1265.7,894.2z"/>
	<path class="st0" d="M1252.2,883.7h-9.7c-0.8,0-1.4-0.6-1.4-1.4c0-0.8,0.6-1.4,1.4-1.4h9.7c0.8,0,1.4,0.6,1.4,1.4
		C1253.6,883.1,1253,883.7,1252.2,883.7C1252.2,883.7,1252.2,883.7,1252.2,883.7z"/>
	<path class="st0" d="M1252.2,888.9h-12.3c-0.8,0-1.4-0.6-1.4-1.4c0-0.8,0.6-1.4,1.4-1.4c0,0,0,0,0,0h12.3c0.8,0,1.4,0.6,1.4,1.4
		C1253.6,888.2,1253,888.9,1252.2,888.9C1252.2,888.9,1252.2,888.9,1252.2,888.9z"/>
	<path class="st0" d="M1252.2,894h-14.8c-0.8,0-1.4-0.6-1.4-1.4c0-0.8,0.6-1.4,1.4-1.4h14.8c0.8,0,1.4,0.6,1.4,1.4
		S1253,894,1252.2,894C1252.2,894,1252.2,894,1252.2,894z"/>
	<path class="st0" d="M1269.8,875.4l1.2-1.7c0.4-0.6,0.3-1.5-0.4-2c-0.6-0.4-1.5-0.3-2,0.4l0,0l-1.2,1.7c-2-1.1-4.2-1.7-6.4-1.9
		v-2.6h1.5c0.8,0,1.4-0.6,1.4-1.4c0-0.8-0.6-1.4-1.4-1.4h-5.8c-0.8,0-1.4,0.6-1.4,1.4c0,0.8,0.6,1.4,1.4,1.4h1.5v2.6
		c-3.6,0.3-6.9,1.8-9.5,4.3l0,0c-0.6,0.5-0.6,1.4-0.1,2c0.5,0.6,1.3,0.6,1.9,0.2v0c5.3-5.1,13.8-4.9,18.9,0.5
		c5.1,5.3,4.9,13.8-0.5,18.9c-5.3,5.1-13.8,4.9-18.9-0.5c-0.3-0.3-0.5-0.6-0.8-0.9l0,0c-0.5-0.6-1.4-0.7-2-0.2
		c-0.6,0.5-0.7,1.4-0.2,2c0,0,0.1,0.1,0.1,0.1v0c5.6,6.9,15.8,8,22.8,2.3c6.9-5.6,8-15.8,2.3-22.8
		C1271.5,876.9,1270.7,876.1,1269.8,875.4L1269.8,875.4z"/>
</g>
</svg>
