<?xml version="1.0" encoding="utf-8"?>
<!-- Generator: Adobe Illustrator 24.2.1, SVG Export Plug-In . SVG Version: 6.00 Build 0)  -->
<svg version="1.1" id="Layer_1" xmlns="http://www.w3.org/2000/svg" xmlns:xlink="http://www.w3.org/1999/xlink" x="0px" y="0px"
	 viewBox="0 0 71.8 71.8" style="enable-background:new 0 0 71.8 71.8;" xml:space="preserve">
<path d="M17.1,25.7L17,13.3c0-0.4-0.3-0.8-0.8-0.8s-0.8,0.3-0.8,0.8l0.1,12.4c-3,0.4-5.1,3.1-4.7,6.2c0.3,2.4,2.2,4.3,4.6,4.7v21.8
	c0,0.4,0.3,0.8,0.8,0.8s0.8-0.3,0.8-0.8l0,0V36.6c3-0.4,5.2-3.1,4.8-6.1C21.5,28.1,19.6,26.1,17.1,25.7L17.1,25.7z M16.4,35.2
	c-2.2,0-4-1.8-4-4s1.8-4,4-4s4,1.8,4,4S18.6,35.2,16.4,35.2z"/>
<path d="M36.5,36.3v-23c0-0.4-0.3-0.8-0.8-0.8S35,12.9,35,13.3v23c-3,0.4-5.1,3.2-4.7,6.2c0.3,2.5,2.3,4.4,4.8,4.7v11.2
	c0,0.4,0.3,0.8,0.8,0.8s0.8-0.3,0.8-0.8l0,0V47.2c3-0.5,5-3.3,4.5-6.3C40.7,38.5,38.9,36.7,36.5,36.3z M35.8,45.8c-2.2,0-4-1.8-4-4
	s1.8-4,4-4s4,1.8,4,4C39.7,44,38,45.8,35.8,45.8z"/>
<path d="M60.9,30.9c0-2.7-2-5.1-4.7-5.4V13.4c0-0.4-0.3-0.8-0.8-0.8s-0.8,0.3-0.8,0.8v12.1c-3,0.4-5.1,3.2-4.7,6.2
	c0.3,2.4,2.2,4.3,4.7,4.7v22.1c0,0.4,0.3,0.8,0.8,0.8s0.8-0.3,0.8-0.8l0,0V36.3C58.9,35.9,60.9,33.6,60.9,30.9z M55.4,34.8
	c-2.2,0-4-1.8-4-4s1.8-4,4-4s4,1.8,4,4S57.6,34.8,55.4,34.8z"/>
</svg>
