<?xml version="1.0" encoding="utf-8"?>
<!-- Generator: Adobe Illustrator 24.2.1, SVG Export Plug-In . SVG Version: 6.00 Build 0)  -->
<svg version="1.1" id="Layer_1" xmlns="http://www.w3.org/2000/svg" xmlns:xlink="http://www.w3.org/1999/xlink" x="0px" y="0px"
	 viewBox="0 0 71.8 71.8" style="enable-background:new 0 0 71.8 71.8;" xml:space="preserve">
<path d="M23.1,37.5c-2.1,0-3.8,1.7-3.8,3.8s1.7,3.8,3.8,3.8c1,0,2-0.4,2.7-1.1c0.7-0.7,1.1-1.7,1.1-2.7
	C26.9,39.2,25.2,37.5,23.1,37.5L23.1,37.5z M23.1,43.7c-1.3,0-2.3-1-2.3-2.3c0-1.3,1-2.3,2.3-2.3c1.3,0,2.3,1,2.3,2.3c0,0,0,0,0,0
	C25.4,42.6,24.4,43.7,23.1,43.7C23.1,43.7,23.1,43.7,23.1,43.7z"/>
<path d="M48.7,37.5c-2.1-0.1-3.9,1.5-4,3.6s1.5,3.9,3.6,4c0.1,0,0.3,0,0.4,0c2.1,0,3.8-1.7,3.8-3.8C52.5,39.2,50.8,37.5,48.7,37.5z
	 M48.7,43.7c-1.3,0-2.4-1-2.4-2.3s1-2.4,2.3-2.4s2.4,1,2.4,2.3c0,0,0,0,0,0C51,42.6,50,43.7,48.7,43.7z"/>
<path d="M49.5,29.7l4.6-8c0.3-0.4,0.1-1-0.3-1.3c0,0,0,0,0,0c-0.1-0.1-0.3-0.1-0.5-0.1c-0.3,0-0.6,0.2-0.8,0.5l-4.7,8.1
	c-7.6-3.4-16.3-3.4-23.9,0l-4.7-8.1c-0.2-0.3-0.5-0.5-0.8-0.5c-0.2,0-0.3,0-0.5,0.1c-0.4,0.3-0.6,0.8-0.3,1.3c0,0,0,0,0,0l4.6,8
	C14.2,34.1,8.8,42.3,8,51.5h55.8C63,42.3,57.6,34.1,49.5,29.7z M23,31l0.8-0.4l0.8-0.4c7.2-3.2,15.4-3.2,22.6,0l0.8,0.4l0.8,0.4
	c7.2,3.9,12.1,10.9,13.3,19H9.7C10.9,41.9,15.8,34.9,23,31z"/>
</svg>
