<?xml version="1.0" encoding="utf-8"?>
<!-- Generator: Adobe Illustrator 24.2.1, SVG Export Plug-In . SVG Version: 6.00 Build 0)  -->
<svg version="1.1" id="Layer_1" xmlns="http://www.w3.org/2000/svg" xmlns:xlink="http://www.w3.org/1999/xlink" x="0px" y="0px"
	 viewBox="0 0 72 72" style="enable-background:new 0 0 72 72;" xml:space="preserve">
<path d="M29.2,29c-0.3-0.3-0.8-0.3-1,0c0,0,0,0,0,0c-3.9,3.8-3.9,10.1,0,14c0,0,0,0,0,0c0.1,0.1,0.3,0.2,0.5,0.2
	c0.2,0,0.4-0.1,0.5-0.2c0.3-0.3,0.3-0.8,0-1.1c-3.3-3.3-3.3-8.6,0-11.9c0,0,0,0,0,0C29.5,29.8,29.6,29.3,29.2,29
	C29.3,29,29.3,29,29.2,29z"/>
<path d="M23.1,22.9c-0.3-0.3-0.8-0.3-1.1,0c-7.3,7.3-7.3,19,0,26.3c0,0,0,0,0,0c0.3,0.3,0.8,0.3,1.1,0c0.3-0.3,0.3-0.8,0-1.1
	c-6.7-6.7-6.7-17.5,0-24.2c0,0,0,0,0,0C23.4,23.6,23.4,23.1,23.1,22.9z"/>
<path d="M10.1,36c0-6.7,2.6-13,7.3-17.7c0.3-0.3,0.3-0.8,0-1.1s-0.8-0.3-1.1,0c0,0,0,0,0,0C6,27.6,6,44.4,16.3,54.8c0,0,0,0,0,0
	c0.1,0.1,0.3,0.2,0.5,0.2c0.2,0,0.4-0.1,0.5-0.2c0.3-0.3,0.3-0.8,0-1.1C12.7,49,10,42.7,10.1,36z"/>
<path d="M42.8,29c-0.3,0.3-0.3,0.8,0,1.1c3.3,3.3,3.3,8.6,0,11.9c0,0,0,0,0,0c-0.3,0.3-0.3,0.8,0,1.1c0.1,0.1,0.3,0.2,0.5,0.2
	c0.2,0,0.4-0.1,0.5-0.2c3.9-3.8,3.9-10.1,0-14c0,0,0,0,0,0C43.5,28.7,43.1,28.7,42.8,29C42.8,29,42.8,29,42.8,29z"/>
<path d="M50,22.9c-0.3-0.3-0.8-0.3-1.1,0c-0.3,0.3-0.3,0.7,0,1c6.7,6.7,6.7,17.5,0,24.2c0,0,0,0,0,0c-0.3,0.3-0.3,0.8,0,1.1
	c0.3,0.3,0.8,0.3,1.1,0C57.3,41.9,57.3,30.1,50,22.9C50,22.9,50,22.9,50,22.9z"/>
<path d="M55.7,17.2c-0.3-0.3-0.8-0.3-1.1,0c-0.3,0.3-0.3,0.7,0,1c9.8,9.8,9.8,25.7,0,35.5c0,0,0,0,0,0c-0.3,0.3-0.3,0.8,0,1.1
	c0.3,0.3,0.8,0.3,1.1,0C66,44.4,66,27.6,55.7,17.2C55.7,17.2,55.7,17.2,55.7,17.2z"/>
</svg>
