<?xml version="1.0" encoding="utf-8"?>
<!-- Generator: Adobe Illustrator 24.2.1, SVG Export Plug-In . SVG Version: 6.00 Build 0)  -->
<svg version="1.1" id="Layer_1" xmlns="http://www.w3.org/2000/svg" xmlns:xlink="http://www.w3.org/1999/xlink" x="0px" y="0px"
	 viewBox="0 0 71.8 71.8" style="enable-background:new 0 0 71.8 71.8;" xml:space="preserve">
<path d="M30.3,9c-0.4,0-0.8,0.3-0.8,0.8v9.5l-4.7-4.8c-0.3-0.3-0.8-0.3-1.1,0c-0.3,0.3-0.3,0.8,0,1.1l5.7,5.7h0.1V35H17.8l-5.7-5.7
	c-0.3-0.3-0.8-0.3-1.1,0c-0.3,0.3-0.3,0.8,0,1.1l4.6,4.6H7.8c-0.4,0-0.8,0.3-0.8,0.8s0.3,0.8,0.8,0.8h8l-4.7,4.7
	c-0.3,0.3-0.3,0.8,0,1.1c0.3,0.3,0.8,0.3,1.1,0l5.7-5.7l0,0h11.6v14.4L24,56.4c-0.3,0.3-0.3,0.8,0,1c0,0,0,0,0,0
	c0.1,0.1,0.3,0.2,0.5,0.2c0.2,0,0.4-0.1,0.5-0.2l4.5-4.5v8.7c0,0.4,0.3,0.8,0.8,0.8s0.8-0.3,0.8-0.8l0,0V9.8C31,9.4,30.7,9,30.3,9
	C30.3,9,30.3,9,30.3,9z"/>
<path d="M64,35H53.9h-0.1c-0.2-3.9-1.8-7.6-4.5-10.5l6.8-6.8c0.3-0.3,0.3-0.8,0-1.1c-0.3-0.3-0.8-0.3-1.1,0l-6.7,6.8
	c-2.8-2.5-6.5-4-10.3-4.2v-9.3c0-0.4-0.3-0.8-0.8-0.8s-0.8,0.3-0.8,0.8v10.8h0.8c8.3,0,15.1,6.8,15.1,15.1c0,8.3-6.8,15.1-15.1,15.1
	h-0.8v11c0,0.4,0.3,0.8,0.8,0.8S38,62.4,38,62v-9.5c4.1-0.2,7.9-1.9,10.8-4.7l6.8,6.8c0.1,0.1,0.3,0.2,0.5,0.2
	c0.2,0,0.4-0.1,0.5-0.2c0.3-0.3,0.3-0.8,0-1c0,0,0,0,0,0l-6.8-6.8c2.5-2.8,3.9-6.4,4-10.2H64c0.4-0.1,0.7-0.5,0.6-0.9
	C64.5,35.3,64.3,35.1,64,35z"/>
</svg>
