<?xml version="1.0" encoding="utf-8"?>
<!-- Generator: Adobe Illustrator 24.2.1, SVG Export Plug-In . SVG Version: 6.00 Build 0)  -->
<svg version="1.1" id="Layer_1" xmlns="http://www.w3.org/2000/svg" xmlns:xlink="http://www.w3.org/1999/xlink" x="0px" y="0px"
	 viewBox="0 0 71.8 71.8" style="enable-background:new 0 0 71.8 71.8;" xml:space="preserve">
<path d="M59.9,43.8c-0.1-0.4-0.5-0.7-0.9-0.6l-7.9,1.7l-13.9-9l13.8-9l0,0l7.9,1.7h0.2c0.4,0,0.7-0.2,0.7-0.6
	c0.1-0.4-0.2-0.8-0.6-0.9c0,0,0,0,0,0l-6.5-1.4l6.7-4.3c0.3-0.2,0.4-0.7,0.2-1c-0.2-0.3-0.7-0.4-1-0.2l-6.6,4.3l1.4-6.5
	c0.1-0.4-0.1-0.8-0.5-0.9c-0.4-0.1-0.8,0.1-0.9,0.5c0,0,0,0,0,0.1l-1.7,7.9l-13.7,8.9V18.2l5.7-5.7c0.3-0.3,0.3-0.8,0-1.1
	c-0.3-0.3-0.8-0.3-1,0c0,0,0,0,0,0L36.7,16V8.1c0-0.4-0.3-0.8-0.8-0.8s-0.8,0.3-0.8,0.8v8l-4.7-4.7c-0.3-0.3-0.8-0.3-1,0
	c0,0,0,0,0,0c-0.3,0.3-0.3,0.8,0,1.1l5.7,5.7l0,0v16.2l-13.7-8.9l-1.7-7.9c-0.1-0.4-0.5-0.7-0.9-0.6c-0.4,0.1-0.7,0.5-0.6,0.9
	c0,0,0,0,0,0l1.4,6.4l-6.6-4.3c-0.3-0.2-0.8-0.1-1,0.2c-0.2,0.3-0.1,0.8,0.2,1l6.7,4.3l-6.5,1.4c-0.4,0.1-0.7,0.5-0.6,0.9
	c0,0,0,0,0,0c0.1,0.3,0.4,0.6,0.7,0.6h0.2l7.9-1.7l0,0l13.8,9l-13.9,9l-7.9-1.7c-0.4-0.1-0.8,0.2-0.9,0.6c-0.1,0.4,0.2,0.8,0.6,0.9
	c0,0,0,0,0,0l6.4,1.3l-6.6,4.3c-0.3,0.2-0.4,0.7-0.2,1c0.1,0.2,0.4,0.3,0.6,0.3c0.1,0,0.3,0,0.4,0l6.7-4.3l-1.4,6.5
	c-0.1,0.4,0.2,0.8,0.6,0.9c0,0,0,0,0,0c0,0,0.1,0,0.1,0c0.4,0,0.7-0.2,0.7-0.6l1.7-7.9l0,0l13.6-8.9v16.4l-5.7,5.7
	c-0.3,0.3-0.3,0.8,0,1.1c0.3,0.3,0.8,0.3,1.1,0l4.6-4.6v7.9c0,0.4,0.3,0.8,0.8,0.8s0.8-0.3,0.8-0.8l0,0v-8l4.7,4.7
	c0.3,0.3,0.8,0.3,1.1,0c0.3-0.3,0.3-0.8,0-1.1l-5.7-5.7l0,0V37.2l13.7,8.9l0,0l1.7,8c0.1,0.3,0.4,0.6,0.7,0.6c0.1,0,0.1,0,0.2,0
	c0.4-0.1,0.7-0.5,0.6-0.9c0,0,0,0,0,0l-1.4-6.5l6.7,4.3c0.1,0.1,0.3,0.1,0.4,0.1c0.4,0,0.8-0.3,0.8-0.7c0-0.3-0.1-0.5-0.3-0.6L53,46
	l6.4-1.4C59.8,44.5,60,44.2,59.9,43.8z"/>
</svg>
