<?xml version="1.0" encoding="utf-8"?>
<!-- Generator: Adobe Illustrator 24.2.1, SVG Export Plug-In . SVG Version: 6.00 Build 0)  -->
<svg version="1.1" id="Layer_1" xmlns="http://www.w3.org/2000/svg" xmlns:xlink="http://www.w3.org/1999/xlink" x="0px" y="0px"
	 viewBox="0 0 72 72" style="enable-background:new 0 0 72 72;" xml:space="preserve">
<path d="M36.3,13.8c-12.5,0-22.7,10.2-22.7,22.7s10.2,22.7,22.7,22.7S59,49,59,36.5l0,0C59,24,48.8,13.8,36.3,13.8z M36.3,57.7
	c-11.7,0-21.2-9.5-21.2-21.2s9.5-21.2,21.2-21.2s21.2,9.5,21.2,21.2C57.5,48.2,48,57.7,36.3,57.7z"/>
<path d="M43.2,29c-0.3-0.3-0.8-0.2-1.1,0.1c-0.3,0.3-0.2,0.8,0.1,1.1l0,0c4,3.3,4.5,9.1,1.3,13.1s-9.1,4.5-13.1,1.3
	s-4.5-9.1-1.3-13.1c0.4-0.4,0.8-0.8,1.2-1.2c0.3-0.3,0.4-0.8,0.1-1.1c-0.3-0.3-0.8-0.4-1.1-0.1c-4.5,3.9-5.1,10.7-1.3,15.2
	s10.7,5.1,15.2,1.3s5.1-10.7,1.3-15.2C44.1,29.8,43.7,29.4,43.2,29z"/>
<path d="M36.3,37.2c0.4,0,0.8-0.3,0.8-0.8V25.1c0-0.4-0.3-0.8-0.8-0.8s-0.8,0.3-0.8,0.8v11.4C35.6,36.9,35.9,37.2,36.3,37.2z"/>
</svg>
