<?xml version="1.0" encoding="utf-8"?>
<!-- Generator: Adobe Illustrator 24.2.1, SVG Export Plug-In . SVG Version: 6.00 Build 0)  -->
<svg version="1.1" id="Layer_1" xmlns="http://www.w3.org/2000/svg" xmlns:xlink="http://www.w3.org/1999/xlink" x="0px" y="0px"
	 viewBox="0 0 71.8 71.8" style="enable-background:new 0 0 71.8 71.8;" xml:space="preserve">
<path d="M65.9,6.4c0-0.1,0-0.1,0-0.2c0,0,0,0,0-0.1C65.8,6.1,65.8,6,65.7,6l0,0l0,0c-0.1-0.1-0.1-0.1-0.2-0.2h-0.1h-0.2h-0.1
	c-0.1,0-0.2,0-0.2,0l0,0l-58.6,23C6,29,5.8,29.3,5.9,29.6c0,0.3,0.3,0.6,0.6,0.7l29.2,5.2c0.1,0.3,0.3,0.4,0.6,0.5l6.5,29.5
	c0.1,0.3,0.3,0.6,0.7,0.6h0c0.3,0,0.6-0.2,0.7-0.5L65.9,6.7C65.9,6.7,65.9,6.6,65.9,6.4C65.9,6.5,65.9,6.5,65.9,6.4z M62.1,8.5
	L36.5,34.1L9.4,29.3L62.1,8.5z M43.7,62.6l-6-27.6L63.3,9.4L43.7,62.6z"/>
</svg>
