<?xml version="1.0" encoding="utf-8"?>
<!-- Generator: Adobe Illustrator 24.2.1, SVG Export Plug-In . SVG Version: 6.00 Build 0)  -->
<svg version="1.1" id="Layer_1" xmlns="http://www.w3.org/2000/svg" xmlns:xlink="http://www.w3.org/1999/xlink" x="0px" y="0px"
	 viewBox="0 0 53.5 53.5" style="enable-background:new 0 0 53.5 53.5;" xml:space="preserve">
<path id="Path_101" d="M26.6,20.9c-3.2,0-5.7,2.6-5.7,5.7s2.6,5.7,5.7,5.7s5.7-2.6,5.7-5.7l0,0C32.3,23.4,29.8,20.9,26.6,20.9z
	 M26.6,30.7c-2.3,0-4.1-1.8-4.1-4.1s1.8-4.1,4.1-4.1s4.1,1.8,4.1,4.1l0,0C30.7,28.9,28.9,30.7,26.6,30.7z"/>
<path id="Path_102" d="M26.8,0C12,0,0,12,0,26.8s12,26.8,26.8,26.8s26.8-12,26.8-26.8c0,0,0,0,0,0C53.5,12,41.5,0,26.8,0
	C26.8,0,26.8,0,26.8,0z M7.4,10.6c3.6-4.4,8.6-7.4,14.2-8.5L22.1,2v11.5c0,1.1-0.6,2-1.5,2.5c-0.6,0.3-1.2,0.5-1.9,0.5
	c-0.7,0-1.4-0.2-2-0.6L7.1,11L7.4,10.6z M2.7,33.9c-1.6-5.2-1.5-10.7,0.4-15.8l0.2-0.5l10.4,7.2c0.7,0.9,1,2.1,0.8,3.2
	c-0.1,1-0.6,2-1.5,2.6H13L2.9,34.3L2.7,33.9z M22.1,51.2l-0.5-0.1c-5.7-1.2-10.8-4.3-14.5-8.9l-0.3-0.4l10.7-4.5
	c1-0.5,2.1-0.4,3.1,0.2c0.9,0.6,1.5,1.6,1.5,2.7V51.2z M46.1,42.2c-3.6,4.6-8.8,7.7-14.5,8.9l-0.5,0.1V40.1c0-1.1,0.6-2.1,1.5-2.7
	c1-0.6,2.2-0.6,3.2-0.1l10.6,4.5L46.1,42.2z M50.1,18.1c1.9,5.1,2,10.6,0.4,15.8l-0.1,0.4l-10.3-3.7C39.3,30,38.7,29,38.6,28
	c-0.2-1.1,0.1-2.3,0.8-3.1v0l10.4-7.1L50.1,18.1z M47.3,12.6c0.2,0.2,0.3,0.5,0.4,0.7l0.3,0.5c0.1,0.2,0.2,0.4,0.3,0.5
	s0.2,0.4,0.3,0.7l0.1,0.2l0.2,0.4l0.2,0.5l-10.9,7.5c-1.1,1.2-1.6,2.9-1.3,4.6c0.2,1.6,1.1,3,2.4,3.8l10.4,3.8l-0.2,0.4
	c-0.2,0.5-0.5,1-0.7,1.5c0,0,0,0.1,0,0.1c-0.2,0.4-0.5,0.8-0.7,1.3l0,0c-0.2,0.3-0.3,0.6-0.5,0.9l-0.2,0.3l-10.9-4.6
	C35,35,33.3,35.1,31.8,36c-1.4,0.9-2.3,2.4-2.3,4.1v11.3h-0.4h-0.5c-0.6,0.1-1.3,0.1-2,0.1s-1.3,0-1.9-0.1h-0.1h-0.5h-0.4V40.1
	c0-2.7-2.2-4.8-4.8-4.8c-0.7,0-1.4,0.2-2.1,0.5l-11,4.7l-0.2-0.3c-0.2-0.3-0.4-0.6-0.6-0.9c-0.3-0.5-0.5-1-0.8-1.4l0,0
	c-0.3-0.5-0.5-1-0.7-1.5l-0.2-0.4L13.9,32c1.3-0.9,2.2-2.3,2.4-3.9c0.3-1.7-0.2-3.3-1.3-4.6L4,16.1l0.2-0.5l0.2-0.4l0.1-0.1
	c0.1-0.2,0.2-0.5,0.4-0.7s0.2-0.4,0.3-0.5l0.3-0.5c0.2-0.2,0.3-0.5,0.4-0.7l0.2-0.3l9.9,5c0.8,0.5,1.8,0.8,2.8,0.8
	c0.9,0,1.9-0.2,2.7-0.7c1.4-0.8,2.4-2.3,2.3-3.9V1.8h0.4l0.5,0c1.3-0.1,2.6-0.1,3.9,0h0.1l0.5,0h0.4v11.7c0,1.5,0.7,2.8,1.9,3.6
	c0.9,0.6,2,0.9,3.1,0.8c0.9,0,1.8-0.2,2.7-0.6l10-5L47.3,12.6z M46.1,11l-9.7,4.9c-0.6,0.3-1.3,0.4-2,0.4c-0.8,0-1.5-0.2-2.2-0.6
	c-0.8-0.5-1.2-1.3-1.2-2.2V2l0.5,0.1c5.6,1.1,10.6,4.1,14.2,8.5L46.1,11z"/>
</svg>
