<?xml version="1.0" encoding="utf-8"?>
<!-- Generator: Adobe Illustrator 24.2.1, SVG Export Plug-In . SVG Version: 6.00 Build 0)  -->
<svg version="1.1" id="Layer_1" xmlns="http://www.w3.org/2000/svg" xmlns:xlink="http://www.w3.org/1999/xlink" x="0px" y="0px"
	 viewBox="0 0 72 72" style="enable-background:new 0 0 72 72;" xml:space="preserve">
<path d="M38.2,37c-1.2-0.7-2.8-0.7-3.9,0.1l-5.2-5.2c-0.3-0.3-0.8-0.3-1.1,0c-0.3,0.3-0.3,0.8,0,1.1l5.2,5.2c0,0.1-0.1,0.1-0.1,0.2
	c-1,1.8-0.4,4.1,1.4,5.1s4.1,0.4,5.1-1.4C40.7,40.3,40,38,38.2,37z M38.3,41.4c-0.6,1.1-2,1.5-3.1,0.8s-1.5-2-0.8-3.1
	c0.6-1.1,2-1.5,3.1-0.8c0,0,0,0,0,0c0.5,0.3,0.9,0.8,1,1.4C38.7,40.2,38.6,40.9,38.3,41.4L38.3,41.4z"/>
<path d="M36.6,14.2c-13.9,0-25.2,11.6-25.2,25.8c0,6.5,2.4,12.8,6.8,17.6c0.1,0.2,0.3,0.2,0.5,0.2l0,0c0.2,0,0.4-0.1,0.5-0.2
	l5.8-5.8c0.3-0.3,0.3-0.8,0-1.1c-0.3-0.3-0.8-0.3-1.1,0c0,0,0,0,0,0l-5.2,5.2c-3.8-4.4-5.8-10-5.9-15.8c0.1,0,0.1,0,0.2,0h7.1
	c0.4,0,0.8-0.3,0.8-0.8s-0.3-0.8-0.8-0.8h-7.1c-0.1,0-0.1,0-0.2,0c0.3-5.5,2.4-10.8,6-14.9l4.7,4.7c0.3,0.3,0.8,0.3,1.1,0
	c0.3-0.3,0.3-0.8,0-1.1l-4.7-4.7c4.2-4.3,10-6.8,16-7c0,0.1,0,0.1,0,0.2V23c0,0.4,0.3,0.8,0.8,0.8s0.8-0.3,0.8-0.8v-7.1
	c0-0.1,0-0.1,0-0.2c5.5,0.2,10.8,2.3,14.9,6l-4.7,4.7c-0.3,0.3-0.3,0.8,0,1.1c0.3,0.3,0.8,0.3,1.1,0l4.7-4.7c4.2,4.3,6.7,10,7,16
	c-0.1,0-0.1,0-0.2,0H53c-0.4,0-0.8,0.3-0.8,0.8s0.3,0.8,0.8,0.8h7.1c0.1,0,0.1,0,0.2,0c0,5.7-2.1,11.3-5.8,15.7l-5.3-5.1
	c-0.2-0.3-0.7-0.4-1-0.2c-0.3,0.2-0.4,0.7-0.2,1c0.1,0.1,0.1,0.1,0.2,0.2l5.8,5.6c0.1,0.1,0.3,0.2,0.5,0.2c0.2,0,0.4-0.1,0.5-0.2
	c4.3-4.8,6.7-11.1,6.7-17.5C61.8,25.8,50.5,14.2,36.6,14.2z"/>
<path d="M15.9,20.2c0.2-0.1,0.3-0.2,0.4-0.4c0-0.1,0.1-0.2,0.1-0.3v-4.3c0-0.4-0.3-0.8-0.8-0.8s-0.8,0.3-0.8,0.8v2.5l-5.6-5.5
	c-0.3-0.3-0.8-0.3-1,0c0,0,0,0,0,0c-0.3,0.3-0.3,0.8,0,1.1l5.6,5.5h-2.5c-0.4,0-0.8,0.3-0.8,0.8s0.3,0.8,0.8,0.8h4.3
	C15.7,20.2,15.8,20.2,15.9,20.2z"/>
</svg>
