<?xml version="1.0" encoding="utf-8"?>
<!-- Generator: Adobe Illustrator 24.2.1, SVG Export Plug-In . SVG Version: 6.00 Build 0)  -->
<svg version="1.1" id="Layer_1" xmlns="http://www.w3.org/2000/svg" xmlns:xlink="http://www.w3.org/1999/xlink" x="0px" y="0px"
	 viewBox="0 0 71.8 71.8" style="enable-background:new 0 0 71.8 71.8;" xml:space="preserve">
<path d="M61.1,48.2c-0.1-0.2-0.3-0.3-0.5-0.4c-6.8-1.8-11-8.8-9.2-15.6c1.2-4.5,4.7-8,9.2-9.2c0.2-0.1,0.4-0.2,0.5-0.4
	c0.1-0.2,0.1-0.5,0-0.7l-4.9-8.7c-0.1-0.2-0.3-0.4-0.6-0.4c-0.2,0-0.5,0.1-0.6,0.3c-2.2,2.7-6.2,3-8.8,0.8c-1.4-1.2-2.3-3-2.2-4.9
	c0-0.2,0-0.4,0-0.6c0-0.2,0-0.4-0.2-0.6c-0.1-0.2-0.3-0.2-0.5-0.2h-7h-7.6c-0.2,0-0.4,0.1-0.5,0.2c-0.1,0.2-0.2,0.4-0.2,0.6
	c0,0.2,0,0.4,0,0.6c0,3.5-2.8,6.3-6.3,6.2c-1.8,0-3.5-0.8-4.7-2.2c-0.3-0.3-0.7-0.3-1.1-0.1c-0.1,0.1-0.1,0.1-0.2,0.2l-4.8,8.7
	c-0.1,0.2-0.1,0.5,0,0.7c0.1,0.2,0.3,0.4,0.5,0.4c6.8,1.8,11,8.8,9.2,15.6c-1.2,4.5-4.7,8-9.2,9.2c-0.2,0.1-0.4,0.2-0.5,0.4
	c-0.1,0.2-0.1,0.4,0,0.6l3.2,8.1c0.2,0.4,0.6,0.6,1,0.4c0,0,0,0,0,0c6.5-2.5,13.9,0,17.5,6c0.1,0.2,0.3,0.3,0.5,0.3l2.7,0.5H36
	l2.7-0.5c0.2,0,0.4-0.2,0.5-0.3c3.6-6,11-8.5,17.5-6c0.4,0.2,0.8,0,1-0.4c0,0,0,0,0,0l3.3-8.1C61.2,48.6,61.2,48.4,61.1,48.2z
	 M56.6,55.7c-6.9-2.3-14.6,0.4-18.5,6.6l-2.3,0.4l-2.3-0.4c-3.9-6.2-11.5-8.9-18.5-6.6L12.4,49c7.5-2.4,11.6-10.5,9.2-18
	c-1.4-4.3-4.8-7.7-9.1-9.2l4-7c3.2,2.9,8.1,2.6,11-0.6c1.3-1.4,2-3.2,2-5.1h6.8h6.2c0.1,4.3,3.5,7.7,7.8,7.7c1.9,0,3.7-0.7,5.2-2
	l4,7c-7.5,2.5-11.6,10.6-9.1,18.1c1.4,4.3,4.8,7.7,9.2,9.1L56.6,55.7z"/>
<path d="M24.4,22.1c-0.3-0.3-0.7-0.3-1-0.1c-0.3,0.2-0.4,0.7-0.2,1.1c0.7,0.9,1.2,1.8,1.7,2.9c0.1,0.3,0.4,0.4,0.7,0.4
	c0.1,0,0.2,0,0.3-0.1c0.4-0.2,0.5-0.6,0.4-1C25.8,24.1,25.1,23,24.4,22.1z"/>
<path d="M28.4,32.2c0-0.4-0.4-0.7-0.8-0.7c-0.4,0-0.7,0.4-0.7,0.8c0,0,0,0.1,0,0.1c0.1,1,0.2,2,0.2,3c0,1.3-0.1,2.6-0.3,3.8
	c-0.1,0.4,0.2,0.8,0.6,0.9h0.1c0.4,0,0.7-0.3,0.7-0.6c0.2-1.3,0.3-2.7,0.3-4.1C28.6,34.4,28.5,33.3,28.4,32.2z"/>
<path d="M25.7,45.6c-0.4-0.2-0.8,0-1,0.4c0,0,0,0,0,0c-0.5,1-1,2-1.6,3c-0.2,0.4-0.1,0.8,0.3,1c0.1,0.1,0.2,0.1,0.4,0.1
	c0.3,0,0.5-0.1,0.6-0.4c0.6-1,1.2-2.1,1.6-3.2C26.2,46.2,26.1,45.8,25.7,45.6z"/>
<path d="M47.4,22.1c-0.7,1-1.4,2-1.9,3.1c-0.2,0.4,0,0.8,0.3,1c0,0,0,0,0,0c0.1,0,0.2,0.1,0.3,0.1c0.3,0,0.6-0.2,0.7-0.4
	c0.5-1,1-2,1.7-2.9c0.2-0.3,0.2-0.7-0.1-1C48.1,21.7,47.7,21.8,47.4,22.1C47.4,22.1,47.4,22.1,47.4,22.1z"/>
<path d="M44.9,32.5c0.1-0.4-0.2-0.8-0.6-0.8c0,0,0,0,0,0c-0.4-0.1-0.8,0.2-0.8,0.6c0,0,0,0,0,0c-0.1,1.1-0.2,2.2-0.2,3.2
	c0,1.4,0.1,2.7,0.3,4.1c0.1,0.4,0.4,0.6,0.7,0.6h0.1c0.4-0.1,0.7-0.5,0.6-0.9c0,0,0,0,0,0c-0.2-1.3-0.3-2.5-0.3-3.8
	C44.7,34.5,44.7,33.5,44.9,32.5z"/>
<path d="M47,46c-0.2-0.4-0.6-0.5-1-0.4c-0.4,0.2-0.5,0.6-0.4,1c0,0,0,0,0,0c0.5,1.1,1,2.1,1.6,3.2c0.2,0.4,0.7,0.5,1,0.3
	s0.5-0.7,0.3-1C48,48.1,47.5,47,47,46z"/>
<path d="M42.6,51.1L38.5,54c-0.3,0.2-0.4,0.7-0.2,1c0.1,0.2,0.4,0.3,0.6,0.3c0.2,0,0.3,0,0.4-0.1l4.1-2.9c0.4-0.2,0.5-0.7,0.3-1
	S43.1,50.9,42.6,51.1C42.7,51.1,42.6,51.1,42.6,51.1L42.6,51.1z"/>
<path d="M29.8,51.1c-0.3-0.2-0.8-0.2-1,0.2c-0.2,0.3-0.2,0.8,0.1,1l4,3c0.1,0.1,0.3,0.2,0.5,0.2c0.2,0,0.5-0.1,0.6-0.3
	c0.2-0.3,0.2-0.8-0.1-1L29.8,51.1z"/>
<path d="M32.8,15l-4,3c-0.3,0.3-0.4,0.7-0.1,1.1c0.1,0.2,0.4,0.3,0.6,0.3c0.2,0,0.3-0.1,0.5-0.1l4-3c0.3-0.2,0.4-0.7,0.2-1
	C33.7,14.8,33.2,14.7,32.8,15C32.9,15,32.8,15,32.8,15z"/>
<path d="M42.6,19.2c0.1,0.1,0.3,0.1,0.4,0.1c0.2,0,0.5-0.1,0.6-0.3c0.2-0.3,0.1-0.8-0.2-1l-4.1-2.9c-0.3-0.2-0.8-0.1-1,0.2
	c-0.2,0.3-0.1,0.8,0.2,1L42.6,19.2z"/>
</svg>
