<?xml version="1.0" encoding="utf-8"?>
<!-- Generator: Adobe Illustrator 24.2.1, SVG Export Plug-In . SVG Version: 6.00 Build 0)  -->
<svg version="1.1" id="Layer_1" xmlns="http://www.w3.org/2000/svg" xmlns:xlink="http://www.w3.org/1999/xlink" x="0px" y="0px"
	 viewBox="0 0 71.8 71.8" style="enable-background:new 0 0 71.8 71.8;" xml:space="preserve">
<g id="Layer_2_1_">
	<g id="Layer_2-2">
		<path id="Path_83" d="M52.5,23.3c0-0.2-0.1-0.4-0.2-0.5l-14-14c-0.3-0.3-0.8-0.3-1,0c0,0,0,0,0,0c-0.1,0.1-0.2,0.3-0.2,0.5v24.2
			L20.5,16.9c-0.4-0.2-0.8-0.1-1,0.3c-0.1,0.2-0.1,0.5,0,0.7l0,0L37,35.6V37L19.4,54.6c-0.3,0.3-0.3,0.7,0,1c0.3,0.3,0.7,0.3,1,0
			L37,39.1v23.4c0,0.4,0.3,0.7,0.7,0.7c0.2,0,0.4-0.1,0.5-0.2l13.5-13.5c0.3-0.3,0.3-0.7,0-1l0,0l0,0c0-0.1-0.1-0.2-0.2-0.3
			L39.8,36.3l12.5-12.5C52.5,23.7,52.5,23.5,52.5,23.3z M50.3,48.9L38.5,60.7V37.6l0.3-0.3L50.3,48.9z M38.8,35.2L38.5,35V11
			l12.2,12.2L38.8,35.2z"/>
	</g>
</g>
</svg>
