<?xml version="1.0" encoding="utf-8"?>
<!-- Generator: Adobe Illustrator 24.2.1, SVG Export Plug-In . SVG Version: 6.00 Build 0)  -->
<svg version="1.1" id="Layer_1" xmlns="http://www.w3.org/2000/svg" xmlns:xlink="http://www.w3.org/1999/xlink" x="0px" y="0px"
	 viewBox="0 0 72 72" style="enable-background:new 0 0 72 72;" xml:space="preserve">
<path d="M57.3,18.6H28.7c-2.2,0-4.3,1.2-5.4,3.1L9,47.1c-1.1,2-0.4,4.5,1.6,5.7c0.6,0.4,1.3,0.5,2.1,0.5h44.7c3.4,0,6.2-2.8,6.2-6.2
	V24.8C63.5,21.4,60.7,18.6,57.3,18.6z M10.3,50.5c-0.5-0.8-0.5-1.8,0-2.7l14.3-25.4c0.8-1.5,2.4-2.4,4.1-2.4h28.6
	c2.6,0,4.7,2.1,4.7,4.7v10.8H29.9c-2.2,0-4.3,1.2-5.4,3.1l-7.4,13.2h-4.4C11.7,51.9,10.8,51.4,10.3,50.5L10.3,50.5z M57.3,51.9H18.8
	l7-12.4c0.8-1.5,2.4-2.4,4.1-2.4H62v10.1C62,49.8,59.9,51.9,57.3,51.9z"/>
<path d="M32.1,40.5c-0.4-0.2-0.8-0.1-1,0.3l-3.7,6.5c-0.2,0.4-0.1,0.8,0.3,1c0.1,0.1,0.2,0.1,0.4,0.1c0.3,0,0.5-0.1,0.7-0.4l3.7-6.6
	C32.6,41.2,32.5,40.7,32.1,40.5z"/>
<path d="M40,40.5c-0.4-0.2-0.8-0.1-1,0.3l-3.7,6.5c-0.2,0.4-0.1,0.8,0.3,1c0.1,0.1,0.2,0.1,0.4,0.1c0.3,0,0.5-0.1,0.7-0.4l3.7-6.6
	C40.6,41.2,40.4,40.7,40,40.5C40.1,40.6,40.1,40.6,40,40.5z"/>
<path d="M48,40.5c-0.4-0.2-0.8-0.1-1,0.3l-3.7,6.5c-0.2,0.4-0.1,0.8,0.3,1c0.1,0.1,0.2,0.1,0.4,0.1c0.3,0,0.5-0.1,0.7-0.4l3.7-6.6
	C48.5,41.2,48.4,40.7,48,40.5z"/>
<path d="M56,40.5c-0.4-0.2-0.8-0.1-1,0.3l-3.7,6.5c-0.2,0.4-0.1,0.8,0.3,1c0.1,0.1,0.2,0.1,0.4,0.1c0.3,0,0.5-0.1,0.7-0.4l3.7-6.6
	C56.5,41.2,56.4,40.7,56,40.5z"/>
</svg>
