<?xml version="1.0" encoding="utf-8"?>
<!-- Generator: Adobe Illustrator 24.2.1, SVG Export Plug-In . SVG Version: 6.00 Build 0)  -->
<svg version="1.1" id="Layer_1" xmlns="http://www.w3.org/2000/svg" xmlns:xlink="http://www.w3.org/1999/xlink" x="0px" y="0px"
	 viewBox="0 0 72 72" style="enable-background:new 0 0 72 72;" xml:space="preserve">
<g>
	<path d="M36,34.2c-3.3,0-6.1,2.7-6.1,6c0,3.1,2.3,5.7,5.4,6.1v7c0,0.4,0.3,0.8,0.8,0.8c0.4,0,0.8-0.3,0.8-0.8v-7
		c3.3-0.4,5.7-3.4,5.3-6.7C41.7,36.5,39.1,34.2,36,34.2z M36,44.8c-2.5,0-4.6-2-4.6-4.6c0-2.5,2-4.6,4.6-4.6c2.5,0,4.6,2,4.6,4.6
		C40.6,42.8,38.5,44.8,36,44.8z"/>
	<path d="M51.3,27.6C51.3,27.6,51.3,27.6,51.3,27.6l-3.3,0v-4.3c0-6.6-5.4-12-12-12s-12,5.4-12,12v4.3h-3.3c-1.9,0-3.5,1.6-3.5,3.5
		v26.1c0,1.9,1.6,3.5,3.5,3.5c0,0,0,0,0,0h30.6c1.9,0,3.5-1.6,3.5-3.5V31.1C54.8,29.2,53.3,27.6,51.3,27.6z M25.5,23.3
		c0-5.8,4.7-10.5,10.5-10.5s10.5,4.7,10.5,10.5v4.3h-21V23.3z M53.2,57.2c0,1.1-0.9,2-2,2H20.7c-1.1,0-2-0.9-2-2V31.1
		c0-1.1,0.9-2,2-2h30.6c1.1,0,2,0.9,2,2L53.2,57.2z"/>
</g>
</svg>
