<?xml version="1.0" encoding="utf-8"?>
<!-- Generator: Adobe Illustrator 24.2.1, SVG Export Plug-In . SVG Version: 6.00 Build 0)  -->
<svg version="1.1" id="Layer_1" xmlns="http://www.w3.org/2000/svg" xmlns:xlink="http://www.w3.org/1999/xlink" x="0px" y="0px"
	 viewBox="0 0 72 72" style="enable-background:new 0 0 72 72;" xml:space="preserve">
<path d="M31,27.1c-0.3,0.3-0.3,0.8,0,1.1c4.3,4.3,4.3,11.3,0,15.6c-0.3,0.3-0.3,0.8,0,1.1c0.3,0.3,0.8,0.3,1.1,0
	C37,40,37,32,32.1,27.1c0,0,0,0,0,0C31.8,26.8,31.4,26.8,31,27.1C31.1,27.1,31.1,27.1,31,27.1z"/>
<path d="M40.1,19.2c-0.3-0.3-0.8-0.3-1.1,0c-0.3,0.3-0.3,0.8,0,1.1c8.7,8.7,8.7,22.8,0,31.6c0,0,0,0,0,0c-0.3,0.3-0.3,0.8,0,1.1
	c0.3,0.3,0.8,0.3,1.1,0C49.4,43.5,49.4,28.5,40.1,19.2z"/>
<path d="M47.4,11.9c-0.3-0.3-0.8-0.3-1.1,0c-0.3,0.3-0.3,0.7,0,1C59,25.7,59,46.3,46.3,59.1c0,0,0,0,0,0c-0.3,0.3-0.3,0.8,0,1.1
	c0.1,0.1,0.3,0.2,0.5,0.2c0.2,0,0.4-0.1,0.5-0.2C60.7,46.8,60.7,25.2,47.4,11.9z"/>
<path d="M19.5,31.1c-2.7,0-4.9,2.2-4.9,4.9s2.2,4.9,4.9,4.9s4.9-2.2,4.9-4.9l0,0C24.5,33.3,22.3,31.1,19.5,31.1z M19.5,39.4
	c-1.9,0-3.4-1.6-3.4-3.5s1.6-3.4,3.5-3.4c1.9,0,3.4,1.5,3.4,3.4C23,37.9,21.5,39.4,19.5,39.4C19.6,39.4,19.6,39.4,19.5,39.4z"/>
</svg>
