<?xml version="1.0" encoding="utf-8"?>
<!-- Generator: Adobe Illustrator 24.2.1, SVG Export Plug-In . SVG Version: 6.00 Build 0)  -->
<svg version="1.1" id="Layer_1" xmlns="http://www.w3.org/2000/svg" xmlns:xlink="http://www.w3.org/1999/xlink" x="0px" y="0px"
	 viewBox="0 0 71.8 71.8" style="enable-background:new 0 0 71.8 71.8;" xml:space="preserve">
<g>
	<path d="M54.9,45.4c-2.7-1.3-4.4-4.1-4.3-7.1c0-3.8,2.5-5.7,4-6.9l1.6-1.2l-1.1-1.7c-3.3-5-8.7-5.5-10.9-5.5
		c-2.2,0.1-4.3,0.6-6.2,1.5c-0.5,0.2-1.1,0.4-1.7,0.6c-0.9-0.2-1.7-0.4-2.5-0.8c-1.6-0.7-3.3-1.1-5.1-1.2c-3.8,0-13.5,2.8-13.5,15.8
		c0,7.7,6,23.1,14,23.1h0.1c1.7-0.1,3.5-0.5,5.1-1.2c0.8-0.4,1.6-0.6,2.5-0.7c1.1,0,2.2,0.3,3.2,0.8c1.3,0.6,2.8,1,4.2,1
		c7.5,0,12.4-13.5,12.4-14.1C56.5,46.7,55.9,45.8,54.9,45.4z M44.2,60.4c-1.3,0-2.5-0.3-3.6-0.9c-1.2-0.6-2.5-0.9-3.8-0.9
		c-1,0.1-2.1,0.4-3,0.8c-1.4,0.6-3,1-4.5,1.1h0c-6.7,0-12.5-14.5-12.5-21.6c0-11.7,8.7-14.3,12-14.3c1.6,0.1,3.1,0.5,4.6,1.1
		c1,0.4,2,0.7,3,0.8c0.8-0.1,1.5-0.4,2.3-0.7c1.8-0.8,3.7-1.3,5.7-1.4c3.8-0.1,7.4,1.7,9.6,4.8l0.4,0.5l-0.5,0.4
		c-1.6,1.2-4.6,3.5-4.6,8c-0.1,3.5,1.9,6.8,5.1,8.4c0.7,0.4,1,0.6,1,1C55,48.6,50.4,60.4,44.2,60.4z"/>
	<path d="M35.2,22h0.6h0.4c2.3-0.1,4.4-1,6-2.6c2.3-2.4,3.6-5.6,3.4-8.9V9.8H45c-2.4,0-5.2,1.5-7.2,3.8c-2,2.1-2.9,4.9-2.6,7.7
		L35.2,22z M38.9,14.6c1.3-1.7,3.2-2.8,5.3-3.2c-0.1,2.6-1.1,5.1-3,7c-1.2,1.3-2.9,2-4.7,2.2C36.5,18.3,37.4,16.2,38.9,14.6z"/>
</g>
</svg>
