<?xml version="1.0" encoding="utf-8"?><svg xmlns="http://www.w3.org/2000/svg" xmlns:xlink="http://www.w3.org/1999/xlink"><symbol viewBox="0 0 71.8 71.8" id="icon-air-con" xmlns="http://www.w3.org/2000/svg"><path d="M59.9 43.8c-.1-.4-.5-.7-.9-.6l-7.9 1.7-13.9-9 13.8-9 7.9 1.7h.2c.4 0 .7-.2.7-.6.1-.4-.2-.8-.6-.9l-6.5-1.4 6.7-4.3c.3-.2.4-.7.2-1-.2-.3-.7-.4-1-.2L52 24.5l1.4-6.5c.1-.4-.1-.8-.5-.9-.4-.1-.8.1-.9.5v.1l-1.7 7.9-13.7 8.9V18.2l5.7-5.7c.3-.3.3-.8 0-1.1-.3-.3-.8-.3-1 0L36.7 16V8.1c0-.4-.3-.8-.8-.8s-.8.3-.8.8v8l-4.7-4.7c-.3-.3-.8-.3-1 0-.3.3-.3.8 0 1.1l5.7 5.7v16.2l-13.7-8.9-1.7-7.9c-.1-.4-.5-.7-.9-.6-.4.1-.7.5-.6.9l1.4 6.4L13 20c-.3-.2-.8-.1-1 .2-.2.3-.1.8.2 1l6.7 4.3-6.5 1.4c-.4.1-.7.5-.6.9.1.3.4.6.7.6h.2l7.9-1.7 13.8 9-13.9 9-7.9-1.7c-.4-.1-.8.2-.9.6-.1.4.2.8.6.9l6.4 1.3-6.6 4.3c-.3.2-.4.7-.2 1 .1.2.4.3.6.3h.4l6.7-4.3-1.4 6.5c-.1.4.2.8.6.9h.1c.4 0 .7-.2.7-.6l1.7-7.9 13.6-8.9v16.4l-5.7 5.7c-.3.3-.3.8 0 1.1.3.3.8.3 1.1 0l4.6-4.6v7.9c0 .4.3.8.8.8s.8-.3.8-.8v-8l4.7 4.7c.3.3.8.3 1.1 0 .3-.3.3-.8 0-1.1l-5.7-5.7V37.2l13.7 8.9 1.7 8c.1.3.4.6.7.6h.2c.4-.1.7-.5.6-.9l-1.4-6.5 6.7 4.3c.1.1.3.1.4.1.4 0 .8-.3.8-.7 0-.3-.1-.5-.3-.6L53 46l6.4-1.4c.4-.1.6-.4.5-.8z"/></symbol><symbol viewBox="0 0 71.8 71.8" id="icon-android-auto" xmlns="http://www.w3.org/2000/svg"><path d="M23.1 37.5c-2.1 0-3.8 1.7-3.8 3.8s1.7 3.8 3.8 3.8c1 0 2-.4 2.7-1.1.7-.7 1.1-1.7 1.1-2.7 0-2.1-1.7-3.8-3.8-3.8zm0 6.2c-1.3 0-2.3-1-2.3-2.3 0-1.3 1-2.3 2.3-2.3 1.3 0 2.3 1 2.3 2.3 0 1.2-1 2.3-2.3 2.3zM48.7 37.5c-2.1-.1-3.9 1.5-4 3.6s1.5 3.9 3.6 4h.4c2.1 0 3.8-1.7 3.8-3.8 0-2.1-1.7-3.8-3.8-3.8zm0 6.2c-1.3 0-2.4-1-2.4-2.3s1-2.4 2.3-2.4 2.4 1 2.4 2.3c0 1.3-1 2.4-2.3 2.4z"/><path d="M49.5 29.7l4.6-8c.3-.4.1-1-.3-1.3-.1-.1-.3-.1-.5-.1-.3 0-.6.2-.8.5l-4.7 8.1c-7.6-3.4-16.3-3.4-23.9 0l-4.7-8.1c-.2-.3-.5-.5-.8-.5-.2 0-.3 0-.5.1-.4.3-.6.8-.3 1.3l4.6 8C14.2 34.1 8.8 42.3 8 51.5h55.8c-.8-9.2-6.2-17.4-14.3-21.8zM23 31l.8-.4.8-.4c7.2-3.2 15.4-3.2 22.6 0l.8.4.8.4c7.2 3.9 12.1 10.9 13.3 19H9.7c1.2-8.1 6.1-15.1 13.3-19z"/></symbol><symbol viewBox="0 0 71.8 71.8" id="icon-apple-carplay" xmlns="http://www.w3.org/2000/svg"><path d="M54.9 45.4c-2.7-1.3-4.4-4.1-4.3-7.1 0-3.8 2.5-5.7 4-6.9l1.6-1.2-1.1-1.7c-3.3-5-8.7-5.5-10.9-5.5-2.2.1-4.3.6-6.2 1.5-.5.2-1.1.4-1.7.6-.9-.2-1.7-.4-2.5-.8-1.6-.7-3.3-1.1-5.1-1.2-3.8 0-13.5 2.8-13.5 15.8 0 7.7 6 23.1 14 23.1h.1c1.7-.1 3.5-.5 5.1-1.2.8-.4 1.6-.6 2.5-.7 1.1 0 2.2.3 3.2.8 1.3.6 2.8 1 4.2 1 7.5 0 12.4-13.5 12.4-14.1-.2-1.1-.8-2-1.8-2.4zm-10.7 15c-1.3 0-2.5-.3-3.6-.9-1.2-.6-2.5-.9-3.8-.9-1 .1-2.1.4-3 .8-1.4.6-3 1-4.5 1.1-6.7 0-12.5-14.5-12.5-21.6 0-11.7 8.7-14.3 12-14.3 1.6.1 3.1.5 4.6 1.1 1 .4 2 .7 3 .8.8-.1 1.5-.4 2.3-.7 1.8-.8 3.7-1.3 5.7-1.4 3.8-.1 7.4 1.7 9.6 4.8l.4.5-.5.4c-1.6 1.2-4.6 3.5-4.6 8-.1 3.5 1.9 6.8 5.1 8.4.7.4 1 .6 1 1-.4 1.1-5 12.9-11.2 12.9zM35.2 22h1c2.3-.1 4.4-1 6-2.6 2.3-2.4 3.6-5.6 3.4-8.9v-.7H45c-2.4 0-5.2 1.5-7.2 3.8-2 2.1-2.9 4.9-2.6 7.7v.7zm3.7-7.4c1.3-1.7 3.2-2.8 5.3-3.2-.1 2.6-1.1 5.1-3 7-1.2 1.3-2.9 2-4.7 2.2 0-2.3.9-4.4 2.4-6z"/></symbol><symbol viewBox="0 0 8 9" id="icon-arrow-right" xmlns="http://www.w3.org/2000/svg"><path d="M8 4.5L0 9V0l8 4.5z"/></symbol><symbol viewBox="0 0 71.8 71.8" id="icon-bluetooth" xmlns="http://www.w3.org/2000/svg"><path d="M52.5 23.3c0-.2-.1-.4-.2-.5l-14-14c-.3-.3-.8-.3-1 0-.1.1-.2.3-.2.5v24.2L20.5 16.9c-.4-.2-.8-.1-1 .3-.1.2-.1.5 0 .7L37 35.6V37L19.4 54.6c-.3.3-.3.7 0 1 .3.3.7.3 1 0L37 39.1v23.4c0 .4.3.7.7.7.2 0 .4-.1.5-.2l13.5-13.5c.3-.3.3-.7 0-1 0-.1-.1-.2-.2-.3L39.8 36.3l12.5-12.5c.2-.1.2-.3.2-.5zm-2.2 25.6L38.5 60.7V37.6l.3-.3 11.5 11.6zM38.8 35.2l-.3-.2V11l12.2 12.2-11.9 12z"/></symbol><symbol viewBox="0 0 71.8 71.8" id="icon-climate-control" xmlns="http://www.w3.org/2000/svg"><path d="M30.3 9c-.4 0-.8.3-.8.8v9.5l-4.7-4.8c-.3-.3-.8-.3-1.1 0-.3.3-.3.8 0 1.1l5.7 5.7h.1V35H17.8l-5.7-5.7c-.3-.3-.8-.3-1.1 0-.3.3-.3.8 0 1.1l4.6 4.6H7.8c-.4 0-.8.3-.8.8s.3.8.8.8h8l-4.7 4.7c-.3.3-.3.8 0 1.1.3.3.8.3 1.1 0l5.7-5.7h11.6v14.4L24 56.4c-.3.3-.3.8 0 1 .1.1.3.2.5.2s.4-.1.5-.2l4.5-4.5v8.7c0 .4.3.8.8.8s.8-.3.8-.8V9.8c-.1-.4-.4-.8-.8-.8zM64 35H53.8c-.2-3.9-1.8-7.6-4.5-10.5l6.8-6.8c.3-.3.3-.8 0-1.1-.3-.3-.8-.3-1.1 0l-6.7 6.8c-2.8-2.5-6.5-4-10.3-4.2V9.9c0-.4-.3-.8-.8-.8s-.8.3-.8.8v10.8h.8c8.3 0 15.1 6.8 15.1 15.1s-6.8 15.1-15.1 15.1h-.8v11c0 .4.3.8.8.8s.8-.3.8-.7v-9.5c4.1-.2 7.9-1.9 10.8-4.7l6.8 6.8c.1.1.3.2.5.2s.4-.1.5-.2c.3-.3.3-.8 0-1l-6.8-6.8c2.5-2.8 3.9-6.4 4-10.2H64c.4-.1.7-.5.6-.9-.1-.4-.3-.6-.6-.7z"/></symbol><symbol viewBox="0 0 72 72" id="icon-cruise-control" xmlns="http://www.w3.org/2000/svg"><path d="M38.2 37c-1.2-.7-2.8-.7-3.9.1l-5.2-5.2c-.3-.3-.8-.3-1.1 0-.3.3-.3.8 0 1.1l5.2 5.2c0 .1-.1.1-.1.2-1 1.8-.4 4.1 1.4 5.1s4.1.4 5.1-1.4c1.1-1.8.4-4.1-1.4-5.1zm.1 4.4c-.6 1.1-2 1.5-3.1.8s-1.5-2-.8-3.1c.6-1.1 2-1.5 3.1-.8.5.3.9.8 1 1.4.2.5.1 1.2-.2 1.7z"/><path d="M36.6 14.2c-13.9 0-25.2 11.6-25.2 25.8 0 6.5 2.4 12.8 6.8 17.6.1.2.3.2.5.2s.4-.1.5-.2l5.8-5.8c.3-.3.3-.8 0-1.1-.3-.3-.8-.3-1.1 0l-5.2 5.2c-3.8-4.4-5.8-10-5.9-15.8h7.3c.4 0 .8-.3.8-.8s-.3-.8-.8-.8h-7.3c.3-5.5 2.4-10.8 6-14.9l4.7 4.7c.3.3.8.3 1.1 0 .3-.3.3-.8 0-1.1l-4.7-4.7c4.2-4.3 10-6.8 16-7V23c0 .4.3.8.8.8s.8-.3.8-.8v-7.1-.2c5.5.2 10.8 2.3 14.9 6l-4.7 4.7c-.3.3-.3.8 0 1.1.3.3.8.3 1.1 0l4.7-4.7c4.2 4.3 6.7 10 7 16H53c-.4 0-.8.3-.8.8s.3.8.8.8h7.3c0 5.7-2.1 11.3-5.8 15.7L49.2 51c-.2-.3-.7-.4-1-.2-.3.2-.4.7-.2 1l.2.2 5.8 5.6c.1.1.3.2.5.2s.4-.1.5-.2c4.3-4.8 6.7-11.1 6.7-17.5.1-14.3-11.2-25.9-25.1-25.9zM15.9 20.2c.2-.1.3-.2.4-.4 0-.1.1-.2.1-.3v-4.3c0-.4-.3-.8-.8-.8s-.8.3-.8.8v2.5l-5.6-5.5c-.3-.3-.8-.3-1 0-.3.3-.3.8 0 1.1l5.6 5.5h-2.5c-.4 0-.8.3-.8.8s.3.8.8.8h4.3c.1-.2.2-.2.3-.2z"/></symbol><symbol viewBox="0 0 12 12" id="icon-featured" xmlns="http://www.w3.org/2000/svg"><path d="M6 0l1.6 4.4 4.4.2-3.5 2.9L9.7 12 6 9.4 2.3 12l1.2-4.5L0 4.6l4.4-.2L6 0z"/></symbol><symbol viewBox="0 0 72 72" id="icon-front-rear-sensors" xmlns="http://www.w3.org/2000/svg"><path d="M29.2 29c-.3-.3-.8-.3-1 0-3.9 3.8-3.9 10.1 0 14 .1.1.3.2.5.2s.4-.1.5-.2c.3-.3.3-.8 0-1.1a8.39 8.39 0 010-11.9c.3-.2.4-.7 0-1 .1 0 .1 0 0 0zM23.1 22.9c-.3-.3-.8-.3-1.1 0-7.3 7.3-7.3 19 0 26.3.3.3.8.3 1.1 0 .3-.3.3-.8 0-1.1-6.7-6.7-6.7-17.5 0-24.2.3-.3.3-.8 0-1z"/><path d="M10.1 36c0-6.7 2.6-13 7.3-17.7.3-.3.3-.8 0-1.1s-.8-.3-1.1 0C6 27.6 6 44.4 16.3 54.8c.1.1.3.2.5.2s.4-.1.5-.2c.3-.3.3-.8 0-1.1-4.6-4.7-7.3-11-7.2-17.7zM42.8 29c-.3.3-.3.8 0 1.1 3.3 3.3 3.3 8.6 0 11.9-.3.3-.3.8 0 1.1.1.1.3.2.5.2s.4-.1.5-.2c3.9-3.8 3.9-10.1 0-14-.3-.4-.7-.4-1-.1zM50 22.9c-.3-.3-.8-.3-1.1 0-.3.3-.3.7 0 1 6.7 6.7 6.7 17.5 0 24.2-.3.3-.3.8 0 1.1.3.3.8.3 1.1 0 7.3-7.3 7.3-19.1 0-26.3z"/><path d="M55.7 17.2c-.3-.3-.8-.3-1.1 0-.3.3-.3.7 0 1 9.8 9.8 9.8 25.7 0 35.5-.3.3-.3.8 0 1.1.3.3.8.3 1.1 0C66 44.4 66 27.6 55.7 17.2z"/></symbol><symbol viewBox="0 0 72 72" id="icon-heated-seats" xmlns="http://www.w3.org/2000/svg"><path d="M54.9 42.1c-1.1-.7-2.8-1.8-7.4-2.1-.7-2-1.1-4.1-1.2-6.2v-3.9l2.2 2.2c.1.1.3.2.5.2s.4-.1.5-.2c.3-.3.3-.8 0-1.1L46 27.5c-.3-.3-.8-.3-1 0L41.5 31c-.3.3-.3.8 0 1.1.3.3.7.3 1 0l2.2-2.1v3.9c0 2.1.4 4.1 1.1 6.1-1.4 0-3 0-4.8.2-1.4.1-2.5.2-3.5.4-.8-2.1-1.2-4.4-1.3-6.7V30l2.2 2.2c.1.1.3.2.5.2s.4-.1.5-.2c.3-.3.3-.8 0-1.1l-3.5-3.5c-.3-.3-.8-.3-1 0l-3.5 3.5c-.3.3-.3.8 0 1.1.3.3.7.3 1 0l2.2-2.2v3.9c.1 2.3.5 4.7 1.3 6.9-2 .4-4 1-5.8 1.9-.7-4.7-1.7-9.5-3-14.1-2.9-10.6-4.1-14-5.3-15.9-.6-.9-2.8-3.8-8.1-3.3-1.4.3-2.6 1.1-3.3 2.3-.6.9-.7 2-.5 3l9.7 36.7c0 .1.1.3.1.4 1 2.6 2.9 4.1 5.3 4.1h13.2c-1 3-2.2 5.9-3.5 8.8-.2.4 0 .8.3 1 .1.1.2.1.3.1.3 0 .6-.2.7-.4 1.5-3.1 2.7-6.2 3.8-9.4h8.5c-1 3-2.2 5.9-3.5 8.8-.2.4 0 .8.3 1 .1.1.2.1.3.1.3 0 .5-.2.7-.4 1.5-3.1 2.7-6.2 3.7-9.4h3.3c2.7 0 4.8-2.2 4.8-4.8v-3.6c.2-3-1.4-4.5-3-5.6zm-29.7 12c-1.8 0-3.1-1.1-3.9-3.2 0-.1-.1-.2-.1-.2L11.4 14c-.1-.6 0-1.3.3-1.8.5-.8 1.3-1.4 2.2-1.6h.9c3.7 0 5.4 2 5.8 2.7 1.1 1.8 2.2 5.1 5.1 15.5 1.3 4.9 2.4 9.8 3.2 14.8l.1 1 1.7-.8c1.8-.9 3.8-1.5 5.8-1.8l.8 2.1c1 2.6 1.9 5 1.9 7 0 1-.2 2-.5 2.9l-13.5.1zm15.2 0c.2-1 .4-1.9.4-2.9 0-2.2-1-4.8-2-7.5-.2-.6-.5-1.2-.7-1.8.9-.1 1.9-.2 3.1-.3 1.7-.2 3.5-.2 5.2-.2.3 1 .7 1.9 1 2.8 1 2.6 1.9 5 1.9 7 0 1-.2 2-.5 2.9h-8.4zm16.2-3.3c0 1.8-1.5 3.3-3.3 3.3h-2.9c.2-1 .4-1.9.4-2.9 0-2.2-1-4.8-2-7.5-.3-.7-.5-1.5-.8-2.2 3.7.3 5.1 1.2 6 1.8 1.6 1 2.6 2.1 2.6 3.9v3.6z"/></symbol><symbol viewBox="0 0 71.8 71.8" id="icon-leather-seats" xmlns="http://www.w3.org/2000/svg"><path d="M61.1 48.2c-.1-.2-.3-.3-.5-.4-6.8-1.8-11-8.8-9.2-15.6 1.2-4.5 4.7-8 9.2-9.2.2-.1.4-.2.5-.4.1-.2.1-.5 0-.7l-4.9-8.7c-.1-.2-.3-.4-.6-.4-.2 0-.5.1-.6.3-2.2 2.7-6.2 3-8.8.8-1.4-1.2-2.3-3-2.2-4.9v-.6c0-.2 0-.4-.2-.6-.1-.2-.3-.2-.5-.2H28.7c-.2 0-.4.1-.5.2-.1.2-.2.4-.2.6V9c0 3.5-2.8 6.3-6.3 6.2-1.8 0-3.5-.8-4.7-2.2-.3-.3-.7-.3-1.1-.1l-.2.2-4.8 8.7c-.1.2-.1.5 0 .7.1.2.3.4.5.4 6.8 1.8 11 8.8 9.2 15.6-1.2 4.5-4.7 8-9.2 9.2-.2.1-.4.2-.5.4-.1.2-.1.4 0 .6l3.2 8.1c.2.4.6.6 1 .4 6.5-2.5 13.9 0 17.5 6 .1.2.3.3.5.3l2.7.5h.2l2.7-.5c.2 0 .4-.2.5-.3 3.6-6 11-8.5 17.5-6 .4.2.8 0 1-.4l3.3-8.1c.2-.1.2-.3.1-.5zm-4.5 7.5c-6.9-2.3-14.6.4-18.5 6.6l-2.3.4-2.3-.4C29.6 56.1 22 53.4 15 55.7L12.4 49c7.5-2.4 11.6-10.5 9.2-18-1.4-4.3-4.8-7.7-9.1-9.2l4-7c3.2 2.9 8.1 2.6 11-.6 1.3-1.4 2-3.2 2-5.1h13c.1 4.3 3.5 7.7 7.8 7.7 1.9 0 3.7-.7 5.2-2l4 7c-7.5 2.5-11.6 10.6-9.1 18.1 1.4 4.3 4.8 7.7 9.2 9.1l-3 6.7z"/><path d="M24.4 22.1c-.3-.3-.7-.3-1-.1-.3.2-.4.7-.2 1.1.7.9 1.2 1.8 1.7 2.9.1.3.4.4.7.4.1 0 .2 0 .3-.1.4-.2.5-.6.4-1-.5-1.2-1.2-2.3-1.9-3.2zM28.4 32.2c0-.4-.4-.7-.8-.7s-.7.4-.7.8v.1c.1 1 .2 2 .2 3 0 1.3-.1 2.6-.3 3.8-.1.4.2.8.6.9h.1c.4 0 .7-.3.7-.6.2-1.3.3-2.7.3-4.1.1-1 0-2.1-.1-3.2zM25.7 45.6c-.4-.2-.8 0-1 .4-.5 1-1 2-1.6 3-.2.4-.1.8.3 1 .1.1.2.1.4.1.3 0 .5-.1.6-.4.6-1 1.2-2.1 1.6-3.2.2-.3.1-.7-.3-.9zM47.4 22.1c-.7 1-1.4 2-1.9 3.1-.2.4 0 .8.3 1 .1 0 .2.1.3.1.3 0 .6-.2.7-.4.5-1 1-2 1.7-2.9.2-.3.2-.7-.1-1-.3-.3-.7-.2-1 .1zM44.9 32.5c.1-.4-.2-.8-.6-.8-.4-.1-.8.2-.8.6-.1 1.1-.2 2.2-.2 3.2 0 1.4.1 2.7.3 4.1.1.4.4.6.7.6h.1c.4-.1.7-.5.6-.9-.2-1.3-.3-2.5-.3-3.8 0-1 0-2 .2-3zM47 46c-.2-.4-.6-.5-1-.4-.4.2-.5.6-.4 1 .5 1.1 1 2.1 1.6 3.2.2.4.7.5 1 .3s.5-.7.3-1c-.5-1-1-2.1-1.5-3.1zM42.6 51.1L38.5 54c-.3.2-.4.7-.2 1 .1.2.4.3.6.3.2 0 .3 0 .4-.1l4.1-2.9c.4-.2.5-.7.3-1s-.6-.4-1.1-.2c.1 0 0 0 0 0zM29.8 51.1c-.3-.2-.8-.2-1 .2-.2.3-.2.8.1 1l4 3c.1.1.3.2.5.2s.5-.1.6-.3c.2-.3.2-.8-.1-1l-4.1-3.1zM32.8 15l-4 3c-.3.3-.4.7-.1 1.1.1.2.4.3.6.3.2 0 .3-.1.5-.1l4-3c.3-.2.4-.7.2-1-.3-.5-.8-.6-1.2-.3.1 0 0 0 0 0zM42.6 19.2c.1.1.3.1.4.1.2 0 .5-.1.6-.3.2-.3.1-.8-.2-1l-4.1-2.9c-.3-.2-.8-.1-1 .2-.2.3-.1.8.2 1l4.1 2.9z"/></symbol><symbol viewBox="0 0 72 72" id="icon-privacy-glass" xmlns="http://www.w3.org/2000/svg"><path d="M57.3 18.6H28.7c-2.2 0-4.3 1.2-5.4 3.1L9 47.1c-1.1 2-.4 4.5 1.6 5.7.6.4 1.3.5 2.1.5h44.7c3.4 0 6.2-2.8 6.2-6.2V24.8c-.1-3.4-2.9-6.2-6.3-6.2zm-47 31.9c-.5-.8-.5-1.8 0-2.7l14.3-25.4c.8-1.5 2.4-2.4 4.1-2.4h28.6c2.6 0 4.7 2.1 4.7 4.7v10.8H29.9c-2.2 0-4.3 1.2-5.4 3.1l-7.4 13.2h-4.4c-1 .1-1.9-.4-2.4-1.3zm47 1.4H18.8l7-12.4c.8-1.5 2.4-2.4 4.1-2.4H62v10.1c0 2.6-2.1 4.7-4.7 4.7z"/><path d="M32.1 40.5c-.4-.2-.8-.1-1 .3l-3.7 6.5c-.2.4-.1.8.3 1 .1.1.2.1.4.1.3 0 .5-.1.7-.4l3.7-6.6c.1-.2 0-.7-.4-.9zM40 40.5c-.4-.2-.8-.1-1 .3l-3.7 6.5c-.2.4-.1.8.3 1 .1.1.2.1.4.1.3 0 .5-.1.7-.4l3.7-6.6c.2-.2 0-.7-.4-.9.1.1.1.1 0 0zM48 40.5c-.4-.2-.8-.1-1 .3l-3.7 6.5c-.2.4-.1.8.3 1 .1.1.2.1.4.1.3 0 .5-.1.7-.4l3.7-6.6c.1-.2 0-.7-.4-.9zM56 40.5c-.4-.2-.8-.1-1 .3l-3.7 6.5c-.2.4-.1.8.3 1 .1.1.2.1.4.1.3 0 .5-.1.7-.4l3.7-6.6c.1-.2 0-.7-.4-.9z"/></symbol><symbol viewBox="0 0 72 72" id="icon-rear-parking-sensors" xmlns="http://www.w3.org/2000/svg"><path d="M31 27.1c-.3.3-.3.8 0 1.1 4.3 4.3 4.3 11.3 0 15.6-.3.3-.3.8 0 1.1.3.3.8.3 1.1 0C37 40 37 32 32.1 27.1c-.3-.3-.7-.3-1.1 0 .1 0 .1 0 0 0zM40.1 19.2c-.3-.3-.8-.3-1.1 0-.3.3-.3.8 0 1.1 8.7 8.7 8.7 22.8 0 31.6-.3.3-.3.8 0 1.1.3.3.8.3 1.1 0 9.3-9.5 9.3-24.5 0-33.8z"/><path d="M47.4 11.9c-.3-.3-.8-.3-1.1 0-.3.3-.3.7 0 1C59 25.7 59 46.3 46.3 59.1c-.3.3-.3.8 0 1.1.1.1.3.2.5.2s.4-.1.5-.2c13.4-13.4 13.4-35 .1-48.3zM19.5 31.1c-2.7 0-4.9 2.2-4.9 4.9s2.2 4.9 4.9 4.9 4.9-2.2 4.9-4.9c.1-2.7-2.1-4.9-4.9-4.9zm0 8.3c-1.9 0-3.4-1.6-3.4-3.5s1.6-3.4 3.5-3.4S23 34 23 35.9c0 2-1.5 3.5-3.5 3.5.1 0 .1 0 0 0z"/></symbol><symbol viewBox="0 0 72 72" id="icon-remote-central-locking" xmlns="http://www.w3.org/2000/svg"><path d="M36 34.2c-3.3 0-6.1 2.7-6.1 6 0 3.1 2.3 5.7 5.4 6.1v7c0 .4.3.8.8.8.4 0 .8-.3.8-.8v-7c3.3-.4 5.7-3.4 5.3-6.7-.5-3.1-3.1-5.4-6.2-5.4zm0 10.6c-2.5 0-4.6-2-4.6-4.6 0-2.5 2-4.6 4.6-4.6 2.5 0 4.6 2 4.6 4.6 0 2.6-2.1 4.6-4.6 4.6z"/><path d="M51.3 27.6H48v-4.3c0-6.6-5.4-12-12-12s-12 5.4-12 12v4.3h-3.3c-1.9 0-3.5 1.6-3.5 3.5v26.1c0 1.9 1.6 3.5 3.5 3.5h30.6c1.9 0 3.5-1.6 3.5-3.5V31.1c0-1.9-1.5-3.5-3.5-3.5zm-25.8-4.3c0-5.8 4.7-10.5 10.5-10.5s10.5 4.7 10.5 10.5v4.3h-21v-4.3zm27.7 33.9c0 1.1-.9 2-2 2H20.7c-1.1 0-2-.9-2-2V31.1c0-1.1.9-2 2-2h30.6c1.1 0 2 .9 2 2l-.1 26.1z"/></symbol><symbol viewBox="0 0 71.8 71.8" id="icon-sat-nav" xmlns="http://www.w3.org/2000/svg"><path d="M65.9 6.4v-.2-.1c-.1 0-.1-.1-.2-.1l-.2-.2H64.9l-58.6 23c-.3.2-.5.5-.4.8 0 .3.3.6.6.7l29.2 5.2c.1.3.3.4.6.5l6.5 29.5c.1.3.3.6.7.6.3 0 .6-.2.7-.5L65.9 6.7v-.3c0 .1 0 .1 0 0zm-3.8 2.1L36.5 34.1 9.4 29.3 62.1 8.5zM43.7 62.6l-6-27.6L63.3 9.4 43.7 62.6z"/></symbol><symbol viewBox="0 0 72 72" id="icon-start-stop-engine" xmlns="http://www.w3.org/2000/svg"><path d="M36.3 13.8c-12.5 0-22.7 10.2-22.7 22.7s10.2 22.7 22.7 22.7S59 49 59 36.5 48.8 13.8 36.3 13.8zm0 43.9c-11.7 0-21.2-9.5-21.2-21.2s9.5-21.2 21.2-21.2 21.2 9.5 21.2 21.2S48 57.7 36.3 57.7z"/><path d="M43.2 29c-.3-.3-.8-.2-1.1.1-.3.3-.2.8.1 1.1 4 3.3 4.5 9.1 1.3 13.1s-9.1 4.5-13.1 1.3-4.5-9.1-1.3-13.1l1.2-1.2c.3-.3.4-.8.1-1.1-.3-.3-.8-.4-1.1-.1-4.5 3.9-5.1 10.7-1.3 15.2s10.7 5.1 15.2 1.3 5.1-10.7 1.3-15.2c-.4-.6-.8-1-1.3-1.4z"/><path d="M36.3 37.2c.4 0 .8-.3.8-.8V25.1c0-.4-.3-.8-.8-.8s-.8.3-.8.8v11.4c.1.4.4.7.8.7z"/></symbol><symbol viewBox="0 0 71.8 71.8" id="icon-virtual-cockpit" xmlns="http://www.w3.org/2000/svg"><path d="M17.1 25.7L17 13.3c0-.4-.3-.8-.8-.8s-.8.3-.8.8l.1 12.4c-3 .4-5.1 3.1-4.7 6.2.3 2.4 2.2 4.3 4.6 4.7v21.8c0 .4.3.8.8.8s.8-.3.8-.8V36.6c3-.4 5.2-3.1 4.8-6.1-.3-2.4-2.2-4.4-4.7-4.8zm-.7 9.5c-2.2 0-4-1.8-4-4s1.8-4 4-4 4 1.8 4 4-1.8 4-4 4zM36.5 36.3v-23c0-.4-.3-.8-.8-.8s-.7.4-.7.8v23c-3 .4-5.1 3.2-4.7 6.2.3 2.5 2.3 4.4 4.8 4.7v11.2c0 .4.3.8.8.8s.8-.3.8-.8V47.2c3-.5 5-3.3 4.5-6.3-.5-2.4-2.3-4.2-4.7-4.6zm-.7 9.5c-2.2 0-4-1.8-4-4s1.8-4 4-4 4 1.8 4 4c-.1 2.2-1.8 4-4 4zM60.9 30.9c0-2.7-2-5.1-4.7-5.4V13.4c0-.4-.3-.8-.8-.8s-.8.3-.8.8v12.1c-3 .4-5.1 3.2-4.7 6.2.3 2.4 2.2 4.3 4.7 4.7v22.1c0 .4.3.8.8.8s.8-.3.8-.8V36.3c2.7-.4 4.7-2.7 4.7-5.4zm-5.5 3.9c-2.2 0-4-1.8-4-4s1.8-4 4-4 4 1.8 4 4-1.8 4-4 4z"/></symbol><symbol viewBox="0 0 53.5 53.5" id="icon-wheel" xmlns="http://www.w3.org/2000/svg"><path d="M26.6 20.9c-3.2 0-5.7 2.6-5.7 5.7s2.6 5.7 5.7 5.7 5.7-2.6 5.7-5.7c0-3.2-2.5-5.7-5.7-5.7zm0 9.8c-2.3 0-4.1-1.8-4.1-4.1s1.8-4.1 4.1-4.1 4.1 1.8 4.1 4.1-1.8 4.1-4.1 4.1z"/><path d="M26.8 0C12 0 0 12 0 26.8s12 26.8 26.8 26.8 26.8-12 26.8-26.8C53.5 12 41.5 0 26.8 0zM7.4 10.6C11 6.2 16 3.2 21.6 2.1l.5-.1v11.5c0 1.1-.6 2-1.5 2.5-.6.3-1.2.5-1.9.5s-1.4-.2-2-.6L7.1 11l.3-.4zM2.7 33.9c-1.6-5.2-1.5-10.7.4-15.8l.2-.5 10.4 7.2c.7.9 1 2.1.8 3.2-.1 1-.6 2-1.5 2.6L2.9 34.3l-.2-.4zm19.4 17.3l-.5-.1c-5.7-1.2-10.8-4.3-14.5-8.9l-.3-.4 10.7-4.5c1-.5 2.1-.4 3.1.2.9.6 1.5 1.6 1.5 2.7v11zm24-9c-3.6 4.6-8.8 7.7-14.5 8.9l-.5.1V40.1c0-1.1.6-2.1 1.5-2.7 1-.6 2.2-.6 3.2-.1l10.6 4.5-.3.4zm4-24.1c1.9 5.1 2 10.6.4 15.8l-.1.4-10.3-3.7c-.8-.6-1.4-1.6-1.5-2.6-.2-1.1.1-2.3.8-3.1l10.4-7.1.3.3zm-2.8-5.5c.2.2.3.5.4.7l.3.5c.1.2.2.4.3.5s.2.4.3.7l.1.2.2.4.2.5-10.9 7.5c-1.1 1.2-1.6 2.9-1.3 4.6.2 1.6 1.1 3 2.4 3.8l10.4 3.8-.2.4c-.2.5-.5 1-.7 1.5v.1c-.2.4-.5.8-.7 1.3-.2.3-.3.6-.5.9l-.2.3-10.9-4.6c-1.5-.7-3.2-.6-4.7.3-1.4.9-2.3 2.4-2.3 4.1v11.3h-.9c-.6.1-1.3.1-2 .1s-1.3 0-1.9-.1h-1V40.1c0-2.7-2.2-4.8-4.8-4.8-.7 0-1.4.2-2.1.5l-11 4.7-.2-.3-.6-.9c-.3-.5-.5-1-.8-1.4-.3-.5-.5-1-.7-1.5l-.2-.4 10.6-4c1.3-.9 2.2-2.3 2.4-3.9.3-1.7-.2-3.3-1.3-4.6L4 16.1l.2-.5.2-.4.1-.1c.1-.2.2-.5.4-.7s.2-.4.3-.5l.3-.5c.2-.2.3-.5.4-.7l.2-.3 9.9 5c.8.5 1.8.8 2.8.8.9 0 1.9-.2 2.7-.7 1.4-.8 2.4-2.3 2.3-3.9V1.8h.9c1.3-.1 2.6-.1 3.9 0h1v11.7c0 1.5.7 2.8 1.9 3.6.9.6 2 .9 3.1.8.9 0 1.8-.2 2.7-.6l10-5v.3zM46.1 11l-9.7 4.9c-.6.3-1.3.4-2 .4-.8 0-1.5-.2-2.2-.6-.8-.5-1.2-1.3-1.2-2.2V2l.5.1c5.6 1.1 10.6 4.1 14.2 8.5l.4.4z"/></symbol></svg>