<svg xmlns="http://www.w3.org/2000/svg" id="citroen" viewBox="0 0 24 24">
    <path fill="currentColor" d="M12 6.789c-3.067 0-10.469 6.356-11.397 7.163a.367.367 0 0 1-.31.107c-.232-.026-.239-.38-.239-.38S0 12.87 0 12.058c0-1.025.8-1.921.8-1.921S9.095 1 12 1c2.904 0 11.2 9.138 11.2 9.138s.8.896.8 1.92c0 .813-.055 1.62-.055 1.62s-.007.355-.238.381a.367.367 0 0 1-.31-.107C22.468 13.145 15.067 6.79 12 6.79zm0 8.407c-3.067 0-10.469 6.356-11.397 7.164a.367.367 0 0 1-.31.107c-.232-.027-.239-.38-.239-.38S0 21.279 0 20.467c0-1.025.8-1.921.8-1.921S9.095 9.408 12 9.408c2.904 0 11.2 9.138 11.2 9.138s.8.896.8 1.92c0 .813-.055 1.62-.055 1.62s-.007.354-.238.38a.367.367 0 0 1-.31-.106c-.929-.808-8.33-7.164-11.397-7.164z"></path>
</svg>
