<svg xmlns="http://www.w3.org/2000/svg" id="dacia" viewBox="0 0 24 24">
    <path fill="currentColor" d="M1.19,1.75l-.48.06-.2,0a.68.68,0,0,0-.5.74l.1.5q.45,2.59,1.1,5.14l.42,1.54.6,2.12L2.9,14c.25.77,1,3,1.17,3.36a8.64,8.64,0,0,0,2.55,3.89c1.26,1,2.61,1.33,5.38,1.33s4.13-.34,5.39-1.33a8.58,8.58,0,0,0,2.55-3.89c.14-.36.92-2.59,1.17-3.35l.66-2.11.62-2.12.4-1.54c.43-1.7.81-3.41,1.12-5.13L24,2.58V2.5a.68.68,0,0,0-.5-.66l-.2,0-.47-.06C21.2,1.61,16.12,1.44,12,1.44S2.81,1.61,1.19,1.75ZM6.86,20.9a8.25,8.25,0,0,1-2.43-3.71c-.14-.36-.92-2.58-1.16-3.32l-.65-2.08L2,9.69l-.4-1.5Q1,5.67.51,3.11l-.1-.47a.37.37,0,0,1,.3-.4l.15,0,.46-.05C2.92,2,7.94,1.85,12,1.85s9.09.16,10.69.3l.46.05.16,0a.36.36,0,0,1,.27.4l-.08.5Q23,5.68,22.4,8.19L22,9.69l-.6,2.1-.66,2.08c-.24.74-1,3-1.15,3.31a8.28,8.28,0,0,1-2.44,3.72c-1,.83-2.14,1.25-5.15,1.25S7.89,21.71,6.86,20.9Z"></path><path fill="currentColor" class="cls-1" d="M22.59,2a52.91,52.91,0,0,1-1.9,5.48,17.56,17.56,0,0,1-3.1,4.74h-.18c-2,.1-3.93.16-5.41.16s-3.4-.05-5.4-.15H6.43A18.06,18.06,0,0,1,3.31,7.42,49.94,49.94,0,0,1,1.41,2l-.27.06c.13.72.37,1.54.55,2.21l.15.52q1.21,4.38,2.75,8.66c.39,1,.75,1.91,1.11,2.75A8.84,8.84,0,0,0,7,18.52,4.38,4.38,0,0,0,9.16,20a9,9,0,0,0,2.84.34A8.87,8.87,0,0,0,14.84,20,4.44,4.44,0,0,0,17,18.52a9,9,0,0,0,1.32-2.3,70.94,70.94,0,0,0,3-8.5c.3-1,.58-1.95.85-2.91l0-.12.09-.33c.2-.71.42-1.51.56-2.25l0-.12ZM17.25,12.55l0,.1,0,.08-.12.33-.21.53-.06.14-.55,1.35,0,.09c-.17.4-.36.82-.57,1.21a3.45,3.45,0,0,1-.8,1,2.5,2.5,0,0,1-1.15.53,7.64,7.64,0,0,1-1.4.12h-.58a6.57,6.57,0,0,1-1.4-.12,2.64,2.64,0,0,1-1.16-.53,3.42,3.42,0,0,1-.78-1,12.65,12.65,0,0,1-.55-1.18l-.06-.12c-.28-.67-.55-1.35-.81-2l0-.08-.09-.24,0-.08,0-.1c1.94.1,3.8.15,5.24.15S15.3,12.65,17.25,12.55Z"></path><path fill="currentColor" class="cls-1" d="M17.42,5.15a.55.55,0,0,0-.3.16,4,4,0,0,0-.32.59l-.49,1L16,7.6h.8L17,7.15h1.67l.22.45h.78l-.3-.67-.48-1a6.53,6.53,0,0,0-.32-.6.59.59,0,0,0-.3-.14,1.64,1.64,0,0,0-.88,0Zm.32.49a.11.11,0,0,1,.12,0c.07,0,.09,0,.1,0l.54,1.13H17.2Z"></path><path fill="currentColor" class="cls-1" d="M9.06,5.15a.63.63,0,0,0-.3.16,3.54,3.54,0,0,0-.31.59L8,6.93l-.3.67h.8l.21-.45h1.66l.22.45h.78L11,6.93l-.48-1a5.59,5.59,0,0,0-.31-.6.49.49,0,0,0-.3-.14,1.64,1.64,0,0,0-.88,0Zm.33.49a.13.13,0,0,1,.11,0c.07,0,.1,0,.1,0l.55,1.13H8.85Z"></path><path fill="currentColor" class="cls-1" d="M14.82,7.6h.73V5.1h-.73Z"></path><path fill="currentColor" class="cls-1" d="M12.75,5.11a1.3,1.3,0,0,0-1,.4,1.26,1.26,0,0,0-.32.87,1.16,1.16,0,0,0,.32.84,1.33,1.33,0,0,0,1,.38h1.52V7.13H12.88a.63.63,0,0,1-.5-.26,1,1,0,0,1-.17-.54.83.83,0,0,1,.17-.52.59.59,0,0,1,.5-.24h1.39V5.11Z"></path><path fill="currentColor" class="cls-1" d="M4.39,5.11v2.5H6.21a1.34,1.34,0,0,0,1-.39,1.17,1.17,0,0,0,.32-.84,1.18,1.18,0,0,0-.33-.87,1.25,1.25,0,0,0-1-.4Zm.73.46h1a.59.59,0,0,1,.5.24.76.76,0,0,1,.17.52.87.87,0,0,1-.17.54.61.61,0,0,1-.5.26h-1Z"></path>
</svg>
