<svg xmlns="http://www.w3.org/2000/svg" id="fiat" viewBox="0 0 24 24">
    <path fill="currentColor" d="M21.921 10.207c0-1.515-.237-2.81-.728-3.956a4.583 4.583 0 0 0-1.785-2.082 13.944 13.944 0 0 0-6.539-2.122c-.27-.016-.545-.026-.818-.026h-.02c-.273 0-.548.01-.818.026a13.955 13.955 0 0 0-6.54 2.122 4.583 4.583 0 0 0-1.785 2.084C2.4 7.399 2.16 8.692 2.16 10.207c0 .817.068 1.689.207 2.665.273 1.926.988 3.938 1.67 5.323.145.296.26.496.491.7.322.286.607.357.712.295.083-.048.13-.3.114-.67-.015-.322-.078-.532-.174-.84a36.358 36.358 0 0 1-1.23-5.502c-.385-2.664-.37-5.061.202-6.522.076-.192.158-.334.222-.426.061-.09.106-.136.106-.136 1.183-1.183 4.378-1.777 7.574-1.777 3.196 0 6.392.594 7.575 1.777 0 0 .044.046.106.136.062.092.145.234.221.426.573 1.46.588 3.858.202 6.522a36.387 36.387 0 0 1-1.202 5.416c-.116.375-.19.607-.205.924-.017.37.03.623.115.672.103.062.387-.008.706-.291.183-.162.276-.31.39-.532.703-1.385 1.466-3.485 1.753-5.495.14-.976.206-1.848.206-2.665M17.154 20.712c-.02-.073-.35-.02-.733.064-.088.018-.362.082-.633.157-.244.067-.484.12-.598.143-.94.183-2.002.284-3.122.284h-.028c-1.119 0-2.18-.101-3.12-.284a8.273 8.273 0 0 1-.562-.134c-.254-.067-.514-.125-.605-.148-.419-.095-.797-.162-.819-.082-.025.093.162.288.402.471a2.3 2.3 0 0 0 .358.22c.15.075.321.129.387.15 1.1.355 2.351.503 3.95.503h.021c1.566 0 2.8-.143 3.885-.483.372-.117.591-.212.855-.42.22-.173.386-.354.362-.44"></path>
    <path fill="currentColor" d="M18.562 8.636h-.983l-.276 8.261h-1.134l.04-8.252v-.009h-.998V7.558l3.35-.013v1.091zm-3.22 7.783l-.01.478h-1.064v-.014c0-.034-.01-3.409-.14-4.205v-.008h-1.421l-.01 4.222h-1.093l-.11-9.334h2.739C15.472 9.95 15.39 14 15.342 16.42zm-4.592.478H9.59L9.41 7.548l1.368-.003-.027 9.352zM8.897 8.66H7.585v2.89h1.018v1.1H7.585l.017 4.248-1.125-.012-.267-9.338 2.687.017V8.66zm10.6-2.712a1.862 1.862 0 0 0-.19-.369c-.046-.066-.077-.1-.077-.1-1.07-1.072-4.068-1.653-7.176-1.653-3.106 0-6.105.581-7.175 1.653 0 0-.032.034-.078.1a1.862 1.862 0 0 0-.19.37c-.532 1.354-.555 3.624-.181 6.201.322 2.227.88 4.623 1.664 6.701.129.348.246.48.529.7A6.236 6.236 0 0 0 9.06 20.58c.897.174 1.91.272 2.98.272h.027c1.07 0 2.083-.098 2.98-.272a6.238 6.238 0 0 0 2.438-1.028c.283-.22.4-.352.53-.7.783-2.078 1.34-4.474 1.664-6.7.373-2.578.35-4.848-.182-6.203z"></path>
    <path fill="currentColor" d="M13.908 10.463c-.145-.81-.32-1.431-.52-1.85l-.001-.003h-.021l-.684-.008h-.008l-.028 3h1.429l-.001-.01c-.001-.007-.057-.524-.166-1.129"></path>
    <path fill="currentColor" d="M12 .33c6.431 0 11.665 5.23 11.668 11.663a2.072 2.072 0 0 0-.503-.504c-.618-.444-.937-1.99-.998-2.586l-.004-.006c.042.419.063.855.063 1.31 0 .83-.07 1.718-.209 2.708-.414 2.899-1.816 6.002-2.643 6.956l-.053.057-.186.197-.009.006c-2.013 1.646-3.864 2.23-7.075 2.23h-.02c-3.212 0-5.064-.584-7.077-2.23l-.008-.006-.192-.203-.046-.05c-.825-.951-2.23-4.058-2.643-6.957a19.141 19.141 0 0 1-.209-2.708c0-.428.031-.824.07-1.22l-.013.063c-.059.596-.238 1.593-.894 1.98a1.715 1.715 0 0 0-.686.78C.434 5.465 5.628.33 12 .33M12 0C5.383 0 0 5.384 0 12c0 6.617 5.384 12 12 12 6.617 0 12-5.383 12-12 0-6.616-5.383-12-12-12"></path>
</svg>
