<svg id="genesis" xmlns="http://www.w3.org/2000/svg" viewBox="0 0 929.91 197.19"><g id="Layer_1-2"><g><path d="M443.76,2.19c-11,2.3-36.6,9.8-69.8,20.4l-14.5,4.6-27-.1c-28.3-.2-69.2-1.8-214.5-8.4C-8.74,12.89-.54,13.09,.46,14.79c5.2,8.8,15.5,15.9,26.1,17.8,10.8,2.1,48.5,5.7,170.9,16.6,34.1,3.1,70.1,6.4,80,7.5,51.8,5.7,62.5,10.7,77.2,35.9,14.8,25.5,21.8,35.8,33.9,49.5,14.9,16.9,42,37.4,65.7,49.6l10.7,5.5,10.7-5.5c23.4-12,50.8-32.7,65.7-49.6,12.1-13.7,19.1-24,33.9-49.5,14.7-25.2,25.4-30.2,77.2-35.9,9.9-1.1,45.9-4.4,80-7.5,122.4-10.9,160.1-14.5,170.9-16.6,10.6-1.9,20.9-9,26.1-17.8,1-1.7,9.2-1.9-117.5,3.9-117.5,5.3-179.3,7.9-210,8.6-30,.7-25.5,1.5-69.3-12C493.66,3.19,481.86,.49,466.96,.09c-9.4-.3-13.7,.1-23.2,2.1Zm47.4,18.6c21.1,5.3,47.3,14,58.5,19.4,11.2,5.5,13.9,8.6,13.6,16-.3,12-15.7,47.1-28.1,64.4-7.6,10.7-22.9,26.5-34.7,36-9.5,7.7-31,21.9-34.3,22.8-4.1,1-27-14.2-44.4-29.4-17.7-15.5-31.1-33-41.4-54-5.6-11.5-12.9-31.7-13.9-38.8-1.3-8.6,4.9-14,24.5-21.6,16.7-6.5,50.9-16.2,68-19.3,5.3-.9,17.1,.7,32.2,4.5Z"/><path d="M392.86,61.99c-4.7,3.1-6.6,9.1-4.7,14.9,2.3,7.5,10.8,10.8,19.7,7.7,3-1.1,3.1-1.3,3.1-7v-5.9h-4.5c-4.4,0-6,1.5-3,2.6,.9,.4,1.5,1.9,1.5,4,0,3.1-.2,3.4-3,3.4-7.1,0-10.6-9.4-5.9-15.5,1.9-2.3,2.8-2.6,6.3-2.3,2.3,.3,4.9,.8,5.9,1.2,1.4,.7,1.7,.3,1.7-1.7,0-2.8-2-3.7-9.1-3.7-3.1,0-5.7,.7-8,2.3Z"/><path d="M414.66,60.39c-.4,.3-.3,1.1,.3,1.8,.5,.6,1.1,6,1.2,12.1l.3,10.9,8.8,.3c8.2,.3,8.7,.2,8.7-1.8,0-1.8-.6-2-6.1-2h-6l.3-3.8q.3-3.7,5.1-4c3.3-.2,4.7-.7,4.7-1.8,0-1-1.3-1.4-5-1.4h-5v-7h6.1c5.2,0,6-.2,5.5-1.6-.3-.9-.6-1.8-.6-2,0-.7-17.6-.4-18.3,.3Z"/><path d="M437.36,60.89c-.4,.6-.2,1.4,.4,1.6,.8,.2,1.2,3.9,1.2,11.9,0,11.3,0,11.4,2.3,11.1,2-.3,2.2-1,2.7-7.2l.5-7,5.8,7.3c4.5,5.5,6.4,7.1,8,6.9,2.1-.3,2.2-.8,2.2-12.8s-.1-12.5-2.2-12.8-2.2,.1-2.5,7.7l-.3,8.1-6.3-8c-4.7-6.1-6.8-8-8.6-8-1.4,0-2.8,.5-3.2,1.2Z"/><path d="M464.96,61.09c0,.8,.5,1.8,1,2.1,.6,.4,1,5.3,1,11.6v10.9h8.5c7.8,0,8.5-.2,8.5-2s-.7-2-5.5-2h-5.5v-8h5c3.8,0,5-.4,5-1.5s-1.2-1.5-5-1.5h-5v-7h5.6c4.7,0,5.5-.3,5.2-1.8-.3-1.4-1.7-1.7-9.6-2-7.6-.2-9.2,0-9.2,1.2Z"/><path d="M491.16,60.69c-1.2,.5-2.7,2.1-3.2,3.6-1.5,3.9,.7,7.4,6.5,10.6,5.8,3.1,6.7,6.1,2.2,6.6-1.6,.2-4.2-.1-5.8-.7-2.9-1-3-.9-2.7,1.7s.6,2.7,6.4,3c4.9,.2,6.5-.1,8.7-1.8,5.1-4,3.3-9.7-4.3-13.5-3.6-1.8-5-3.1-5-4.7,0-1.9,.4-2,5.5-1.5,4.9,.5,5.5,.3,5.5-1.3,0-1-.7-2.1-1.6-2.4-2.3-.9-9.5-.6-12.2,.4Z"/><path d="M509.36,60.89c-.4,.6-.2,1.4,.4,1.6,.8,.2,1.2,3.9,1.2,11.8v11.4h6v-26h-3.4c-1.9,0-3.8,.5-4.2,1.2Z"/><path d="M525.86,61.19c-5.8,3.2-4.1,9.4,3.6,13.4,3.4,1.8,5,3.3,5,4.6,0,2.4-4.1,3.2-8.6,1.6-2.9-1-3-.9-2.7,1.7s.6,2.7,6.4,3c7.6,.4,11.4-2.1,11.4-7.2,0-3.6-1.3-5.1-7.7-8.6-2.8-1.5-4.3-3.1-4.3-4.3,0-1.8,.5-1.9,5.5-1.4,4.9,.5,5.5,.3,5.5-1.3,0-1-.7-2.1-1.6-2.4-2.8-1.1-9.8-.6-12.5,.9Z"/><path d="M29.16,45.49c.2,.5,3.7,3.9,7.8,7.7,29.6,27,51.2,35.2,106,39.9,25,2.2,59.1,4.3,100.5,6.1,19.8,.9,38.4,2.1,41.4,2.7,3.7,.7,6.4,2,9,4.3,2,1.8,3.3,3.6,3,3.9-.6,.6-72.7-.6-113.4-1.9-12.8-.4-18.7-.3-18,.4,2.3,2.3,52.3,16.3,79.9,22.4l14.1,3.1,39,.1c42.3,.1,42,.1,47.4,5.8l2.3,2.5-4.3,.6c-4.9,.6-32.4,2.6-36,2.6-1.4,0-1.9,.4-1.3,.9,1.1,1.2,36.6,10.9,52.4,14.5,14.7,3.2,40,7.9,40.5,7.4,.2-.2-2.1-2.4-5.2-4.8-12.9-10.3-27.5-28-46.4-56-9.8-14.6-19.8-25.5-26.7-29.3-9.3-5-30.4-8.7-75.2-13.2C129.76,53.79,34.76,44.69,30.46,44.69c-.9,0-1.5,.4-1.3,.8Z"/><path d="M857.96,48.29c-19.5,1.8-58.7,5.6-87,8.4s-65.2,6.4-82,8.1c-49.7,4.8-70.6,8.4-80.2,13.6-6.9,3.8-16.9,14.7-26.7,29.3-18.9,28-33.5,45.7-46.4,56-3.1,2.4-5.4,4.6-5.2,4.8,.5,.5,25.8-4.2,40.5-7.4,15.8-3.6,51.3-13.3,52.4-14.5,.6-.5,.1-.9-1.3-.9-3.6,0-31.1-2-36-2.6l-4.3-.6,2.3-2.5c5.4-5.7,5.1-5.7,47.4-5.8l39-.1,14.1-3.1c27.5-6.1,77.6-20.1,79.9-22.4,.7-.7-5.1-.8-17.5-.4-39.2,1.2-113.3,2.5-113.9,1.9-.3-.3,1-2.1,3-3.9,2.6-2.3,5.3-3.6,9-4.3,3-.6,21.6-1.8,41.4-2.7,41.4-1.8,75.4-3.9,100.5-6.1,54.7-4.7,76.4-12.9,106-39.9,4.1-3.8,7.7-7.2,7.8-7.7,.5-1.2-3.8-.9-42.8,2.8Z"/></g></g></svg>