<svg id="ldv" xmlns="http://www.w3.org/2000/svg" viewBox="0 0 1712.49 670.14"><g id="Layer_1-2"><g><path d="M1482,195.19c-1.98-2.31-3.23-3.95-4.67-5.4-10.79-10.96-21.72-21.79-32.38-32.88-3.15-3.27-6.48-5-11-4.47-1.54,.18-3.13,.03-4.69,.03-390.06,0-780.12,.02-1170.19-.17-8.15,0-14.31,2.08-20.27,7.55-10.94,10.04-22.59,19.31-33.75,29.12-3.57,3.14-7.26,4.43-12,4.41-53.19-.12-106.38-.06-159.57-.09-8.14,0-11.21-2.86-12.17-10.89-1-8.34,1.7-15.29,7.45-21.35,12.03-12.67,23.81-25.57,35.87-38.21,30.41-31.89,61.04-63.57,91.31-95.59,14.33-15.15,32.18-22.7,52.24-25.7C216.12,.36,224.27,.06,232.32,.06,642.72-.01,1053.12,0,1463.52,.01c5.47,0,10.96,.08,16.4,.5,18.04,1.38,32.68,9.75,45.29,22.28,26.83,26.63,53.79,53.14,80.52,79.87,11.24,11.24,22.17,22.81,33.02,34.43,12.54,13.43,19.13,29.62,21.21,47.75,.18,1.55,.22,3.13,.16,4.68-.04,1.01-.38,2.01-.74,3.82-3.5,.25-7.04,.72-10.59,.72-38.85,.05-77.7,.16-116.55-.1-6.35-.04-10.49,1.93-14.53,6.86-39.61,48.44-79.47,96.67-119.28,144.96-1.64,1.99-3.41,3.87-5.06,5.72-5.08-2.59-14.21-12.41-20.72-22.34,36.14-44.29,72.49-88.84,109.34-133.99Z"/><path d="M1456.59,479.24c-3.06,3.98-4.9,6.45-6.82,8.86-34.69,43.69-69.4,87.37-104.06,131.08-4.37,5.51-8.66,11.11-12.66,16.89-14.27,20.6-34.65,30.24-58.88,32.46-12.17,1.12-24.45,1.5-36.67,1.5-271.15,.08-542.3,.05-813.44,.1-16.1,0-31.64-2.29-46.42-8.93-15.56-6.99-28.36-17.46-38.85-30.78-21.79-27.64-43.53-55.32-65.16-83.07-15.55-19.94-30.91-40.03-46.32-60.08-1.67-2.18-3.12-4.52-5.31-7.72,3.29-.41,5.24-.87,7.18-.87,57.36-.03,114.72,.02,172.07-.08,4.5,0,7.89,1.36,11.11,4.48,9.37,9.06,19.08,17.76,28.43,26.84,3.6,3.49,7.36,5.58,12.47,5.06,2.32-.24,4.69-.04,7.04-.04,252.64,0,505.27,0,757.91,0,1.56,0,3.14-.14,4.69,.02,5.86,.64,10.33-1.32,14.46-5.75,8.17-8.77,17.06-16.86,25.36-25.51,3.52-3.67,7.27-5.17,12.38-5.16,57.62,.14,115.24,.09,172.86,.11,2.25,0,4.5,.29,8.63,.58Z"/><path d="M500.81,468.46V205.32c7.38-2.35,184.92-2.3,192.54,.23v188.07c2.96,.45,4.96,1.02,6.95,1.02,49.02-.13,98.04-.09,147.06-.66,14.15-.17,27.82-3.95,40.5-10.58,24.21-12.67,34.6-35.93,29.54-62.28-2.82-14.72-12.25-25.07-25.16-32.26-12.27-6.84-25.64-10.31-39.52-11.28-13.76-.96-27.59-1.35-41.39-1.45-30.77-.2-61.54-.05-92.31-.08-3.05,0-6.1-.25-9.72-.42-.27-3.17-.66-5.7-.67-8.24-.05-18.25-.07-36.51-.01-54.76,.03-8.45,.47-8.95,8.82-8.95,58.41-.01,116.82-.43,175.23,.23,44.23,.5,87.78,6.47,129.75,21.31,20.49,7.25,40.18,16.26,57.39,29.7,8.17,6.38,16.11,13.4,22.76,21.31,31.28,37.16,29.43,88.51-4,123.79-16.86,17.8-37.76,29.35-60.21,38.34-27.96,11.2-57.16,17.72-86.86,22.16-43.41,6.49-87.1,8.09-130.94,8-102.74-.2-205.48-.06-308.22-.06h-11.54Z"/><path d="M1391.74,370.23c2.16-2.42,3.75-4.1,5.23-5.86,42.89-51.13,85.83-102.22,128.56-153.5,4.21-5.05,8.47-7.39,15.2-7.36,53.71,.25,107.42,.13,161.12,.17,3,0,6.01,.38,10.65,.7-2.42,3.35-3.77,5.44-5.32,7.36-68.11,83.72-136.27,167.41-204.3,251.21-3.29,4.05-6.76,5.63-11.94,5.62-62.83-.15-125.67-.15-188.5,0-5.16,.01-8.67-1.52-11.98-5.57-68.44-83.8-137-167.49-205.52-251.22-1.45-1.77-2.68-3.73-4.52-6.32,2.2-.72,3.72-1.49,5.32-1.67,2.32-.26,4.69-.12,7.03-.12,51.62,0,103.25,.16,154.86-.18,8.08-.05,13.33,2.26,18.41,8.71,39.81,50.61,80.02,100.91,120.11,151.3,1.6,2.02,3.29,3.97,5.59,6.74Z"/><path d="M0,467.54V204.55c3.06-.32,5.81-.86,8.57-.87,58.38-.05,116.76-.04,175.14-.03,1.04,0,2.08,.06,3.13,.05,3.77-.04,5.9,1.55,5.77,5.59-.08,2.34,.03,4.69,.03,7.04,0,57.6,0,115.19,0,172.79,0,3.34,0,6.68,0,10.8,4.32,.24,7.85,.61,11.39,.61,80.53,.03,161.06,.03,241.6,.02,14.35,0,12.95-.55,12.99,13.27,.04,14.86,0,29.71,0,44.57,0,2.82,0,5.63,0,7.44-1.07,1.2-1.22,1.42-1.42,1.59-.19,.16-.41,.38-.63,.41-1.79,.23-3.59,.6-5.39,.6-149.08,0-298.15-.03-447.23-.08-1,0-1.99-.39-3.94-.81Z"/><path d="M208.14,212.75c45.83,58.76,91.66,117.53,138.6,177.85-4.58,.38-7.04,.77-9.5,.77-40.62,.04-81.25,.03-121.87,.02-1.3,0-2.6-.08-3.91-.06-3.81,.06-5.87-1.58-5.69-5.6,.08-1.82-.02-3.64-.02-5.47,0-52.86,0-105.73,0-158.59,0-2.77,0-5.55,0-8.32,.8-.21,1.6-.41,2.39-.62Z"/></g></g></svg>