<svg xmlns="http://www.w3.org/2000/svg" id="mahindra" viewBox="0 0 24 24">
    <path fill="currentColor" d="M12.1,6.5c-6,0-11.4,2.1-12.1,4.8c-0.4,1.8,1.5,3.7,4.4,4.8c3.4-3.1,7.3-6.4,12.3-8.6c-4.6,3-8,6.2-10.7,9.2
	c0.9,0.2,1.9,0.5,3,0.6c1.5-2.4,3.3-5.4,8.4-9.7c-3.7,4.4-5.4,7.1-6.9,9.9c5.5,0.5,11.9-0.2,13.4-5c0.7-2.9-4.1-5.5-10.6-5.8
	C12.9,6.5,12.5,6.5,12.1,6.5L12.1,6.5z M11.9,6.9c2.4,0,4.4,0.2,4.4,0.2c-4.7,1.7-8.1,3.4-12.5,5.9c0,0-3.5-0.5-0.9-3.4
	C4.7,7.5,8.8,7,11.9,6.9L11.9,6.9z M18.1,7.7c0,0,3.2,0.4,4,3.2c0.9,3.1-7.4,4.4-7.9,3.9C15.7,11.2,16.1,11.2,18.1,7.7L18.1,7.7z"/>
</svg>
