<svg xmlns="http://www.w3.org/2000/svg" id="mercedes-benz" viewBox="0 0 24 24">
    <path fill="currentColor" d="M12 0C5.367 0 0 5.367 0 12s5.367 12 12 12 12-5.367 12-12S18.633 0 12 0zM2.755 6.687a10.695 10.695 0 0 1 9.126-5.338l-1.454 9.674-7.72 6.243C.85 13.978.85 9.95 2.755 6.686zm9.293 16.035c-3.765.024-7.268-1.954-9.221-5.218L12 13.716l9.221 3.74a10.765 10.765 0 0 1-9.173 5.266zm9.292-5.528l-7.815-6.052-1.382-9.817a10.618 10.618 0 0 1 9.078 5.338c1.906 3.264 1.954 7.243.12 10.531z" fill-rule="evenodd"></path>
</svg>
