<svg xmlns="http://www.w3.org/2000/svg" id="mini" viewBox="0 0 24 24">
    <g fill-rule="evenodd">
        <path fill="currentColor" d="M12 16.784a4.502 4.502 0 1 1 0-9.004 4.502 4.502 0 0 1 0 9.004zm12-7.337h-7.57A5.265 5.265 0 0 0 11.979 7a5.267 5.267 0 0 0-4.45 2.447H0l.766.767h6.358a5.19 5.19 0 0 0-.28.864H1.628l.767.768h4.33a5.265 5.265 0 0 0 .001.864H3.257l.766.767h2.823c.07.3.164.588.282.865H4.885l.766.767h1.884a5.268 5.268 0 0 0 4.444 2.437 5.267 5.267 0 0 0 4.445-2.437h1.925l.766-.767h-2.284a5.27 5.27 0 0 0 .282-.865h2.864l.766-.767h-3.51a5.026 5.026 0 0 0 .001-.864h4.371l.767-.768h-5.257a5.19 5.19 0 0 0-.28-.864h6.399L24 9.447z"></path>
        <path fill="currentColor" d="M9.685 12.936l-.612-1.849H8.38v2.375h.507v-1.76l.533 1.76h.524l.535-1.76v1.76h.507v-2.375h-.695zM14.092 12.827l-.952-1.74h-.559v2.376h.47v-1.665l.951 1.678.566-.013v-2.376h-.47zM11.538 13.461h.482v-2.375h-.482zM15.117 13.461h.482v-2.375h-.482z"></path>
    </g>
</svg>
