<svg id="moke" xmlns="http://www.w3.org/2000/svg" viewBox="0 0 500.57 72"><g id="Layer_1-2"><g><path d="M396.47,72V1.01h103.9c0,5.75,.08,11.45-.12,17.15-.02,.58-1.71,1.55-2.66,1.58-4.61,.17-9.23,.08-13.85,.08-19.84,0-39.67,0-59.51,0-1.46,0-2.92,0-4.55,0v7.55h76.96v17.35h-76.7v7.57h80.61v19.71h-104.09Z"/><path d="M.32,72c-.11-1.24-.3-2.48-.3-3.72C0,47.04,0,25.8,0,4.56c0-1.21,.14-2.43,.22-3.85,7.55,0,14.89-.39,22.14,.22,2.44,.21,5.01,2.62,6.94,4.6,11.33,11.58,22.49,23.33,34.06,35.39,8.11-7.96,16.12-15.76,24.05-23.65,4.78-4.75,9.33-9.73,14.19-14.4,1.21-1.17,3.19-2.09,4.84-2.14,6.94-.24,13.89-.1,21.17-.1V72h-21.72c-.11-11.98-.21-23.96-.32-35.95-.01-1.45,0-2.9,0-5.5-14.3,13.89-27.76,26.96-41.41,40.22-13.66-13.38-27.11-26.56-40.57-39.74l-.83,.54v40.41H.32Z"/><path d="M158.33,72c-3.14-.73-6.31-1.34-9.4-2.23-9.43-2.69-15.47-9.62-16.07-19.35-.52-8.33-.34-16.7-.35-25.05-.02-15.15,10.43-23.72,25.17-24.5,10.7-.57,21.44-.4,32.16-.41,11.35-.02,22.71-.18,34.03,.35,5.38,.25,10.93,1.36,15.99,3.19,7.78,2.82,12.37,8.95,12.82,17.3,.5,9.2,.88,18.49,.23,27.66-.9,12.79-8.64,20.33-21.31,22.25-1.22,.18-2.42,.52-3.62,.79h-69.65Zm34.41-51.91c-3.62,0-7.23,0-10.85,0-6.61,0-13.22-.11-19.82,.07-6.41,.17-8.14,2.1-8.15,8.44,0,4.24,0,8.49,0,12.73,0,9.81,1.35,11.15,11.26,11.2,.12,0,.25,0,.37,0,17.7,0,35.4,.02,53.1-.03,2.48,0,4.98-.2,7.43-.6,4.11-.68,5.57-2.38,5.64-6.56,.09-6.12,0-12.23,.03-18.35,.02-3.71-1.85-5.86-5.39-6.52-1.7-.32-3.47-.36-5.21-.37-9.47-.03-18.95-.02-28.42-.02Z"/><path d="M391.23,0c-.99,.69-1.93,1.48-2.99,2.05-16.57,8.9-33.16,17.76-49.73,26.64-1.06,.57-2.08,1.22-3.6,2.13,19.03,13.37,37.68,26.48,56.33,39.58l-.31,.93c-2.31,0-4.62-.02-6.92,0-6.73,.06-13.46-.05-20.18,.27-8.24,.39-15.35-2-21.86-7.08-8.94-6.98-18.18-13.57-27.22-20.43-2.08-1.58-3.85-1.7-6.12-.41-6.93,3.94-13.92,7.79-20.97,11.5-2.44,1.28-3.38,2.99-3.24,5.69,.17,3.23,.04,6.48,.04,10.03h-26.53V0h26.21V29.35c7.11-3.33,13.28-6.19,19.43-9.1,14.25-6.74,28.49-13.5,42.73-20.26,14.98,0,29.96,0,44.93,0Z"/></g></g></svg>