<svg id="piaggio" xmlns="http://www.w3.org/2000/svg" viewBox="0 0 512.7 589.74"><g id="Layer_1-2"><g><path d="M.08,294.73C.08,246.99,.12,199.25,0,151.5c0-3.34,1.07-4.97,3.93-6.62C68.02,108.01,132.03,71,196.06,34.03c19.04-10.99,38.11-21.91,57.1-33,2.38-1.39,4.1-1.35,6.44,0,45.5,26.35,91.05,52.62,136.59,78.9,37.53,21.67,75.05,43.37,112.63,64.95,2.68,1.54,3.83,3.11,3.83,6.36-.09,95.23-.09,190.47,.06,285.7,0,4.35-1.37,6.51-5.09,8.65-73.84,42.47-147.59,85.1-221.35,127.7-8.87,5.12-17.8,10.14-26.6,15.38-2.31,1.37-4.03,1.46-6.42,.07-39.76-23.05-79.59-46-119.4-68.97-43.49-25.09-86.96-50.21-130.5-75.21C.79,443.1,0,441.52,0,438.7c.08-47.99,.06-95.98,.06-143.97h.02Zm24.49-.04h.01c0,43.62,.01,87.25-.04,130.87,0,2.08,.48,3.38,2.46,4.45,5.38,2.91,10.59,6.13,15.9,9.18,69.27,39.92,138.56,79.79,207.75,119.85,4.18,2.42,7.08,2.57,11.35,.09,74.03-42.9,148.17-85.62,222.34-128.28,2.98-1.71,4.01-3.57,4.01-6.98-.1-86-.11-172-.02-257.99,0-3.4-.99-5.24-3.99-6.97-74.93-43.09-149.81-86.28-224.64-129.54-2.54-1.47-4.3-1.32-6.74,.09C178.33,72.57,103.67,115.63,28.93,158.56c-3.41,1.96-4.46,4.05-4.45,7.88,.15,42.75,.09,85.49,.09,128.24Z"/><path d="M293.02,379.22c0,10.65,0,20.64,0,30.62,0,6.62,.16,13.25-.14,19.86-.07,1.66-1.2,3.83-2.54,4.78-10.39,7.38-20.97,14.47-31.42,21.76-1.82,1.27-3.13,1.35-4.98,.06-10.66-7.43-21.45-14.66-32.05-22.17-1.21-.86-2.06-3.04-2.08-4.62-.14-15.24-.06-30.49-.05-45.74,0-1.33,0-2.66,0-4.42-4.87,1.97-9.16,3.92-13.59,5.47-21.16,7.4-42.84,10.49-64.8,4.8-28.56-7.4-47.99-25.97-59.6-52.62-16.26-37.3-11.15-82.44,30.5-113.68,15.37-11.53,32.3-20.33,49.16-29.33,18.28-9.76,36.55-19.55,54.43-30,13.45-7.86,25.05-18.17,34.73-30.51,1.76-2.25,3.68-4.38,5.77-6.85,3.25,3.88,6.33,7.63,9.48,11.31,12.71,14.86,28.6,25.68,45.52,34.97,19.81,10.87,39.98,21.07,59.89,31.78,16.23,8.73,31.83,18.53,44.28,32.35,26.36,29.26,30.38,62.71,16.02,98.35-11.57,28.71-32.44,48.17-63.26,54.91-23.56,5.15-46.43,1.04-68.51-8.12-2.05-.85-4.07-1.78-6.76-2.96Zm-24.49-47.04c3.2,2.56,5.55,4.4,7.85,6.3,8.67,7.17,17.34,14.32,27.73,19,16.54,7.46,33.71,11.74,51.98,10.11,23.21-2.07,39.55-14.51,49.91-34.77,10.58-20.7,12.86-42.19,2.63-63.81-6.05-12.79-16.08-22.48-27.93-29.66-17.81-10.8-36.1-20.84-54.49-30.64-20.87-11.12-41.62-22.34-59.82-37.64-3.42-2.88-6.71-5.93-9.4-8.32-10.47,7.9-20.15,16.3-30.89,23.04-15,9.41-30.81,17.52-46.23,26.27-16.6,9.42-33.46,18.44-49.62,28.56-11.86,7.43-21.62,17.5-27.28,30.67-7.9,18.38-6.58,36.85,.67,55.07,10.86,27.31,33.46,42.6,62.28,41.55,23.08-.84,44.05-8.18,62.22-22.79,5.1-4.1,10.19-8.2,16.03-12.9,0,2.33,0,3.67,0,5.01-.01,26.37,.02,52.74-.09,79.11-.01,2.83,.72,4.67,3.24,6.07,3.14,1.75,6.1,5.37,9.11,5.34,3.03-.02,5.93-3.73,9.09-5.43,2.63-1.42,3.11-3.35,3.1-6.09-.1-25.99-.08-51.99-.09-77.98,0-1.71,0-3.41,0-6.06Z"/><path d="M244.14,209.45c0,2.39,0,3.99,0,5.6,.13,26.87,.25,53.74,.44,80.61,.01,2.13-.3,3.57-2.44,4.83-19.73,11.55-39.34,23.29-59.02,34.91-24.25,14.32-53.98,.86-58.86-26.88-2.78-15.8,3.77-28.3,16.2-37.43,8.32-6.11,17.54-11.01,26.45-16.29,24.82-14.7,49.7-29.33,74.55-43.98,.62-.36,1.27-.66,2.68-1.38Zm-24.14,42.36c-2.24,1.26-3.52,1.97-4.79,2.71-8.18,4.79-16.36,9.57-24.54,14.38-10.86,6.38-21.73,12.75-32.57,19.17-4.25,2.52-8.1,5.48-9.54,10.55-1.51,5.34,.62,11.57,5.08,15.09,5.02,3.97,11.16,4.47,17.16,.9,15.77-9.36,31.45-18.87,47.1-28.42,.97-.59,1.99-2.04,2-3.11,.15-10.1,.09-20.2,.09-31.28Z"/><path d="M268.93,209.55c11.77,6.94,23.14,13.68,34.54,20.37,20.24,11.89,40.5,23.75,60.76,35.62,8.42,4.94,15.8,10.96,20.51,19.75,7.63,14.23,4.93,31.91-6.68,43.96-11.89,12.33-29.69,15.85-44.68,7.96-11.7-6.16-22.89-13.28-34.27-20.04-9.23-5.48-18.45-11-27.58-16.66-1.15-.71-2.43-2.37-2.44-3.6-.27-28.61-.37-57.22-.49-85.84,0-.35,.15-.69,.35-1.52Zm24.4,42.56c0,11-.06,21.35,.1,31.69,.02,1,1.29,2.29,2.31,2.9,10.03,6.09,20.11,12.1,30.22,18.05,6.23,3.67,12.39,7.53,18.87,10.72,6.4,3.15,13.42,.75,17.33-5.17,3.85-5.82,3.27-12.92-1.77-17.77-2.13-2.05-4.65-3.78-7.21-5.31-10.07-6.02-20.23-11.91-30.35-17.84-9.67-5.66-19.34-11.32-29.51-17.27Z"/></g></g></svg>