<svg id="ssangyong" xmlns="http://www.w3.org/2000/svg" viewBox="0 0 2702.13 1646.92"><g id="Layer_1-2"><path d="M516.35,176.58c3.63-1.52,6.01-2.3,8.19-3.45,27.39-14.41,54.45-29.5,82.2-43.19,41.48-20.46,83.63-39.51,128-53.09,20.97-6.42,41.92-12.96,63.06-18.81,16.03-4.44,32.36-7.79,49.08-8.41,4.64-.17,9.35-.03,13.94,.64,3.21,.46,6.51,1.61,9.33,3.22,5.73,3.26,7.68,8.18,5.65,14.39-1.61,4.94-3.94,9.64-6.44,15.62,2.4-.65,3.95-.8,5.23-1.45,41.95-21.38,86.02-37.42,130.74-51.71,23.75-7.59,47.71-14.56,71.77-21.09,11.84-3.22,24.19-4.47,36.16-7.27,7.91-1.85,15.8-1.7,23.75-1.94,4.57-.14,8.51,1.49,12.32,3.53,3.51,1.88,4.61,4.48,3.37,8.4-.88,2.79-2.32,5.51-4,7.91-5.84,8.36-13.88,14.18-22.57,19.32-32.39,19.17-64.12,39.37-95.17,60.67-44.8,30.73-87.67,63.91-128.67,99.55-26.93,23.42-52.33,48.44-76.88,74.25-38.62,40.6-73.31,84.44-103.39,131.8-27.39,43.12-50.55,88.35-67.5,136.63-10.94,31.16-19.55,62.93-23.29,95.79-1.31,11.54-1.3,23.3-.95,34.93,.88,29.63,4.12,59.02,10.05,88.11,13.68,66.99,40.98,127.74,82.96,181.81,38.07,49.04,84.62,88.22,138.04,119.57,31.99,18.77,65.68,33.46,100.73,45.56,39.08,13.48,78.65,24.97,118.85,34.45,38.17,9,76.51,17.11,115.14,23.87,14.75,2.58,29.53,4.99,44.19,8.04,18.13,3.77,33.62,12.39,45.39,27,9.52,11.8,11.08,25.4,8.07,39.68-1.25,5.9-4.69,10.89-9.02,15.29-14.29,14.53-30.43,26.86-46.35,39.46-9.14,7.23-18.58,14.08-27.64,21.41-19.84,16.06-33.33,36.43-37.67,61.66-4.48,26.07,1.67,50.22,17.51,71.61,15.4,20.79,35.38,35.99,58.58,47.04,21.48,10.23,44.13,16.84,67.73,19.81,48.34,6.09,94.94,.1,138.98-21.5,21.83-10.71,40.75-25.23,55.11-45.12,11.77-16.31,18.92-34.31,19.06-54.73,.17-24.82-9.12-45.9-24.6-64.88-9.01-11.04-20.98-18.37-31.71-27.25-16.92-14-34.18-27.59-51.04-41.66-7.76-6.48-13.54-14.28-15.51-24.82-2.65-14.2,1.08-26.52,9.89-37.23,11.88-14.45,27.65-22.59,45.96-26.02,34-6.37,68.07-12.46,101.98-19.28,34.86-7.01,69.58-14.8,103.74-24.72,24.9-7.23,49.59-15.25,74.23-23.35,60.78-19.97,115.68-50.83,164.95-91.45,41.99-34.62,77.1-75.32,104.23-122.66,22.17-38.69,37.77-79.91,47.39-123.44,5.46-24.71,8.86-49.66,10.74-74.91,1.09-14.64,1.53-29.25,1.03-43.85-.76-22.34-5.33-44.15-11-65.71-15.01-57.09-39.08-110.31-69.28-160.84-26.72-44.71-57.9-86.17-92.2-125.34-19.32-22.07-39.52-43.31-60.72-63.53-31.08-29.65-63.53-57.75-97.51-84.07-30.56-23.67-61.82-46.36-94.25-67.38-24.3-15.75-49.07-30.78-73.73-45.96-7.49-4.61-13.84-10.34-19.2-17.22-3.33-4.28-3.27-4.33-5.03-11.88,2.68-5.76,8.16-7.79,13.78-8.05,7.57-.34,15.12-.09,22.81,1.06,49.66,7.43,96.69,24.1,143.95,39.99,32.84,11.04,64.92,23.96,95.87,39.61,1.93,.97,4.07,1.52,7.77,2.88-1.58-3.57-2.49-5.53-3.33-7.52-1.16-2.75-2.66-5.43-3.33-8.31-1.88-8,1.22-14.17,9.22-16.14,6.69-1.65,13.88-2.69,20.7-2.14,11.9,.96,23.9,2.44,35.45,5.33,22.24,5.58,44.31,11.95,66.26,18.61,56.89,17.26,110.6,42.15,163.27,69.38,19.81,10.24,39.35,20.99,59.02,31.49,1.4,.75,2.86,1.36,4.29,2.04,2.25-3.3-.33-5.42-1.27-7.64-6.35-15.06-1.41-24.06,16.14-22.87,13.07,.88,25.58,4.34,37.84,8.62,24.87,8.68,48.47,20.29,71.95,32.1,27.67,13.92,54.63,29.1,80.96,45.42,41.95,26.01,82.05,54.53,119.63,86.59,21.31,18.18,41.53,37.52,60.67,57.91,36.87,39.27,68.62,82.32,92.63,130.73,12.14,24.48,22.42,49.77,29.47,76.22,2.56,9.61,4.36,19.52,5.42,29.42,2.08,19.49,5.22,38.99,4.48,58.63-1.59,42.55-8.78,83.68-28.61,122.29-20.36,39.64-44.44,76.58-73.32,110.39-26.46,30.97-56.21,58.52-88.3,83.66-38.96,30.53-81.03,56.04-125.13,78.23-31.23,15.72-63.41,29.42-96.39,41.08-45.16,15.97-90.53,31.26-136.81,43.78-60.68,16.42-121.53,32.15-182.85,46.01-31.43,7.11-62.76,14.72-94.21,21.72-34.1,7.59-68.28,14.84-102.47,22.04-53.68,11.31-107.39,22.44-161.08,33.66-3.58,.75-7.15,1.58-10.7,2.44-1.62,.39-3.23,.84-4.79,1.43-13.91,5.2-16.7,17.87-6.11,28.23,3.8,3.72,7.93,7.1,11.97,10.56,19.21,16.44,38.65,32.63,57.6,49.37,13.59,12,24.98,25.65,30.49,43.62,4.79,15.64,2.97,30.29-4.7,44.26-4.65,8.48-10.95,15.79-18.34,22.19-17.31,15-36.93,25.93-58.14,34.38-43.61,17.37-83.88,40.49-119.74,70.96-6.84,5.81-13.65,11.76-19.77,18.3-12.32,13.17-27.27,22.41-43.44,29.67-17.98,8.08-36.82,13.26-56.59,15.11-6.23,.58-12.38,2.05-18.73,1.82-28.21-1.02-55.35-6.54-80.96-18.76-16.38-7.82-31.01-17.97-43.67-31.12-17.41-18.08-37.43-32.97-58.57-46.42-25.92-16.5-53.27-30.08-81.79-41.49-18.94-7.58-36.49-17.75-52.07-31.06-7.12-6.09-13.37-12.94-18.32-20.98-10.59-17.19-11.7-35.06-3.95-53.5,5.78-13.75,14.75-25.38,25.89-35.1,21.81-19.03,44.03-37.58,65.97-56.46,4.48-3.86,9.19-7.5,11.57-13.46,1.7-4.26,1.36-7.86-1.07-11.29-3.11-4.39-6.82-8.07-12.47-9.31-10.07-2.21-20.04-4.91-30.14-7.02-31.89-6.68-63.84-13.06-95.72-19.78-49.46-10.42-98.93-20.78-148.3-31.61-75.01-16.46-149.8-33.9-224.1-53.32-47.62-12.45-95.2-25.14-141.79-41.14-33.03-11.34-66.21-22.34-98.29-36.23-35.44-15.35-70.14-32.19-103.17-52.34-23.61-14.41-46.64-29.62-68.54-46.53-29.32-22.64-56.34-47.72-81.3-75.1-22.29-24.45-42.08-50.73-59.45-78.84-12.97-20.99-24.52-42.77-33.95-65.57-7.54-18.23-12.16-37.34-14.28-56.95-1.46-13.53-2.27-27.13-3.36-40.71-.05-.66-.06-1.33-.03-2,.67-13.28,1.01-26.59,2.13-39.84,.92-10.91,2.37-21.82,4.27-32.6,3.96-22.4,11.75-43.65,20.53-64.54,22.7-53.98,55.27-101.54,93.97-145.21,39.52-44.6,84.46-82.98,132.76-117.64,28.97-20.79,58.96-39.99,89.95-57.62,35.03-19.92,70.81-38.35,108.07-53.78,14.47-5.99,29.37-10.81,44.97-12.85,4.88-.64,10.04-.78,14.86,.07,8.4,1.49,11.44,6.94,9.32,15.39-.72,2.88-2.02,5.61-2.96,8.44-.48,1.45-.77,2.95-1.54,5.96ZM1848.06,89.22c-.21,.65-.42,1.3-.63,1.95,2.88,1.56,5.72,3.19,8.64,4.68,11.27,5.72,22.6,11.35,33.85,17.1,38.55,19.71,75.97,41.4,112.45,64.7,33.96,21.7,67.04,44.64,98.87,69.42,26.55,20.66,52.17,42.39,76.58,65.48,16.92,16,33.2,32.69,48.65,50.21,27.59,31.3,52.73,64.34,73.77,100.42,23.8,40.8,41.53,83.99,51.32,130.32,5.67,26.83,8.41,53.93,7.13,81.31-1,21.43-6.48,42.09-12.92,62.4-11.42,36.04-28.09,69.64-48.58,101.39-26.53,41.12-58.91,77.14-94.94,110.07-25.61,23.41-53.04,44.47-81.76,63.86-39.8,26.87-81.72,50.04-125.12,70.57-31.9,15.09-64.43,28.66-97.58,40.74-11.87,4.33-23.81,8.45-35.68,12.78-2.16,.79-4.13,2.1-6.19,3.17,1.78,1.05,3.07,1.06,4.22,.66,30.23-10.31,60.65-20.1,90.62-31.13,48.1-17.69,95.14-37.9,140.94-60.98,47.94-24.16,94.15-51.09,137.35-83.12,32.99-24.46,63.64-51.38,90.74-82.31,29.45-33.62,53.24-70.66,69.2-112.53,9.65-25.3,15.97-51.54,18.07-78.45,2.26-28.89,1.15-57.81-3.19-86.59-4.94-32.74-13.61-64.4-25.99-95.05-15.67-38.81-36.81-74.53-61.78-108.05-24.75-33.22-53.14-63.08-83.52-91.17-27.43-25.35-56.71-48.36-87.16-69.88-41.37-29.24-84.81-55.15-129.68-78.63-51.94-27.19-105.49-50.78-160.45-71.17-2.36-.88-4.83-1.46-7.25-2.19Zm-993.69,1.84c-.2-.49-.4-.97-.6-1.46-2.38,.62-4.86,1-7.13,1.9-22.58,8.93-45.24,17.68-67.66,27.01-35.35,14.71-69.71,31.57-103.48,49.59-42.04,22.43-82.55,47.37-121.53,74.8-36.26,25.53-70.46,53.58-102.34,84.38-24.21,23.39-46.47,48.57-66.53,75.64-24.88,33.57-45.82,69.36-61.56,108.17-15.37,37.89-25.14,77.19-28.44,117.84-1.99,24.51-2.22,49.19,.96,73.78,3.65,28.24,11.13,55.32,22.26,81.51,17.68,41.59,43.53,77.72,74.11,110.57,27.54,29.58,58.49,55.36,91.4,78.74,54.47,38.7,113.02,70.24,173.83,97.65,33.97,15.31,68.46,29.45,103.56,41.98,24.12,8.61,48.41,16.73,72.65,25,3.61,1.23,7.35,2.08,11.66,3.27-.58-1.56-.63-2.39-.99-2.55-2.42-1.09-4.86-2.13-7.36-3-32.96-11.55-65.67-23.72-97.68-37.73-56.22-24.62-110.38-52.99-161.14-87.69-43.02-29.41-83.09-62.18-118.34-100.71-22.08-24.13-42.24-49.7-59.52-77.48-25.7-41.31-45.21-85.18-54.1-133.29-2.05-11.07-3.66-22.33-4.17-33.56-.46-9.9,.57-19.92,1.52-29.83,2.11-22.2,6.12-44.13,12-65.62,12.94-47.29,34.24-90.82,61.01-131.69,25.81-39.4,56.11-75.25,89.36-108.49,17.4-17.39,35.7-33.93,54.3-50.05,33.23-28.81,68.41-55.15,104.84-79.79,57.72-39.03,117.8-73.97,180.67-104.06,2.91-1.39,5.63-3.2,8.44-4.82Zm1353.17,96.85c-.26,.5-.53,1-.79,1.5,2.64,1.85,5.2,3.81,7.92,5.52,9.86,6.19,19.92,12.09,29.66,18.47,43.49,28.5,85,59.59,123.99,94.05,24.48,21.63,47.97,44.24,69.87,68.45,24.37,26.94,46.7,55.52,66.22,86.21,20.97,32.98,38.1,67.81,50.17,105.06,7.51,23.18,12.33,46.94,15.38,71.06,1.17,9.21,2.36,18.58,1.91,27.8-.54,11.24-2.2,22.52-4.4,33.58-10.06,50.56-30.15,97.02-58.36,140.04-24.8,37.83-54.68,71.15-88.73,100.9-36.54,31.93-76.57,58.73-119.26,81.55-39.07,20.89-79.51,38.81-121.58,52.9-2.28,.76-4.36,2.11-6.97,3.39,3.36,2.45,5.8,.87,8.27,.15,63.45-18.45,124.46-42.87,182.51-74.56,43.39-23.69,84.17-51.03,120.88-84.33,27.5-24.95,52.2-52.3,72.68-83.29,33.36-50.48,52.16-106.07,56.19-166.38,1.37-20.54,1.22-41.31-2.05-61.77-5.01-31.41-14.58-61.46-28.51-90.09-22.5-46.24-53.02-86.83-88.19-123.98-33.25-35.13-69.79-66.6-108.47-95.64-36.25-27.22-74.01-52.17-112.99-75.23-18.32-10.84-37.19-20.75-55.85-31-3.04-1.67-6.32-2.91-9.49-4.34ZM533.76,1081.51c.17-.54,.35-1.07,.52-1.61-3.78-1.55-7.55-3.15-11.35-4.63-21.38-8.34-43.07-15.97-64.11-25.09-60.79-26.34-117.64-59.32-168.58-102.06-20.46-17.17-39.51-35.74-57.3-55.61-23.87-26.66-44.19-55.87-60.93-87.49-17.69-33.43-30.77-68.61-37.89-105.82-2.62-13.7-4.98-27.62-3.93-41.61,1.02-13.55,3-27.05,5.01-40.5,5.01-33.51,15.86-65.24,29.89-95.96,18.22-39.91,41.79-76.49,69.14-110.68,19.97-24.97,41.28-48.75,64.62-70.66,12.14-11.39,23.89-23.23,36.42-34.16,47.78-41.68,98.75-79.02,153.14-111.65,2.5-1.5,5.39-2.44,7.05-6.78-3.77,1.72-6.67,2.87-9.43,4.31-63.25,33.14-123.6,70.87-180.14,114.55-43.04,33.24-83.49,69.29-118.9,110.74-32.87,38.48-60.66,80.07-79.08,127.53-10.55,27.17-17.19,55.16-19.19,84.23-1.65,24.01-.18,47.86,3.39,71.65,5.48,36.53,16.86,71.06,33.82,103.84,23.58,45.56,55.87,84.22,94,118.12,36.74,32.67,77.4,59.83,120.59,83.16,55.53,29.99,113.85,53.3,174.21,71.57,6.24,1.89,12.68,3.1,19.02,4.63Z"/></g></svg>