<svg xmlns="http://www.w3.org/2000/svg" width="52.54" height="25.389" viewBox="0 0 52.54 25.389"><circle cx="4.378" cy="4.378" r="4.378" transform="translate(5.663 22.038) rotate(-67.5)" fill="#fff"/><path d="M51.665,154.123v-5.254a.876.876,0,0,0-.6-.831l-4.941-1.647a13.441,13.441,0,0,0-10.071-7.141l-.031-.005c-10.439-1.443-18.276.912-23.308,7-3.745.054-7.568.837-9.817,2.277a4.287,4.287,0,0,0-1.92,3.427l-.1,2.174A.876.876,0,0,0,0,155v3.5a.876.876,0,0,0,.876.876h3.5a.881.881,0,0,0,.876-.885s0-.009,0-.014a6.129,6.129,0,0,1,12.259.024.8.8,0,0,0,.876.876H34.151a.881.881,0,0,0,.876-.885s0-.009,0-.014a6.129,6.129,0,0,1,12.259.024.8.8,0,0,0,.876.876h3.5a.876.876,0,0,0,.876-.876V155A.875.875,0,0,0,51.665,154.123ZM28.022,145.8a.438.438,0,0,1-.438.438H16.164a.44.44,0,0,1-.29-.77A19.235,19.235,0,0,1,27.539,140.7a.446.446,0,0,1,.483.441Zm10.52,0a.438.438,0,0,1-.438.433H30.211a.438.438,0,0,1-.438-.438v-4.781a.439.439,0,0,1,.435-.442,40.266,40.266,0,0,1,5.558.4,14.749,14.749,0,0,1,2.527.668.438.438,0,0,1,.284.419Zm4.57.433H40.731a.438.438,0,0,1-.438-.442l.023-2.373a.441.441,0,0,1,.708-.344,11.578,11.578,0,0,1,2.435,2.451A.44.44,0,0,1,43.112,146.242Z" transform="translate(0 -138.833)" fill="#fff"/><path d="M362.778,287.834a4.378,4.378,0,1,0,4.378,4.378A4.383,4.383,0,0,0,362.778,287.834Z" transform="translate(-321.622 -272.544)" fill="#fff"/></svg>