<svg xmlns="http://www.w3.org/2000/svg" width="50.666" height="24.488" viewBox="0 0 50.666 24.488"><g transform="translate(0 0)"><path d="M362.622,294.4a4.222,4.222,0,1,0,4.222,4.222A4.227,4.227,0,0,0,362.622,294.4Z" transform="translate(-322.934 -278.356)" fill="#fff"/><circle cx="4.222" cy="4.222" r="4.222" transform="translate(5.911 16.044)" fill="#fff"/><path d="M50.418,147.714l-.6-.6V133.111a.844.844,0,0,0-.844-.844H21.955a.844.844,0,0,0-.528.185l-8.319,6.655L2.216,142.463c-.27.11-.812.332-1.293,1.626l-.447,1.689A37.406,37.406,0,0,0,0,152.533a.844.844,0,0,0,.844.844H3.378a.844.844,0,0,0,.844-.844,5.911,5.911,0,0,1,11.822,0,.844.844,0,0,0,.844.844H32.933a.844.844,0,0,0,.844-.844,5.911,5.911,0,0,1,11.822,0,.844.844,0,0,0,.844.844h3.378a.844.844,0,0,0,.844-.844v-4.222A.841.841,0,0,0,50.418,147.714Zm-22.552-7.847a.844.844,0,0,1-.844.844H16.889a.844.844,0,0,1-.55-1.485l5.911-5.067a.843.843,0,0,1,.55-.2h4.222a.844.844,0,0,1,.844.844Z" transform="translate(0 -132.267)" fill="#fff"/></g></svg>