<svg xmlns="http://www.w3.org/2000/svg" viewBox="0 0 41.82 47.01"><defs><style>.cls-1{fill:#fed451;}.cls-2{fill:#00bda5;}.cls-3{fill:#66c7fd;}.cls-4{fill:#ef5366;}</style></defs><title>automotus-icon</title><g id="Layer_2" data-name="Layer 2"><g id="Layer_1-2" data-name="Layer 1"><path class="cls-1" d="M20.91,23.48.54,35.22a4.12,4.12,0,0,0,1.54,1.56l16.75,9.67a4.18,4.18,0,0,0,4.16,0l16.76-9.67a4.09,4.09,0,0,0,1.53-1.56Z"/><path class="cls-2" d="M39.74,10.23,23,.56a4.13,4.13,0,0,0-4.16,0L2.08,10.23A4.15,4.15,0,0,0,.56,11.74L20.91,23.47,41.26,11.75A4.18,4.18,0,0,0,39.74,10.23Z"/><path class="cls-3" d="M41.82,13.83V33.18a4.18,4.18,0,0,1-.54,2L20.91,23.47,41.26,11.75A4.11,4.11,0,0,1,41.82,13.83Z"/><path class="cls-4" d="M20.91,23.47.54,35.22a4.2,4.2,0,0,1-.54-2V13.83a4.17,4.17,0,0,1,.56-2.09Z"/></g></g></svg>