<?xml version="1.0" encoding="utf-8"?>
<!-- Generator: Adobe Illustrator 24.0.2, SVG Export Plug-In . SVG Version: 6.00 Build 0)  -->
<svg version="1.1" id="Layer_1" xmlns="http://www.w3.org/2000/svg" xmlns:xlink="http://www.w3.org/1999/xlink" x="0px" y="0px"
	 viewBox="0 0 201.4 47" style="enable-background:new 0 0 201.4 47;" xml:space="preserve">
<style type="text/css">
	.st0{fill:#FED451;}
	.st1{fill:#00BDA5;}
	.st2{fill:#66C7FD;}
	.st3{fill:#EF5366;}
	.st4{fill:#3C4048;}
</style>
<g id="Group_3" transform="translate(-498.457 -474.133)">
	<g id="Group_1" transform="translate(498.457 474.133)">
		<path id="Path_2" class="st0" d="M20.9,23.5L0.5,35.2c0.4,0.7,0.9,1.2,1.5,1.6l16.7,9.7c1.3,0.7,2.9,0.7,4.2,0l16.8-9.7
			c0.6-0.4,1.2-0.9,1.5-1.6L20.9,23.5z"/>
		<path id="Path_3" class="st1" d="M39.7,10.2L23,0.6c-1.3-0.7-2.9-0.7-4.2,0L2.1,10.2c-0.6,0.4-1.2,0.9-1.5,1.5l20.3,11.7
			l20.3-11.7C40.9,11.1,40.4,10.6,39.7,10.2z"/>
		<path id="Path_4" class="st2" d="M41.8,13.8v19.3c0,0.7-0.2,1.4-0.5,2L20.9,23.5l20.4-11.7C41.6,12.4,41.8,13.1,41.8,13.8z"/>
		<path id="Path_5" class="st3" d="M20.9,23.5L0.5,35.2c-0.3-0.6-0.5-1.3-0.5-2V13.8c0-0.7,0.2-1.5,0.6-2.1L20.9,23.5z"/>
	</g>
	<g id="Group_2" transform="translate(556.539 486.131)">
		<path id="Path_6" class="st4" d="M12.3,16.5H5.1l-1.3,3.6H0L6.6,2.3h4.1l6.6,17.8h-3.8L12.3,16.5z M11.3,13.8L8.7,6.2L6,13.8H11.3
			z"/>
		<path id="Path_7" class="st4" d="M32.8,6v14.1h-3.6v-2.9c-0.4,0.9-1,1.7-1.8,2.2c-0.9,0.5-1.9,0.8-3,0.8c-1.5,0.1-2.9-0.5-3.9-1.6
			c-1-1.3-1.6-2.9-1.5-4.5V6h3.6v7.8c-0.1,0.9,0.3,1.9,0.9,2.6c0.6,0.6,1.5,1,2.3,0.9c0.9,0,1.8-0.3,2.5-1c0.7-0.8,1-1.8,0.9-2.9V6
			L32.8,6z"/>
		<path id="Path_8" class="st4" d="M43.5,17v3.1h-1.9c-1.3,0.1-2.6-0.3-3.6-1.1c-0.9-1-1.4-2.4-1.3-3.8V9h-2V6h2V2.5h3.6V6h3.2v3
			h-3.2v6.2c-0.1,0.5,0.1,1,0.4,1.4c0.4,0.3,0.9,0.5,1.4,0.4H43.5z"/>
		<path id="Path_9" class="st4" d="M56.3,6.7c1.1,0.6,2,1.4,2.6,2.5c1.3,2.4,1.3,5.3,0,7.7c-0.6,1.1-1.5,1.9-2.6,2.5
			c-2.3,1.2-5.1,1.2-7.4,0c-1.1-0.6-2-1.4-2.6-2.5c-1.3-2.4-1.3-5.3,0-7.7c0.6-1.1,1.5-1.9,2.6-2.5C51.3,5.5,54,5.5,56.3,6.7
			L56.3,6.7z M50.1,10c-1.4,1.8-1.4,4.3,0,6.1c1.4,1.4,3.7,1.4,5.1,0c0,0,0,0,0,0c1.4-1.8,1.4-4.3,0-6.1C53.8,8.6,51.5,8.6,50.1,10
			C50.1,10,50.1,10,50.1,10z"/>
		<path id="Path_10" class="st4" d="M84.4,7.4c1.1,1.3,1.6,2.9,1.5,4.5v8.2h-3.6v-7.8c0.1-0.9-0.2-1.8-0.8-2.5
			c-0.6-0.6-1.4-0.9-2.3-0.9c-0.9,0-1.8,0.3-2.4,0.9c-0.6,0.8-1,1.8-0.9,2.8v7.5h-3.6v-7.8c0.1-0.9-0.2-1.8-0.8-2.5
			c-0.6-0.6-1.4-0.9-2.3-0.9c-0.9,0-1.8,0.3-2.4,0.9c-0.6,0.8-1,1.8-0.9,2.8v7.5h-3.6V6H66v2.7c0.3-0.9,1-1.6,1.8-2.1
			c0.8-0.5,1.8-0.8,2.8-0.8c1,0,2.1,0.3,3,0.8C74.4,7.2,75.1,8,75.5,9c1.4-2.8,4.7-4,7.5-2.6C83.5,6.6,84,7,84.4,7.4L84.4,7.4z"/>
		<path id="Path_11" class="st4" d="M99.3,6.7c1.1,0.6,2,1.4,2.6,2.5c1.3,2.4,1.3,5.3,0,7.7c-0.6,1.1-1.5,1.9-2.6,2.5
			c-2.3,1.2-5.1,1.2-7.4,0c-1.1-0.6-2-1.4-2.6-2.5c-1.3-2.4-1.3-5.3,0-7.7c0.6-1.1,1.5-1.9,2.6-2.5C94.2,5.5,97,5.5,99.3,6.7
			L99.3,6.7z M93.1,10c-1.4,1.8-1.4,4.3,0,6.1c1.4,1.4,3.7,1.4,5.1,0c0,0,0,0,0,0c1.4-1.8,1.4-4.3,0-6.1C96.7,8.6,94.5,8.6,93.1,10
			C93.1,10,93.1,10,93.1,10z"/>
		<path id="Path_12" class="st4" d="M112.9,17v3.1H111c-1.3,0.1-2.6-0.3-3.6-1.1c-0.9-1-1.4-2.4-1.3-3.8V9h-2V6h2V2.5h3.6V6h3.2v3
			h-3.2v6.2c-0.1,0.5,0.1,1,0.4,1.4c0.4,0.3,0.9,0.5,1.4,0.4H112.9z"/>
		<path id="Path_13" class="st4" d="M129,6v14.1h-3.6v-2.9c-0.4,0.9-1,1.7-1.8,2.2c-0.9,0.5-1.9,0.8-3,0.8c-1.5,0.1-2.9-0.5-3.9-1.6
			c-1-1.3-1.6-2.9-1.5-4.5V6h3.6v7.8c-0.1,0.9,0.3,1.9,0.9,2.6c0.6,0.6,1.5,1,2.3,0.9c0.9,0,1.8-0.3,2.5-1c0.7-0.8,1-1.8,0.9-2.9V6
			L129,6z"/>
		<path id="Path_14" class="st4" d="M141.2,7.1c1,0.9,1.7,2.1,1.9,3.5h-3.4c-0.1-0.6-0.4-1.2-0.9-1.6c-0.5-0.4-1.2-0.6-1.9-0.6
			c-0.5,0-1,0.1-1.4,0.4c-0.3,0.3-0.5,0.7-0.5,1.2c0,0.4,0.1,0.7,0.4,0.9c0.3,0.3,0.6,0.4,1,0.6c0.4,0.1,1,0.3,1.8,0.5
			c0.9,0.2,1.8,0.4,2.6,0.8c0.7,0.3,1.3,0.7,1.7,1.2c0.5,0.7,0.8,1.5,0.7,2.3c0,1.1-0.5,2.2-1.4,2.9c-1.1,0.8-2.4,1.2-3.8,1.1
			c-1.6,0.1-3.1-0.4-4.4-1.2c-1.1-0.9-1.8-2.1-2-3.5h3.4c0.1,0.7,0.4,1.2,0.9,1.6c0.6,0.4,1.3,0.6,2.1,0.6c0.5,0,1-0.1,1.4-0.4
			c0.3-0.3,0.5-0.7,0.5-1.2c0-0.4-0.1-0.7-0.4-1c-0.3-0.3-0.7-0.5-1-0.6c-0.4-0.1-1-0.3-1.8-0.5c-0.9-0.2-1.7-0.4-2.6-0.7
			c-0.7-0.2-1.2-0.7-1.7-1.2c-0.5-0.6-0.7-1.4-0.7-2.2c0-1.2,0.5-2.3,1.4-3c1.1-0.8,2.5-1.2,3.9-1.1C138.6,5.8,140.1,6.2,141.2,7.1z
			"/>
	</g>
</g>
</svg>
