<?xml version="1.0" encoding="utf-8"?>
<!-- Generator: Adobe Illustrator 24.2.1, SVG Export Plug-In . SVG Version: 6.00 Build 0)  -->
<svg version="1.1" id="Layer_1" xmlns="http://www.w3.org/2000/svg" xmlns:xlink="http://www.w3.org/1999/xlink" x="0px" y="0px"
	 viewBox="0 0 30 30" style="enable-background:new 0 0 30 30;" xml:space="preserve">
<style type="text/css">
	.st0{fill:#004071;}
</style>
<g>
	<path class="st0" d="M15,0C6.7,0,0,6.7,0,15s6.7,15,15,15s15-6.7,15-15S23.3,0,15,0z M15,28C7.8,28,2,22.2,2,15C2,7.8,7.8,2,15,2
		c7.2,0,13,5.8,13,13C28,22.2,22.2,28,15,28z"/>
	<path class="st0" d="M22,14h-6V8c0-0.6-0.4-1-1-1s-1,0.4-1,1v6H8c-0.6,0-1,0.4-1,1s0.4,1,1,1h6v6c0,0.6,0.4,1,1,1s1-0.4,1-1v-6h6
		c0.6,0,1-0.4,1-1S22.6,14,22,14z"/>
</g>
</svg>
