<svg id="Layer_1" data-name="Layer 1" xmlns="http://www.w3.org/2000/svg" viewBox="0 0 300 123">
    <defs>
        <style>
            .cls-1{fill:#ffffff;}
            .cls-2{fill:#37a344;}
            .cls-3{fill:#ffffff;}
            .cls-4{fill:#ffffff;}
            .cls-5{fill:#ffffff;}
            .cls-6{fill:#ffffff;}
            .cls-7{fill:#ffffff;}
            .cls-8{fill:#ffffff;}
            .cls-9{fill:#ffffff;}
            .cls-10{fill:#37a344;}
            .cls-11{fill:#37a344;}
            .cls-12{fill:#ffffff;}
            .cls-13{fill:#37a344;}
            .cls-14{fill:#37a344;}
            .cls-15{fill:#ffffff;}
            .cls-16{fill:#37a344;}
        </style>
    </defs>
    <title>Artboard 1</title>
    <path class="cls-1" d="M143.08,74a5,5,0,0,0,.19,1.63c3.21,6.61,11.22,9.1,18.06,5.6,1.52-.78,2.94-1.77,4.37-2.64L174,86.77C166.67,94,157.91,96.66,148,94.05c-9.57-2.5-15.29-9.09-17.62-18.64-3-12.32,2.9-23.11,10.28-27.94,14.07-9.21,33.22-3.09,36.56,15.31a20.64,20.64,0,0,1-.42,10.06c-.15.47-.73.8-1.12,1.19-.47-.22-.95-.64-1.43-.64q-15.21-.06-30.43,0C143.55,73.38,143.31,73.79,143.08,74Zm22-9.66c-1.13-5.58-5.36-9.1-10.69-9-5.52.06-10.89,4.17-11.81,9Z"/><path class="cls-1" d="M126,62.17l.1.75c-.55.75-.86,1.46.3,2V69.5c-1.07.35-.87.92-.28,1.56l-.11.76c-.94,1.92-2.7,1.54-4.33,1.54-9.32,0-18.65,0-28,0a6.54,6.54,0,0,0-2,.75c2.71,8.12,13.3,12.49,22.9,4.35L123,86.83C115.66,94,106.9,96.67,97,94c-9.73-2.56-15.42-9.3-17.69-19C76.46,63,82.21,52.22,89.81,47.33c12.11-7.78,28.37-4.45,34.58,9.47a3.51,3.51,0,0,1,.16.73Zm-12,2.14a10.3,10.3,0,0,0-10.07-9,12.32,12.32,0,0,0-12.44,9Z"/><path class="cls-2" d="M278.11,84.91,279.22,86l0,1.27,0,0-.44.43.05,0-.44.45-.35.32-.42.38-7,4.2a2.91,2.91,0,0,0-1,0,27.34,27.34,0,0,1-18.48-.28,4.21,4.21,0,0,0-1.38-.06c-6.86-3.21-11-8.46-13.09-15.79-2.45-8.68-1.19-16.5,4-23.73A21.18,21.18,0,0,1,251,45.23a9.56,9.56,0,0,0,1.94-.1c6-1.65,11.86-1.82,17.57,1.1a7.71,7.71,0,0,0,1.82.46l0,0L275,48.62l0,0,.45.4,0,0,.45.4,0,0,.44.41,0,0,.43.41,0,0c.14.15.28.29.41.44l0,0,.77.85.31.36.85,1.16,0,0,.75,1.14,1.85,3.58c-.09.16-.28.36-.24.47a30.71,30.71,0,0,1,1.47,13.84l0,0-.42,1.57,0,0-.42.42,0,0c-4.36-.14-8.71-.35-13.07-.39-6.24-.07-12.49,0-18.73,0-.5,0-1,.48-1.49.74l3.86,6.16,1.25.71,0,0a6.66,6.66,0,0,0,1.38,1.19c4.47,2.09,8.83,1.6,13.05-.71a9.79,9.79,0,0,0,1.74-1.56h0L271,79l0,0L272.4,79h0c.13.15.27.29.41.43l0,0,.42.43,0,0,.42.43-.05,0,.43.44-.05,0c.14.14.28.29.43.43l-.05,0,.43.44-.05,0,.43.44-.06,0,.47.46.28.29.44.49-.05,0,.43.44-.05,0,.44.43,0,0,.43.43,0,0,.43.43,0,0Zm-7-20.48c-.14-3.27-3.28-7.09-6.86-8.34-6.47-2.27-13.33,1.3-15.92,8.27a6.62,6.62,0,0,0,1.73.49q9.63,0,19.28,0A7.58,7.58,0,0,0,271.07,64.43Z"/><path class="cls-3" d="M29.57,93.32H16.49V28.26H55.62V41.12h-26V54.18H51.93v13H29.57Z"/><path class="cls-4" d="M188.39,88.41l-.49-1.15-1.06-3.1-.11-.75c.6-.65.79-1.23-.29-1.57l-.09-1.13c.14-.28.41-.55.41-.82,0-7.38,0-14.76,0-22.13,0-.47-.86-1.23-1.4-1.31-1.26-.2-2.57,0-3.85-.11-.43,0-1.17-.51-1.18-.81-.09-3-.06-6-.06-8.6l2.69-1.33,1.1-.42,1.18-.84.53-.7.28-.38h0l.4-.77.14-.8.21-.44.1-1.85L188,35.94c2.46,0,5.14,0,7.82,0a6,6,0,0,0,1.78-.63l.4,0,.35.29c0,2.53,0,5.06.1,7.59a11.82,11.82,0,0,0,.32,1.76c.08.17.16.49.25.49,2.66,0,5.33,0,8,0,.09,0,.17-.32.26-.49l.4,0,.39.31c0,3.73,0,7.45,0,11.18-2.69,0-5.37,0-8.06,0-.54,0-1.08.51-1.62.79q0,10.18,0,20.37c-.58.76-.85,1.47.31,2a.29.29,0,0,1,.06.33l.25.42.49.86.33.33.06,0,.42.32,3,.39.38,0,.39-.07,1.19-.28.41,0h.31l.41-.08a8.68,8.68,0,0,1,1.13,2.6c.17,2,0,4.08.06,6.12a1.87,1.87,0,0,1-1.83,2.19,18.79,18.79,0,0,0-3.2,1.07l-.77,0-9.34-1.15a.34.34,0,0,1-.34-.13l-.4-.28-2.69-2.7-.27-.37a.32.32,0,0,1-.13-.33Z"/><path class="cls-5" d="M60.7,27.94H72.86V94.46H60.7Z"/><path class="cls-6" d="M208.52,74V64.56h23.74V74Z"/><path class="cls-7" d="M182.92,45.6l-2.69,1.33c0,2.62,0,5.61.06,8.6,0,.3.75.77,1.18.81,1.28.11,2.59-.09,3.85.11.54.08,1.39.84,1.4,1.31.08,7.37.06,14.75,0,22.13,0,.27-.27.54-.41.82-.11-1.14-.32-2.28-.33-3.41,0-6.67,0-13.33,0-20.13H179.7V45.6Z"/><path class="cls-8" d="M91.67,74.14a6.54,6.54,0,0,1,2-.75c9.32,0,18.65,0,28,0,1.63,0,3.39.38,4.33-1.54,0,1.71-.77,2.34-2.6,2.33C112.83,74.07,102.25,74.13,91.67,74.14Z"/><path class="cls-9" d="M143.08,74c.23-.21.47-.62.7-.62q15.21,0,30.43,0c.48,0,1,.42,1.43.64Z"/><path class="cls-10" d="M248.66,74.13c.49-.26,1-.73,1.49-.74,6.24,0,12.49-.08,18.73,0,4.36,0,8.71.25,13.07.39a9,9,0,0,1-1.76.35Q264.43,74.15,248.66,74.13Z"/><path class="cls-11" d="M272.31,46.69a7.71,7.71,0,0,1-1.82-.46c-5.71-2.92-11.58-2.75-17.57-1.1a9.56,9.56,0,0,1-1.94.1C258.31,42.47,265.46,42.39,272.31,46.69Z"/><path class="cls-12" d="M202.64,93.76a18.79,18.79,0,0,1,3.2-1.07,1.87,1.87,0,0,0,1.83-2.19c0-2,.11-4.09-.06-6.12a8.68,8.68,0,0,0-1.13-2.6l1.8-.52c0,3.53.06,6.8-.06,10.06A2.24,2.24,0,0,1,207,93,30.88,30.88,0,0,1,202.64,93.76Z"/><path class="cls-13" d="M249.82,92.61a4.21,4.21,0,0,1,1.38.06,27.34,27.34,0,0,0,18.48.28,2.91,2.91,0,0,1,1,0A25.29,25.29,0,0,1,249.82,92.61Z"/><path class="cls-9" d="M197.61,35.28a6,6,0,0,1-1.78.63c-2.68.07-5.36,0-7.82,0l-1.15,3.47,0-3.83,1.07-.31Z"/><path class="cls-13" d="M269.9,79.88a9.79,9.79,0,0,1-1.74,1.56c-4.22,2.31-8.58,2.8-13.05.71A6.66,6.66,0,0,1,253.73,81C259.36,84.14,264.71,83.19,269.9,79.88Z"/><path class="cls-8" d="M198.4,57.21c.54-.28,1.08-.77,1.62-.79,2.69-.08,5.37,0,8.06,0-.38.21-.75.61-1.13.62C204.1,57.11,201.25,57.15,198.4,57.21Z"/><path class="cls-12" d="M192.53,92.66l9.34,1.15A12.66,12.66,0,0,1,192.53,92.66Z"/><path class="cls-8" d="M207.28,44.91c-.09.17-.17.49-.26.49-2.66,0-5.33,0-8,0-.09,0-.17-.32-.25-.49Z"/><path class="cls-8" d="M126,62.17l-1.47-4.64Z"/><path class="cls-7" d="M186.84,84.16l1.06,3.1Z"/><path class="cls-11" d="M275,48.62l-2.73-1.95Z"/><path class="cls-8" d="M198.73,79.53c-1.16-.48-.89-1.19-.31-2Z"/><path class="cls-8" d="M126.42,64.87c-1.16-.49-.85-1.2-.3-2Z"/><path class="cls-7" d="M186.44,81.84c1.08.34.89.92.29,1.57Z"/><path class="cls-8" d="M126.13,71.06c-.59-.64-.79-1.21.28-1.56Z"/><path class="cls-12" d="M205.35,81.89l-1.19.28Z"/><path class="cls-7" d="M185.2,44.34l-1.18.84Z"/><path class="cls-13" d="M272.4,79l-1.41.09C271.43,78.5,271.86,77.94,272.4,79Z"/><path class="cls-11" d="M279.64,54l-.75-1.14Z"/><path class="cls-11" d="M277.75,51.34l-.77-.85Z"/><path class="cls-11" d="M278.91,52.86l-.85-1.16Z"/><path class="cls-13" d="M282.33,73.4l.42-1.57Z"/><path class="cls-7" d="M186.41,42.5l-.4.77Z"/><path class="cls-13" d="M271,79l-1.15.85Z"/><path class="cls-13" d="M253.77,81l-1.25-.71Z"/><path class="cls-14" d="M279.24,87.3l0-1.27C279.94,86.44,280.16,86.86,279.24,87.3Z"/><path class="cls-15" d="M188,35.27l-1.07.31Z"/><path class="cls-14" d="M277.68,88.8l.42-.38Z"/><path class="cls-8" d="M199.86,81.47l-.33-.33Z"/><path class="cls-13" d="M274.3,81c-.15-.14-.29-.29-.43-.43C274,80.7,274.15,80.85,274.3,81Z"/><path class="cls-13" d="M273.92,80.6l-.43-.44Z"/><path class="cls-13" d="M273.54,80.2l-.42-.43Z"/><path class="cls-8" d="M199,80.28l-.25-.42Z"/><path class="cls-13" d="M273.16,79.81l-.42-.43Z"/><path class="cls-13" d="M272.78,79.41c-.14-.14-.28-.28-.41-.43C272.5,79.13,272.64,79.27,272.78,79.41Z"/><path class="cls-9" d="M198.36,35.55l-.35-.29Z"/><path class="cls-7" d="M186.76,41.26l-.21.44Z"/><path class="cls-13" d="M281.93,73.8l.42-.42Z"/><path class="cls-11" d="M277,50.52c-.13-.15-.27-.29-.41-.44C276.73,50.23,276.87,50.37,277,50.52Z"/><path class="cls-11" d="M276.63,50.11l-.43-.41Z"/><path class="cls-11" d="M276.24,49.73l-.44-.41Z"/><path class="cls-11" d="M275.84,49.36l-.45-.4Z"/><path class="cls-11" d="M275.43,49l-.45-.4Z"/><path class="cls-8" d="M208.07,45.2l-.39-.31Z"/><path class="cls-7" d="M186,43.26l-.28.38Z"/><path class="cls-12" d="M191.79,92.25l.4.28Z"/><path class="cls-7" d="M188.83,89.18l.27.37Z"/><path class="cls-7" d="M188.39,88.41l.31.44Z"/><path class="cls-14" d="M278.45,88.1l.44-.45Z"/><path class="cls-14" d="M278.84,87.7l.44-.43Z"/><path class="cls-14" d="M278.11,84.91l-.43-.43Z"/><path class="cls-14" d="M277.72,84.52l-.43-.43Z"/><path class="cls-14" d="M277.34,84.13l-.43-.43Z"/><path class="cls-14" d="M277,83.74l-.44-.43Z"/><path class="cls-14" d="M276.57,83.36l-.43-.44Z"/><path class="cls-14" d="M276.19,83l-.44-.49Z"/><path class="cls-13" d="M275.47,82.19l-.47-.46Z"/><path class="cls-12" d="M203.77,82.24l-.38,0Z"/><path class="cls-13" d="M275.06,81.78l-.43-.44Z"/><path class="cls-12" d="M206.07,81.86h0Z"/><path class="cls-12" d="M200.34,81.83l-.42-.32Z"/><path class="cls-13" d="M274.68,81.39l-.43-.44Z"/><path class="cls-16" d="M248.29,64.36l22.78.07a7.58,7.58,0,0,1-1.77.42q-9.65,0-19.28,0A6.62,6.62,0,0,1,248.29,64.36Z"/>
</svg>

